<svg width="48" height="48" viewBox="0 0 48 48" fill="none" xmlns="http://www.w3.org/2000/svg">
<path d="M4 23C4 11.954 12.954 3 24 3C35.046 3 44 11.954 44 23L24 25L4 23Z" fill="#00C853"/>
<path d="M44 23C44 34.046 35.046 43 24 43C12.954 43 4 34.046 4 23H44Z" fill="#00E676"/>
<path d="M39.29 42.34V45.5C39.29 45.69 39.19 45.85 39.04 45.93C38.9 46.02 38.71 46.03 38.54 45.93L35.82 44.34L31.14 36.19L29.14 32.72L25.39 26.2L28.32 23.27L32.31 30.21L34.38 33.81L39.29 42.34Z" fill="#C2EAFD"/>
<path d="M31.231 28.335C30.417 29.436 29.362 30.346 28.139 30.983L32.13 37.924C33.315 37.276 34.402 36.478 35.395 35.578L31.231 28.335Z" fill="#9ADDFB"/>
<path d="M39 23C39 27.24 37.23 31.08 34.38 33.81C33.42 34.74 32.33 35.54 31.14 36.19C29.02 37.34 26.59 38 24 38C21.47 38 19.04 37.38 16.86 36.19L12.18 44.34L9.45996 45.93C9.28996 46.03 9.09996 46.02 8.95996 45.93C8.80996 45.85 8.70996 45.69 8.70996 45.5V42.34L19.68 23.27L22.61 26.2L18.86 32.73C20.43 33.56 22.18 34 24 34C25.86 34 27.61 33.54 29.14 32.72C30.35 32.09 31.42 31.23 32.31 30.21C33.99 28.27 35 25.76 35 23H39Z" fill="#C2EAFD"/>
<path d="M28.5 13H26V10H22V13H19.5C18.672 13 18 13.672 18 14.5V23L22.932 27.932C23.522 28.522 24.478 28.522 25.067 27.932L30 23V14.5C30 13.672 29.328 13 28.5 13ZM24 22C22.619 22 21.5 20.881 21.5 19.5C21.5 18.119 22.619 17 24 17C25.381 17 26.5 18.119 26.5 19.5C26.5 20.881 25.381 22 24 22Z" fill="#37474F"/>
</svg>
