<svg width="252" height="272" viewBox="0 0 252 272" fill="none" xmlns="http://www.w3.org/2000/svg">
<path d="M251.932 80.1237C252.025 75.9007 250.96 71.7328 248.851 68.0725C246.639 64.4787 243.509 61.5394 239.784 59.5572C206.239 41.0347 172.679 22.5218 139.102 4.01871C135.053 1.58327 130.41 0.315887 125.686 0.356923C120.961 0.397959 116.341 1.74582 112.335 4.25121C98.9857 11.7978 32.171 48.4746 12.2535 59.5281C8.46332 61.432 5.29925 64.3838 3.13724 68.033C0.975224 71.6821 -0.0938613 75.8752 0.0569889 80.114V191.898C-0.0408786 196.026 0.962242 200.105 2.96324 203.717C5.18809 207.414 8.38477 210.43 12.2051 212.436C32.1226 223.489 98.947 260.166 112.296 267.712C116.3 270.221 120.92 271.572 125.644 271.616C130.368 271.661 135.013 270.397 139.063 267.964C172.582 249.422 206.12 230.91 239.677 212.426C243.498 210.417 246.697 207.402 248.929 203.707C250.93 200.096 251.933 196.016 251.835 191.888V80.1237" fill="#4E994A"/>
<path d="M247.568 205.47C248.075 204.909 248.551 204.321 248.992 203.707C250.993 200.095 251.997 196.016 251.899 191.888V80.1237C251.992 75.9007 250.926 71.7328 248.818 68.0725C248.469 67.5009 247.956 67.0553 247.559 66.5225L126 136.001L247.568 205.47Z" fill="#358230"/>
<path d="M247.57 205.469L126.002 136L4.43359 205.469C6.48928 208.353 9.16792 210.737 12.2708 212.444C32.1883 223.498 99.0127 260.174 112.362 267.721C116.366 270.229 120.985 271.58 125.71 271.625C130.434 271.669 135.078 270.405 139.129 267.973C172.647 249.431 206.185 230.918 239.743 212.434C242.842 210.73 245.518 208.349 247.57 205.469Z" fill="#1A7515"/>
<path d="M160.867 155.57C156.552 163.244 149.821 169.277 141.721 172.728C133.621 176.18 124.608 176.858 116.083 174.655C107.559 172.453 100.001 167.495 94.5872 160.551C89.1731 153.608 86.2061 145.07 86.148 136.266C86.0898 127.462 88.9438 118.885 94.2656 111.871C99.5875 104.857 107.079 99.7993 115.573 97.4846C124.068 95.1698 133.09 95.7281 141.234 99.0726C149.379 102.417 156.189 108.36 160.606 115.977L195.626 95.8947C186.737 80.6397 173.079 68.7306 156.755 62.0017C140.432 55.2728 122.349 54.0976 105.292 58.657C88.2349 63.2164 73.1501 73.2575 62.3613 87.2336C51.5724 101.21 45.678 118.345 45.586 136.001C45.5685 150.001 49.2442 163.759 56.2423 175.884C63.3286 188.132 73.5148 198.298 85.7765 205.36C98.0382 212.422 111.943 216.131 126.093 216.115C140.243 216.098 154.139 212.356 166.384 205.265C178.629 198.174 188.791 187.984 195.849 175.72L160.867 155.57Z" fill="white"/>
<path d="M239.062 128.936V116.943H229.307V107.198H217.304V116.943H202.696V107.198H190.693V116.943H180.928V128.936H190.673V143.594H180.928V155.577H190.673V165.323H202.676V155.577H217.295V165.323H229.297V155.577H239.043V143.594H229.356V128.936H239.062ZM217.304 143.594H202.696V128.936H217.304V143.594Z" fill="white"/>
</svg>
