<svg width="29" height="24" viewBox="0 0 29 24" fill="none" xmlns="http://www.w3.org/2000/svg">
<path d="M19.0462 14.0138C17.9415 14.0138 17.0462 15.2554 17.0462 16.7815C17.0462 18.3108 17.9415 19.5523 19.0462 19.5523C20.1508 19.5523 21.0462 18.3108 21.0462 16.7815C21.0446 15.2554 20.1508 14.0138 19.0462 14.0138ZM26.0092 6.80923C26.2385 6.24769 26.2477 3.05692 25.0323 0C25.0323 0 22.2462 0.306154 18.0308 3.2C17.1462 2.95385 15.6492 2.83385 14.1554 2.83385C12.6585 2.83385 11.1631 2.95385 10.2785 3.2C6.06154 0.306154 3.27538 0 3.27538 0C2.06154 3.05692 2.07385 6.24769 2.3 6.80923C0.872308 8.36 0 10.2231 0 12.7646C0 23.82 9.17385 23.9969 11.4877 23.9969L14.1554 24L16.82 23.9969C19.1369 23.9969 28.3077 23.82 28.3077 12.7646C28.3077 10.2231 27.4369 8.36 26.0092 6.80923ZM14.1969 22.6385H14.1108C8.30923 22.6385 3.78923 21.9477 3.78923 16.3077C3.78923 14.9554 4.26615 13.7031 5.4 12.6631C7.28769 10.9292 10.4846 11.8462 14.1108 11.8462H14.1969C17.8231 11.8462 21.0215 10.9292 22.9108 12.6631C24.0415 13.7031 24.5185 14.9554 24.5185 16.3077C24.5185 21.9477 20 22.6385 14.1969 22.6385ZM9.26308 14.0138C8.15846 14.0138 7.26308 15.2554 7.26308 16.7815C7.26308 18.3108 8.15846 19.5523 9.26308 19.5523C10.3692 19.5523 11.2646 18.3108 11.2646 16.7815C11.2646 15.2554 10.3692 14.0138 9.26308 14.0138Z" fill="black"/>
</svg>
