<svg width="47" height="47" viewBox="0 0 47 47" fill="none" xmlns="http://www.w3.org/2000/svg">
<path d="M31.8433 0H15.1567C6.78591 0 0 6.78591 0 15.1567V31.8433C0 40.2141 6.78591 47 15.1567 47H31.8433C40.2141 47 47 40.2141 47 31.8433V15.1567C47 6.78591 40.2141 0 31.8433 0Z" fill="black"/>
<path d="M14.9611 14.8271H9.88145C8.74741 14.8271 7.82809 15.7464 7.82809 16.8804V39.4674C7.82809 40.6015 8.74741 41.5208 9.88145 41.5208H14.9611C16.0951 41.5208 17.0145 40.6015 17.0145 39.4674V16.8804C17.0145 15.7464 16.0951 14.8271 14.9611 14.8271Z" fill="white"/>
<path d="M26.0527 14.7924H22.5453C21.3346 14.7924 20.3531 15.7202 20.3531 16.8648V39.6615C20.3531 40.806 21.3346 41.7339 22.5453 41.7339H26.0527C27.2634 41.7339 28.2449 40.806 28.2449 39.6615V16.8648C28.2449 15.7202 27.2634 14.7924 26.0527 14.7924Z" fill="white"/>
<path d="M40.3709 21.506H35.7136C34.8204 21.506 34.0963 22.1906 34.0963 23.0349V39.8529C34.0963 40.6973 34.8204 41.3818 35.7136 41.3818H40.3709C41.264 41.3818 41.9881 40.6973 41.9881 39.8529V23.0349C41.9881 22.1906 41.264 21.506 40.3709 21.506Z" fill="white"/>
<path d="M35.2395 21.5793C35.2395 21.5793 32.127 16.7595 28.0969 20.7162C24.0667 24.6728 27.0825 16.6974 27.0825 16.6974C27.0825 16.6974 28.0616 15.546 29.8801 15.1506C32.6246 14.5537 36.6285 15.3345 39.265 17.3949C40.6849 18.5045 41.9827 20.1919 41.9789 22.228C41.9591 32.878 40.6316 21.7808 40.6316 21.7808" fill="white"/>
<path d="M34.093 22.7741V19.9246L35.0583 21.3177L36.0479 21.5664C35.6567 22.0222 34.2231 23.9843 34.093 22.7741Z" fill="white"/>
<path d="M12.456 12.9425C15.0968 12.9425 17.2376 10.8421 17.2376 8.25116C17.2376 5.66019 15.0968 3.55978 12.456 3.55978C9.81517 3.55978 7.67438 5.66019 7.67438 8.25116C7.67438 10.8421 9.81517 12.9425 12.456 12.9425Z" fill="white"/>
</svg>
