<svg width="24" height="24" viewBox="0 0 24 24" fill="none" xmlns="http://www.w3.org/2000/svg">
<path d="M2.64935 0C1.9467 0 1.27283 0.279127 0.775977 0.775977C0.279127 1.27283 0 1.9467 0 2.64935C0 3.352 0.279127 4.02587 0.775977 4.52272C1.27283 5.01957 1.9467 5.2987 2.64935 5.2987C3.352 5.2987 4.02587 5.01957 4.52272 4.52272C5.01957 4.02587 5.2987 3.352 5.2987 2.64935C5.2987 1.9467 5.01957 1.27283 4.52272 0.775977C4.02587 0.279127 3.352 0 2.64935 0ZM0.155844 7.48052C0.114512 7.48052 0.074872 7.49694 0.0456456 7.52616C0.0164191 7.55539 0 7.59503 0 7.63636V23.8442C0 23.9302 0.0698182 24 0.155844 24H5.14286C5.18419 24 5.22383 23.9836 5.25306 23.9544C5.28228 23.9251 5.2987 23.8855 5.2987 23.8442V7.63636C5.2987 7.59503 5.28228 7.55539 5.25306 7.52616C5.22383 7.49694 5.18419 7.48052 5.14286 7.48052H0.155844ZM8.25974 7.48052C8.21841 7.48052 8.17877 7.49694 8.14954 7.52616C8.12032 7.55539 8.1039 7.59503 8.1039 7.63636V23.8442C8.1039 23.9302 8.17371 24 8.25974 24H13.2468C13.2881 24 13.3277 23.9836 13.357 23.9544C13.3862 23.9251 13.4026 23.8855 13.4026 23.8442V15.1169C13.4026 14.4969 13.6489 13.9023 14.0873 13.4639C14.5257 13.0255 15.1203 12.7792 15.7403 12.7792C16.3602 12.7792 16.9548 13.0255 17.3932 13.4639C17.8316 13.9023 18.0779 14.4969 18.0779 15.1169V23.8442C18.0779 23.9302 18.1477 24 18.2338 24H23.2208C23.2621 24 23.3018 23.9836 23.331 23.9544C23.3602 23.9251 23.3766 23.8855 23.3766 23.8442V13.0971C23.3766 10.0713 20.746 7.70494 17.7351 7.97797C16.8035 8.06278 15.8909 8.29333 15.0309 8.66119L13.4026 9.35938V7.63636C13.4026 7.59503 13.3862 7.55539 13.357 7.52616C13.3277 7.49694 13.2881 7.48052 13.2468 7.48052H8.25974Z" fill="black"/>
</svg>
