<svg width="31" height="25" viewBox="0 0 31 25" fill="none" xmlns="http://www.w3.org/2000/svg">
<path d="M27.125 0H3.875C2.84762 0.001099 1.86264 0.40971 1.13618 1.13618C0.40971 1.86264 0.001099 2.84762 0 3.875V20.4821C0.001099 21.5095 0.40971 22.4945 1.13618 23.221C1.86264 23.9474 2.84762 24.356 3.875 24.3571H27.125C28.1524 24.356 29.1374 23.9474 29.8638 23.221C30.5903 22.4945 30.9989 21.5095 31 20.4821V3.875C30.9989 2.84762 30.5903 1.86264 29.8638 1.13618C29.1374 0.40971 28.1524 0.001099 27.125 0ZM26.1438 6.40967L16.1795 14.1597C15.9852 14.3107 15.7461 14.3927 15.5 14.3927C15.2539 14.3927 15.0148 14.3107 14.8205 14.1597L4.85621 6.40967C4.73913 6.32126 4.6408 6.21046 4.56692 6.08372C4.49304 5.95698 4.44508 5.81682 4.42584 5.67138C4.40659 5.52595 4.41645 5.37814 4.45482 5.23654C4.4932 5.09495 4.55933 4.96239 4.64938 4.84657C4.73942 4.73076 4.85159 4.634 4.97936 4.5619C5.10713 4.48981 5.24795 4.44383 5.39364 4.42664C5.53933 4.40944 5.68699 4.42138 5.82803 4.46174C5.96907 4.5021 6.10069 4.57009 6.21522 4.66176L15.5 11.8831L24.7848 4.66176C25.0169 4.48643 25.3088 4.40954 25.5972 4.4477C25.8856 4.48587 26.1474 4.63602 26.326 4.8657C26.5046 5.09538 26.5856 5.38612 26.5515 5.67505C26.5174 5.96398 26.3709 6.22787 26.1438 6.40967Z" fill="black"/>
</svg>
