<svg width="256" height="289" viewBox="0 0 256 289" fill="none" xmlns="http://www.w3.org/2000/svg">
<path d="M128 288.464C124.025 288.464 120.315 287.404 116.87 285.549L81.623 264.613C76.323 261.698 78.973 260.638 80.563 260.108C87.718 257.723 89.043 257.192 96.463 252.951C97.259 252.421 98.319 252.686 99.113 253.216L126.145 269.383C127.205 269.913 128.53 269.913 129.325 269.383L235.065 208.165C236.125 207.635 236.655 206.576 236.655 205.251V83.0795C236.655 81.7545 236.125 80.6945 235.065 80.1645L129.325 19.2115C128.265 18.6815 126.94 18.6815 126.145 19.2115L20.405 80.1655C19.345 80.6955 18.815 82.0205 18.815 83.0805V205.251C18.815 206.311 19.345 207.635 20.405 208.165L49.292 224.86C64.928 232.81 74.732 223.535 74.732 214.26V93.6795C74.732 92.0895 76.058 90.4995 77.913 90.4995H91.429C93.019 90.4995 94.609 91.8245 94.609 93.6795V214.259C94.609 235.195 83.213 247.385 63.337 247.385C57.242 247.385 52.472 247.385 38.957 240.76L11.13 224.86C4.24 220.884 0 213.464 0 205.514V83.3455C0 75.3955 4.24 67.9755 11.13 63.9995L116.87 2.7825C123.495 -0.9275 132.505 -0.9275 139.13 2.7825L244.87 63.9995C251.76 67.9745 256 75.3945 256 83.3455V205.516C256 213.466 251.76 220.885 244.87 224.86L139.13 286.079C135.685 287.669 131.71 288.465 128 288.465V288.464ZM160.596 204.454C114.219 204.454 104.679 183.254 104.679 165.233C104.679 163.643 106.004 162.053 107.859 162.053H121.639C123.229 162.053 124.555 163.113 124.555 164.703C126.675 178.748 132.77 185.639 160.861 185.639C183.122 185.639 192.663 180.604 192.663 168.679C192.663 161.788 190.013 156.753 155.296 153.307C126.41 150.392 108.389 144.032 108.389 120.977C108.389 99.5105 126.409 86.7905 156.621 86.7905C190.542 86.7905 207.238 98.4505 209.358 123.891C209.358 124.686 209.093 125.481 208.563 126.276C208.033 126.806 207.238 127.336 206.443 127.336H192.663C191.337 127.336 190.013 126.276 189.747 124.951C186.567 110.377 178.352 105.606 156.621 105.606C132.241 105.606 129.325 114.086 129.325 120.446C129.325 128.132 132.77 130.517 165.631 134.757C198.228 138.997 213.598 145.092 213.598 167.883C213.333 191.204 194.253 204.454 160.596 204.454Z" fill="#539E43"/>
</svg>
