<svg width="170" height="118" viewBox="0 0 170 118" fill="none" xmlns="http://www.w3.org/2000/svg">
<mask id="path-1-inside-1_26_123" fill="white">
<rect x="10" y="17" width="150" height="91" rx="4"/>
</mask>
<rect x="10" y="17" width="150" height="91" rx="4" fill="#302A2A" stroke="#7B7B7B" stroke-width="16" mask="url(#path-1-inside-1_26_123)"/>
<rect y="105" width="170" height="13" rx="4" fill="#C4C4C4"/>
<rect x="73" y="108" width="25" height="5" fill="#6C6C6C"/>
<rect x="39" y="1" width="92" height="95" rx="9" fill="white" stroke="#C41A57" stroke-width="2"/>
<line x1="38" y1="19" x2="132" y2="19" stroke="#C41A57" stroke-width="2"/>
<path d="M48.1064 56.3652C50.2985 55.3656 52.2376 54.4803 53.9238 53.7095C55.61 52.9386 57.0854 52.2642 58.3501 51.686C59.6147 51.1079 60.6927 50.6141 61.584 50.2046C62.4753 49.7951 63.222 49.4578 63.8242 49.1929C64.4385 48.9159 64.9263 48.6991 65.2876 48.5425C65.6489 48.3739 65.932 48.2474 66.1367 48.1631C66.3535 48.0788 66.5101 48.0186 66.6064 47.9824C66.7028 47.9342 66.7871 47.8981 66.8594 47.874C66.9196 47.9222 66.9798 47.9884 67.04 48.0728C67.1003 48.1571 67.1665 48.2835 67.2388 48.4521C67.311 48.6208 67.3893 48.8436 67.4736 49.1206C67.57 49.3976 67.6844 49.759 67.8169 50.2046L51.4307 57.7202L67.7808 65.1636C67.6603 65.6213 67.5579 65.9946 67.4736 66.2837C67.3893 66.5607 67.311 66.7896 67.2388 66.9702C67.1665 67.1388 67.1003 67.2653 67.04 67.3496C66.9798 67.4339 66.9196 67.5002 66.8594 67.5483C65.8958 67.1509 63.8122 66.2235 60.6084 64.7661C57.4046 63.2967 53.0566 61.3034 47.5645 58.7861C47.5645 58.473 47.5645 58.2261 47.5645 58.0454C47.5645 57.8527 47.5584 57.7082 47.5464 57.6118C47.5464 57.5034 47.5464 57.4251 47.5464 57.377C47.5464 57.3288 47.5464 57.2866 47.5464 57.2505C47.5464 57.0939 47.5765 56.9373 47.6367 56.7808C47.709 56.6121 47.8656 56.4736 48.1064 56.3652ZM90.3901 47.2461C90.9826 47.2461 91.3563 47.3691 91.5112 47.6152C91.493 47.6699 91.4657 47.7383 91.4292 47.8203C91.4019 47.8932 91.3426 48.0391 91.2515 48.2578C91.1694 48.4766 91.0418 48.7956 90.8687 49.2148C90.6955 49.625 90.4539 50.1901 90.144 50.9102C89.8433 51.6211 89.465 52.5143 89.0093 53.5898C88.5535 54.6654 87.993 55.9779 87.3276 57.5273C86.6714 59.0768 85.8966 60.8906 85.0034 62.9688C84.1193 65.0378 83.0985 67.4303 81.9409 70.1465H80.9565C80.3823 70.1465 79.9995 70.0052 79.8081 69.7227L89.4331 47.2461H90.3901ZM120.984 56.3833C121.165 56.4676 121.285 56.6242 121.345 56.853C121.405 57.0698 121.436 57.3348 121.436 57.6479V58.8042C119.123 59.8641 117.082 60.7975 115.311 61.6045C113.541 62.4115 111.993 63.116 110.668 63.7183C109.355 64.3205 108.235 64.8324 107.308 65.2539C106.392 65.6755 105.627 66.0247 105.013 66.3018C104.399 66.5788 103.911 66.8016 103.55 66.9702C103.201 67.1268 102.93 67.2472 102.737 67.3315C102.544 67.4159 102.412 67.4761 102.339 67.5122C102.267 67.5363 102.207 67.5544 102.159 67.5664C102.062 67.5182 101.972 67.446 101.888 67.3496C101.815 67.2533 101.743 67.1147 101.671 66.9341C101.599 66.7534 101.526 66.5246 101.454 66.2476C101.382 65.9705 101.31 65.6213 101.237 65.1997L117.569 57.6841L101.201 50.2227L102.321 47.856L120.984 56.3833Z" fill="#C41A57"/>
<circle cx="47.5" cy="10.5" r="2.5" fill="#C41A57"/>
<rect x="104" y="9" width="20" height="4" rx="2" fill="#C41A57"/>
<circle cx="56" cy="10" r="2" fill="#C41A57"/>
</svg>
