<svg width="65" height="58" viewBox="0 0 65 58" fill="none" xmlns="http://www.w3.org/2000/svg">
<g clip-path="url(#clip0_1182_162)">
<path d="M53.4429 18.7443C52.7512 18.507 52.0536 18.2871 51.3508 18.0849C51.4688 17.6025 51.5775 17.1259 51.674 16.6577C53.2579 8.96919 52.2224 2.77515 48.6858 0.735776C45.2948 -1.2193 39.7493 0.819311 34.1486 5.69355C33.5966 6.17479 33.0569 6.66989 32.53 7.17839C32.1772 6.84026 31.8182 6.50868 31.4531 6.18384C25.5833 0.972163 19.6998 -1.22438 16.167 0.820835C12.7791 2.78201 11.7759 8.60484 13.2019 15.8914C13.3437 16.6131 13.5039 17.331 13.6822 18.0446C12.8494 18.2812 12.0458 18.5331 11.2767 18.8012C4.39486 21.2006 0 24.9607 0 28.861C0 32.8892 4.71809 36.9296 11.8859 39.3795C12.467 39.5774 13.0529 39.7606 13.6431 39.9293C13.4515 40.6977 13.2813 41.4714 13.1328 42.2494C11.7734 49.4096 12.835 55.0948 16.2137 57.0436C19.7034 59.056 25.5605 56.9877 31.2635 52.0022C31.7259 51.5969 32.1782 51.1801 32.6198 50.7523C33.1905 51.3029 33.7764 51.8375 34.3769 52.3554C39.9014 57.1091 45.3573 59.0286 48.7327 57.0745C52.2191 55.0562 53.3523 48.9488 51.8812 41.5182C51.7653 40.9361 51.6353 40.3568 51.4914 39.781C51.9028 39.6591 52.3065 39.5337 52.7 39.4032C60.1517 36.9344 65 32.943 65 28.861C65 24.9465 60.4632 21.161 53.4429 18.7443ZM51.8268 36.7676C51.4714 36.8852 51.1068 36.9987 50.735 37.1091C49.9124 34.5048 48.8023 31.7357 47.4437 28.8744C48.7401 26.0815 49.8075 23.3477 50.6071 20.7603C51.272 20.9528 51.9172 21.1557 52.5393 21.3697C58.5543 23.4406 62.2233 26.5019 62.2233 28.861C62.2233 31.3736 58.2608 34.6356 51.8268 36.7676ZM49.1573 42.0575C49.8078 45.343 49.9004 48.3137 49.4696 50.6362C49.0826 52.7231 48.3041 54.1142 47.3413 54.6716C45.2931 55.8573 40.9124 54.3161 36.188 50.2505C35.6295 49.769 35.0845 49.272 34.5536 48.7601C36.3853 46.757 38.2157 44.4285 40.0022 41.8422C43.1445 41.5634 46.1132 41.1074 48.8054 40.4851C48.935 41.0064 49.0524 41.5306 49.1573 42.0575ZM22.1599 54.4667C20.1586 55.1733 18.5646 55.1936 17.601 54.638C15.5507 53.4556 14.6984 48.8906 15.861 42.7674C15.9992 42.0439 16.1575 41.3243 16.3356 40.6095C18.998 41.1985 21.9451 41.622 25.0948 41.8775C26.8935 44.4082 28.7767 46.7342 30.6747 48.771C30.2713 49.1613 29.8584 49.5416 29.4364 49.9116C26.9143 52.116 24.3872 53.6801 22.1599 54.4667ZM12.7842 36.7521C9.61467 35.6687 6.99715 34.2608 5.20305 32.7244C3.59074 31.3439 2.77697 29.9731 2.77697 28.861C2.77697 26.4941 6.30551 23.4751 12.1908 21.4233C12.905 21.1745 13.6525 20.9396 14.4282 20.7192C15.2417 23.3649 16.3087 26.1312 17.5962 28.9285C16.2919 31.7672 15.2097 34.5777 14.3884 37.2546C13.8496 37.1003 13.3147 36.9327 12.7842 36.7521ZM15.927 15.358C14.7055 9.11519 15.5167 4.40599 17.5584 3.22406C19.7328 1.96519 24.5413 3.76005 29.6095 8.26029C29.94 8.55441 30.2652 8.85449 30.5848 9.16038C28.6962 11.1883 26.8303 13.4971 25.0476 16.0128C21.9906 16.2962 19.0643 16.7512 16.3739 17.3608C16.2081 16.6971 16.0591 16.0292 15.927 15.358ZM43.9651 22.2815C43.3297 21.1838 42.6706 20.1 41.9885 19.0307C44.0624 19.293 46.0495 19.6411 47.9154 20.0667C47.3553 21.8623 46.6571 23.7394 45.8352 25.664C45.2344 24.5242 44.6109 23.3964 43.9651 22.2815ZM32.5312 11.1449C33.8119 12.5325 35.0947 14.0816 36.3563 15.7625C33.797 15.6416 31.2333 15.6411 28.6739 15.7609C29.9368 14.0956 31.2305 12.5485 32.5312 11.1449ZM21.0239 22.3005C20.3862 23.4065 19.7744 24.5272 19.189 25.6618C18.3805 23.744 17.6886 21.8582 17.1237 20.0372C18.9782 19.6223 20.9559 19.2831 23.0166 19.0257C22.3268 20.1015 21.6624 21.1936 21.0239 22.3005ZM23.0758 38.8938C20.9468 38.6562 18.9394 38.3345 17.0854 37.9308C17.6592 36.0772 18.3663 34.1514 19.1923 32.1925C19.78 33.3278 20.3944 34.4492 21.0349 35.5557C21.6935 36.6932 22.3755 37.8074 23.0758 38.8938ZM32.6079 46.7725C31.2917 45.3527 29.979 43.7818 28.697 42.0923C29.9416 42.141 31.2104 42.1659 32.5 42.1659C33.8249 42.1659 35.1345 42.1362 36.4236 42.0788C35.1579 43.7988 33.88 45.372 32.6079 46.7725ZM45.8613 32.0924C46.7302 34.0729 47.4624 35.9886 48.0439 37.8104C46.1594 38.2405 44.1246 38.5868 41.9806 38.8441C42.6676 37.7549 43.3329 36.6523 43.9761 35.5367C44.63 34.4027 45.2585 33.2544 45.8613 32.0924ZM41.5708 34.1493C40.5862 35.8597 39.5462 37.5377 38.4526 39.1805C36.4715 39.3208 34.486 39.3905 32.5 39.3895C30.4771 39.3895 28.5096 39.3265 26.615 39.2036C25.4928 37.5646 24.433 35.8837 23.4378 34.1646C22.4474 32.4545 21.5225 30.7075 20.6647 28.9272C21.5203 27.1466 22.4427 25.3987 23.4297 23.6874L23.4295 23.6876C24.4161 21.9759 25.4675 20.3022 26.5812 18.6702C28.5142 18.5239 30.4964 18.4478 32.4997 18.4478C34.5122 18.4478 36.4972 18.5247 38.4297 18.672C39.5322 20.3015 40.5768 21.9694 41.5617 23.6727C42.552 25.3802 43.4865 27.1196 44.3638 28.8879C43.4955 30.6743 42.564 32.4292 41.5708 34.1493ZM47.2989 3.14128C49.4754 4.3966 50.3219 9.45872 48.9544 16.0971C48.867 16.5206 48.769 16.952 48.6624 17.3895C45.9654 16.7669 43.0371 16.304 39.9712 16.0164C38.1852 13.473 36.3345 11.1607 34.4767 9.15886C34.9636 8.68952 35.462 8.23235 35.9717 7.78777C40.7705 3.61177 45.2555 1.9629 47.2989 3.14128ZM32.5 23.0567C35.7056 23.0567 38.3043 25.6554 38.3043 28.861C38.3043 32.0665 35.7056 34.6653 32.5 34.6653C29.2944 34.6653 26.6957 32.0665 26.6957 28.861C26.6957 25.6554 29.2944 23.0567 32.5 23.0567Z" fill="#00D8FF"/>
</g>
<defs>
<clipPath id="clip0_1182_162">
<rect width="65" height="57.8906" fill="white"/>
</clipPath>
</defs>
</svg>
