<svg width="128" height="128" viewBox="0 0 128 128" fill="none" xmlns="http://www.w3.org/2000/svg">
<path d="M45.2871 49.5589C49.7041 63.0659 51.3771 87.1599 64.2931 87.1599C65.2751 87.1599 66.2701 87.0639 67.2671 86.8739C55.5271 84.1369 54.1351 60.3049 46.9701 47.9619C46.3991 48.4836 45.838 49.0161 45.2871 49.5589Z" fill="url(#paint0_linear_1196_343)"/>
<path d="M46.9707 47.9622C54.1357 60.3042 55.5277 84.1362 67.2677 86.8742C68.2099 86.6963 69.137 86.4459 70.0407 86.1252C59.5017 80.9612 56.5897 57.8192 48.4527 46.6782C47.9607 47.0882 47.4657 47.5172 46.9707 47.9622Z" fill="url(#paint1_linear_1196_343)"/>
<path d="M57.294 40.6231C56.314 40.6231 55.317 40.7191 54.317 40.9091C51.705 41.4021 49.049 42.5271 46.373 44.2301C47.103 44.9521 47.8 45.7771 48.454 46.6781C51.177 44.4191 53.881 42.7501 56.574 41.7461C57.5575 41.3785 58.571 41.0967 59.603 40.9041C58.848 40.7151 58.0724 40.6207 57.294 40.6231Z" fill="#14559A"/>
<path d="M78.2685 81.3661C79.3912 80.4692 80.4723 79.5216 81.5085 78.5261C77.0205 65.0831 75.4135 40.6431 62.4075 40.6431C61.4775 40.6431 60.5395 40.7301 59.6035 40.9031C71.4505 43.8501 72.9685 69.6251 78.2685 81.3661Z" fill="url(#paint2_linear_1196_343)"/>
<path d="M59.604 40.9041C58.8484 40.7143 58.072 40.6195 57.293 40.6221L62.407 40.6411C61.478 40.6411 60.54 40.7271 59.604 40.9041Z" fill="#3092C4"/>
<path d="M78.04 84.2212C77.5224 83.7208 77.033 83.1919 76.574 82.6372C74.386 84.1862 72.206 85.3612 70.041 86.1262C70.812 86.5022 71.619 86.7822 72.477 86.9552C73.141 87.0912 73.83 87.1612 74.552 87.1612C76.983 87.1612 78.905 86.8732 80.539 86.0892C79.639 85.6012 78.813 84.9712 78.04 84.2212Z" fill="#1969BC"/>
<path d="M56.5723 41.7478C67.1833 47.2978 68.1063 72.4318 76.5733 82.6368C77.1413 82.2368 77.7033 81.8128 78.2643 81.3658C72.9643 69.6248 71.4493 43.8468 59.6043 40.9028C58.5933 41.0918 57.5843 41.3718 56.5723 41.7478Z" fill="url(#paint3_linear_1196_343)"/>
<path d="M48.4531 46.678C56.5901 57.819 59.5021 80.962 70.0411 86.126C72.2071 85.361 74.3871 84.187 76.5741 82.637C68.1071 72.432 67.1841 47.299 56.5731 41.748C53.8801 42.75 51.1761 44.419 48.4531 46.678Z" fill="url(#paint4_linear_1196_343)"/>
<path d="M40.0836 49.2341C38.8086 52.1171 37.5056 55.9081 35.9316 60.8551C39.0626 56.4421 42.1846 52.6411 45.2886 49.5601C44.8969 48.3328 44.4355 47.1288 43.9066 45.9541C42.5735 46.977 41.2973 48.0719 40.0836 49.2341Z" fill="url(#paint5_linear_1196_343)"/>
<path d="M45.0362 45.1211C44.6622 45.3891 44.2853 45.6631 43.9062 45.9531C44.4013 47.0331 44.8592 48.2451 45.2862 49.5601C45.8382 49.018 46.3997 48.4856 46.9702 47.9631C46.3995 46.9675 45.7529 46.0174 45.0362 45.1211Z" fill="#2B74B1"/>
<path d="M46.3722 44.229C45.9272 44.511 45.4842 44.809 45.0352 45.12C45.7302 45.975 46.3682 46.93 46.9712 47.964C47.4662 47.516 47.9602 47.085 48.4532 46.677C47.7992 45.777 47.1032 44.951 46.3722 44.229Z" fill="#125A9E"/>
<path d="M118.751 39.5939C112.75 62.7379 100.215 81.3279 89.7067 86.0139H89.6857L89.1187 86.2569L89.0497 86.2839L88.8887 86.3459L88.8167 86.3759L88.5537 86.4689L88.4457 86.5069L88.3147 86.5499L88.1887 86.5939L88.0767 86.6319L87.8527 86.6999L87.7567 86.7249L87.6057 86.7659L87.5027 86.7939L87.3377 86.8369L87.1367 86.8809C87.6117 87.0559 88.1067 87.1449 88.6397 87.1449C98.6047 87.1449 108.653 69.2869 125.278 39.5889H118.75L118.751 39.5939Z" fill="url(#paint6_linear_1196_343)"/>
<path d="M33.7657 41.5632L33.7847 41.5472L33.8077 41.5322H33.8207L33.9817 41.4702L34.0137 41.4542L34.0557 41.4372L34.2287 41.3752H34.2377L34.6207 41.2412L34.6777 41.2262L34.8417 41.1772L34.9167 41.1532L35.0817 41.1042L35.1447 41.0872L35.6927 40.9452L35.7677 40.9282L35.9277 40.8972L36.0057 40.8732L36.1667 40.8432H36.2047L36.5377 40.7812H36.6037L36.7577 40.7542L36.8447 40.7392L36.9917 40.7172L37.0727 40.7012L37.4307 40.6692C37.0781 40.6348 36.724 40.6168 36.3697 40.6152C25.1467 40.6152 9.6847 61.4372 2.7207 88.4032H4.0637C6.14578 84.6813 8.16672 80.9254 10.1257 77.1372C15.0047 58.0372 24.9397 45.0112 33.7657 41.5602" fill="url(#paint7_linear_1196_343)"/>
<path d="M40.082 49.2339C41.2961 48.0719 42.5723 46.9767 43.905 45.9529C43.634 45.3496 43.3299 44.7617 42.994 44.1919C41.968 45.4379 41.03 47.0819 40.082 49.2339Z" fill="#0D82CA"/>
<path d="M41.0053 41.72C41.7383 42.334 42.3953 43.18 42.9953 44.193C43.1843 43.961 43.3763 43.746 43.5753 43.544C42.7696 42.7815 41.8558 42.1423 40.8633 41.647L40.9833 41.704L41.0053 41.72Z" fill="#0D82CA"/>
<path d="M10.127 77.138C20.36 57.419 25.208 44.939 33.767 41.561C24.942 45.015 15.005 58.04 10.127 77.138Z" fill="url(#paint8_linear_1196_343)"/>
<path d="M43.5741 43.5439C43.3751 43.7479 43.1851 43.9609 42.9941 44.1929C43.3161 44.7309 43.6151 45.3169 43.9071 45.9529C44.2851 45.6629 44.6631 45.3899 45.0361 45.1209C44.5863 44.5617 44.0977 44.0348 43.5741 43.5439Z" fill="#127BCA"/>
<path d="M14.7731 88.3152L14.5871 88.3372H14.5521L14.3941 88.3532H14.3681L13.9921 88.3782H13.9531C24.3091 88.0882 29.0441 82.9032 31.3931 75.3812C33.1781 69.6802 34.6451 64.8762 35.9301 60.8462C31.5921 66.9522 27.2341 74.2302 22.8531 82.3852C20.7411 86.3152 17.5281 87.9572 14.7731 88.3072" fill="url(#paint9_linear_1196_343)"/>
<path d="M14.7725 88.311C17.5275 87.96 20.7405 86.32 22.8525 82.388C27.2335 74.237 31.5935 66.957 35.9275 60.85C37.5045 55.901 38.8055 52.113 40.0815 49.229C31.4425 57.452 22.7705 71.125 14.7715 88.306" fill="url(#paint10_linear_1196_343)"/>
<path d="M10.1275 77.1392C8.16851 80.9276 6.14723 84.6834 4.06445 88.4052H7.96845C8.46148 84.6107 9.18212 80.8492 10.1265 77.1412" fill="#05A1E6"/>
<path d="M37.0725 40.7088L36.9895 40.7248L36.8435 40.7458L36.7575 40.7608L36.6035 40.7878L36.5375 40.8038L36.2045 40.8618H36.1665L36.0045 40.8938L35.9235 40.9158L35.7665 40.9468L35.6925 40.9648L35.1435 41.1068L35.0805 41.1248L34.9145 41.1738L34.8395 41.1948L34.6765 41.2438L34.6165 41.2598L34.2355 41.3938L34.0625 41.4538L33.9905 41.4838L33.8295 41.5438L33.7755 41.5698C25.2175 44.9468 20.3695 57.4268 10.1365 77.1458C9.19017 80.8534 8.46951 84.615 7.97852 88.4098H8.52552L12.2805 88.3938H14.0035L14.3785 88.3688H14.4025L14.5605 88.3528H14.5975L14.7835 88.3308C22.7835 71.1488 31.4555 57.4768 40.0935 49.2538C41.0435 47.1018 41.9805 45.4578 43.0045 44.2138C42.4045 43.2008 41.7485 42.3528 41.0165 41.7378L40.9955 41.7218L40.8735 41.6628L40.7525 41.6018L40.6355 41.5448L40.4965 41.4868L40.3885 41.4398L40.1615 41.3448L40.0645 41.3088L39.8955 41.2408L39.8045 41.2108L39.5695 41.1298H39.5505L39.2785 41.0528L39.2175 41.0338L38.9885 40.9698L38.9355 40.9548C38.7475 40.9061 38.5577 40.8644 38.3665 40.8298L38.3075 40.8138L38.0605 40.7738L38.0115 40.7588L37.7195 40.7198H37.6685L37.4425 40.6948L37.0845 40.7278" fill="url(#paint11_linear_1196_343)"/>
<path d="M95.3114 52.4071C93.3414 58.7141 91.7484 63.9171 90.3594 68.1981C95.7624 60.7631 101.084 51.4111 106.151 40.6191C100.238 42.4761 97.0864 46.7261 95.3114 52.4071Z" fill="url(#paint12_linear_1196_343)"/>
<path d="M90.53 85.6212C90.255 85.7612 89.978 85.8942 89.707 86.0152C100.215 81.3282 112.751 62.7382 118.751 39.5942H117.535C103.747 64.2252 99.313 80.7142 90.53 85.6212Z" fill="url(#paint13_linear_1196_343)"/>
<path d="M83.6679 83.5522C85.9549 80.7612 87.8159 76.0172 90.3589 68.1982C87.4259 72.2272 84.4739 75.6902 81.5189 78.5142L81.5039 78.5392C82.1489 80.4702 82.8559 82.1752 83.6619 83.5512" fill="#079AE1"/>
<path d="M83.6681 83.5518C82.8901 84.5018 82.0651 85.2248 81.1491 85.7608C80.9491 85.8778 80.7451 85.9878 80.5391 86.0878C81.5332 86.6267 82.6216 86.9699 83.7451 87.0988L84.2691 87.1448H84.3001L84.5521 87.1608H85.4071L85.5041 87.1448L85.6931 87.1288H85.7851L85.9901 87.1068H86.0071L86.0701 87.0918L86.2891 87.0578H86.3531L86.5991 87.0168H86.6391L87.1301 86.9128C85.7731 86.4168 84.6381 85.2458 83.6611 83.5788" fill="#1969BC"/>
<path d="M64.2949 87.1609C65.2769 87.1609 66.2709 87.0649 67.2679 86.8729C68.2104 86.6969 69.1376 86.4471 70.0409 86.1259C70.8119 86.5019 71.6199 86.7819 72.4759 86.9569C73.1399 87.0919 73.8299 87.1619 74.5529 87.1619L64.2949 87.1609ZM74.5529 87.1619C76.9819 87.1619 78.9059 86.8729 80.5389 86.0879C81.533 86.6272 82.6214 86.9707 83.7449 87.0999L84.2689 87.1449H84.2999L84.5519 87.1609H84.8539L74.5529 87.1619Z" fill="#1E5CB3"/>
<path d="M84.8535 87.1609H85.4145L85.5115 87.1449L85.7025 87.1289H85.7945L85.9985 87.1069H86.0155L86.0775 87.0909L86.2965 87.0579L86.3635 87.0429L86.6105 87.0029H86.6495L87.1405 86.8989C87.6155 87.0739 88.1105 87.1629 88.6435 87.1629L84.8555 87.1789L84.8535 87.1609Z" fill="#1D60B5"/>
<path d="M81.5111 78.5399V78.5239C80.475 79.5195 79.3938 80.4671 78.2711 81.3639C77.7191 81.8037 77.1545 82.2276 76.5781 82.6349C77.0541 83.2029 77.5371 83.7349 78.0461 84.2199C78.8181 84.9689 79.6431 85.5999 80.5441 86.0869C80.7491 85.9859 80.9541 85.8759 81.1531 85.7599C82.0711 85.2239 82.8941 84.4999 83.6731 83.5509C82.8671 82.1749 82.1601 80.4689 81.5161 78.5389" fill="#175FAB"/>
<path d="M113.685 39.5942H107.564L106.594 39.6412L106.143 40.6072C101.075 51.4002 95.7551 60.7522 90.3521 68.1872C87.8121 76.0052 85.9481 80.7502 83.6621 83.5402C84.6391 85.2082 85.7761 86.3802 87.1281 86.8772L87.2341 86.8542H87.2561L87.3311 86.8382L87.5011 86.7962L87.6021 86.7672L87.7531 86.7282L87.8471 86.7012L88.0731 86.6332L88.1851 86.5952L88.3111 86.5492L88.4411 86.5082L88.5471 86.4682L88.8111 86.3752L88.8841 86.3482L89.0461 86.2852L89.1141 86.2602L89.6821 86.0172H89.7021C89.9731 85.8982 90.2491 85.7632 90.5231 85.6232C99.3081 80.7152 103.743 64.2272 117.531 39.5972H113.68L113.685 39.5942Z" fill="url(#paint14_linear_1196_343)"/>
<path d="M37.4336 40.6771L37.4966 40.6931L37.6566 40.7101H37.7106L38.0026 40.7481L38.0516 40.7641L38.2976 40.8051L38.3596 40.8201L38.9266 40.9461L38.9786 40.9621L39.2066 41.0261L39.2696 41.0451L39.5406 41.1221L39.5616 41.1381L39.7986 41.2191L39.8886 41.2481L40.0586 41.3171L40.1546 41.3511L40.3806 41.4451L40.4906 41.4921L40.6266 41.5511L40.7466 41.6081L40.8656 41.6701C41.8446 42.1501 42.7446 42.7911 43.5786 43.5681C43.8866 43.2451 44.2066 42.9551 44.5406 42.6941C42.7176 41.4011 40.6506 40.6641 38.2696 40.6641C37.9936 40.6641 37.7176 40.6801 37.4376 40.7011" fill="#7DCBEC"/>
<path d="M43.5742 43.5439C44.0852 44.0189 44.5742 44.5489 45.0362 45.1209C45.4842 44.8099 45.9282 44.5099 46.3732 44.2299C45.8058 43.6585 45.1906 43.1366 44.5342 42.6699C44.2012 42.9299 43.8822 43.2219 43.5742 43.5439Z" fill="#5EC5ED"/>
<path d="M37.1679 40.7414L38.0004 40.7062C40.3831 40.7062 42.448 41.4431 44.2704 42.7354C46.1937 41.2159 48.5204 40.686 51.7512 40.686H36.1074L37.1679 40.7414Z" fill="url(#paint15_linear_1196_343)"/>
<path d="M51.7503 40.6866C48.5196 40.6866 46.1979 41.2165 44.2695 42.736C44.9056 43.1852 45.5215 43.7103 46.1071 44.2959C48.7876 42.5947 51.4376 41.4639 54.0525 40.9742C55.052 40.7874 56.0464 40.6915 57.0257 40.6915L51.7503 40.6866Z" fill="url(#paint16_linear_1196_343)"/>
<path d="M90.3585 68.2018C91.7495 63.9178 93.3385 58.7168 95.3125 52.4078C97.0895 46.7238 100.237 42.4738 106.147 40.6198L106.603 39.6538C96.9675 40.2308 92.4635 45.1328 90.1985 52.3918C86.2345 65.0648 83.8335 73.2798 81.5215 78.5148C84.4735 75.6918 87.4255 72.2268 90.3585 68.2018Z" fill="url(#paint17_linear_1196_343)"/>
<defs>
<linearGradient id="paint0_linear_1196_343" x1="56.4962" y1="40.3037" x2="56.4962" y2="98.8501" gradientUnits="userSpaceOnUse">
<stop stop-color="#0994DC"/>
<stop offset="0.35" stop-color="#66CEF5"/>
<stop offset="0.846" stop-color="#127BCA"/>
<stop offset="1" stop-color="#127BCA"/>
</linearGradient>
<linearGradient id="paint1_linear_1196_343" x1="58.701" y1="38.8957" x2="58.701" y2="98.7806" gradientUnits="userSpaceOnUse">
<stop stop-color="#0E76BC"/>
<stop offset="0.36" stop-color="#36AEE8"/>
<stop offset="0.846" stop-color="#00ADEF"/>
<stop offset="1" stop-color="#00ADEF"/>
</linearGradient>
<linearGradient id="paint2_linear_1196_343" x1="70.5522" y1="85.7386" x2="70.5522" y2="38.0891" gradientUnits="userSpaceOnUse">
<stop stop-color="#1C63B7"/>
<stop offset="0.5" stop-color="#33BDF2"/>
<stop offset="1" stop-color="#33BDF2" stop-opacity="0.42"/>
</linearGradient>
<linearGradient id="paint3_linear_1196_343" x1="67.3307" y1="32.6389" x2="67.3307" y2="94.9741" gradientUnits="userSpaceOnUse">
<stop stop-color="#166AB8"/>
<stop offset="0.4" stop-color="#36AEE8"/>
<stop offset="0.846" stop-color="#0798DD"/>
<stop offset="1" stop-color="#0798DD"/>
</linearGradient>
<linearGradient id="paint4_linear_1196_343" x1="62.7389" y1="33.1258" x2="62.7389" y2="99.4113" gradientUnits="userSpaceOnUse">
<stop stop-color="#124379"/>
<stop offset="0.39" stop-color="#1487CB"/>
<stop offset="0.78" stop-color="#165197"/>
<stop offset="1" stop-color="#165197"/>
</linearGradient>
<linearGradient id="paint5_linear_1196_343" x1="35.4289" y1="52.6961" x2="44.7849" y2="52.6961" gradientUnits="userSpaceOnUse">
<stop stop-color="#33BDF2" stop-opacity="0.698"/>
<stop offset="1" stop-color="#1DACD8"/>
</linearGradient>
<linearGradient id="paint6_linear_1196_343" x1="106.279" y1="84.4997" x2="106.279" y2="38.0827" gradientUnits="userSpaceOnUse">
<stop stop-color="#136AB4"/>
<stop offset="0.6" stop-color="#59CAF5" stop-opacity="0.549"/>
<stop offset="1" stop-color="#59CAF5" stop-opacity="0.235"/>
</linearGradient>
<linearGradient id="paint7_linear_1196_343" x1="2.22348" y1="63.7967" x2="36.9301" y2="63.7967" gradientUnits="userSpaceOnUse">
<stop stop-color="#05A1E6" stop-opacity="0.247"/>
<stop offset="1" stop-color="#05A1E6"/>
</linearGradient>
<linearGradient id="paint8_linear_1196_343" x1="22.1324" y1="85.6973" x2="22.1324" y2="38.17" gradientUnits="userSpaceOnUse">
<stop stop-color="#318ED5"/>
<stop offset="1" stop-color="#38A7E4"/>
</linearGradient>
<linearGradient id="paint9_linear_1196_343" x1="24.6945" y1="85.9504" x2="24.6945" y2="39.6326" gradientUnits="userSpaceOnUse">
<stop stop-color="#05A1E6"/>
<stop offset="1" stop-color="#05A1E6" stop-opacity="0.549"/>
</linearGradient>
<linearGradient id="paint10_linear_1196_343" x1="27.598" y1="88.3719" x2="27.598" y2="49.2328" gradientUnits="userSpaceOnUse">
<stop stop-color="#1959A6"/>
<stop offset="0.5" stop-color="#05A1E6"/>
<stop offset="0.918" stop-color="#7EC5EA"/>
<stop offset="1" stop-color="#7EC5EA"/>
</linearGradient>
<linearGradient id="paint11_linear_1196_343" x1="28.7724" y1="85.7807" x2="21.3086" y2="43.4514" gradientUnits="userSpaceOnUse">
<stop stop-color="#165096"/>
<stop offset="1" stop-color="#0D82CA"/>
</linearGradient>
<linearGradient id="paint12_linear_1196_343" x1="98.0135" y1="61.7695" x2="98.0135" y2="39.6483" gradientUnits="userSpaceOnUse">
<stop stop-color="#05A1E6"/>
<stop offset="0.874" stop-color="#0495D6"/>
<stop offset="1" stop-color="#0495D6"/>
</linearGradient>
<linearGradient id="paint13_linear_1196_343" x1="108.796" y1="37.6902" x2="99.8012" y2="88.7004" gradientUnits="userSpaceOnUse">
<stop stop-color="#38A7E4" stop-opacity="0.329"/>
<stop offset="0.962" stop-color="#0E88D3"/>
<stop offset="1" stop-color="#0E88D3"/>
</linearGradient>
<linearGradient id="paint14_linear_1196_343" x1="100.306" y1="39.5108" x2="100.306" y2="87.7702" gradientUnits="userSpaceOnUse">
<stop stop-color="#168CD4"/>
<stop offset="0.5" stop-color="#1C87CC"/>
<stop offset="1" stop-color="#154B8D"/>
</linearGradient>
<linearGradient id="paint15_linear_1196_343" x1="35.0371" y1="34.8012" x2="91.1497" y2="58.0762" gradientUnits="userSpaceOnUse">
<stop stop-color="#97D6EE"/>
<stop offset="0.703" stop-color="#55C1EA"/>
<stop offset="1" stop-color="#55C1EA"/>
</linearGradient>
<linearGradient id="paint16_linear_1196_343" x1="50.2914" y1="47.9743" x2="94.611" y2="27.8841" gradientUnits="userSpaceOnUse">
<stop stop-color="#7ACCEC"/>
<stop offset="1" stop-color="#3FB7ED"/>
</linearGradient>
<linearGradient id="paint17_linear_1196_343" x1="93.7211" y1="42.1344" x2="93.7211" y2="89.3369" gradientUnits="userSpaceOnUse">
<stop stop-color="#1DA7E7"/>
<stop offset="1" stop-color="#37ABE7" stop-opacity="0"/>
</linearGradient>
</defs>
</svg>
