<svg width="150" height="90" viewBox="0 0 150 90" fill="none" xmlns="http://www.w3.org/2000/svg">
<mask id="path-1-inside-1_12_265" fill="white">
<rect x="8.82349" width="132.353" height="80.2941" rx="4"/>
</mask>
<rect x="8.82349" width="132.353" height="80.2941" rx="4" fill="black" stroke="#302A2A" stroke-width="16" mask="url(#path-1-inside-1_12_265)"/>
<rect y="77.6471" width="150" height="11.4706" rx="4" fill="#C4C4C4"/>
<rect x="64.4118" y="80.2941" width="22.0588" height="4.41176" fill="#6C6C6C"/>
<rect x="21.1765" y="12.3529" width="22.0588" height="2.64706" fill="#35605A"/>
<rect x="21.1765" y="24.7059" width="13.2353" height="2.64706" fill="#35605A"/>
<rect x="58.2353" y="24.7059" width="13.2353" height="2.64706" fill="#35605A"/>
<rect x="40.5883" y="24.7059" width="13.2353" height="2.64706" fill="#35605A"/>
<rect x="21.1765" y="61.7647" width="13.2353" height="2.64706" fill="#35605A"/>
<rect x="38.8235" y="55.5883" width="13.2353" height="2.64706" fill="#35605A"/>
<rect x="21.1765" y="55.5883" width="13.2353" height="2.64706" fill="#35605A"/>
<rect x="50.2941" y="12.3529" width="10.5882" height="2.64706" fill="#35605A"/>
<rect x="21.1765" y="18.5294" width="27.3529" height="2.64706" fill="#35605A"/>
<rect x="21.1765" y="49.4117" width="34.4118" height="2.64706" fill="#35605A"/>
<rect x="21.1765" y="43.2353" width="19.4118" height="2.64706" fill="#35605A"/>
<rect x="21.1765" y="37.0588" width="47.6471" height="2.64706" fill="#35605A"/>
<rect x="21.1765" y="30.8824" width="27.3529" height="2.64706" fill="#35605A"/>
<rect width="22.0588" height="2.68424" transform="matrix(0.999978 -0.00662447 -0.00662447 -0.999978 80.6438 65.4751)" fill="#35605A"/>
<rect width="13.2353" height="2.68424" transform="matrix(0.999978 -0.00662447 -0.00662447 -0.999978 80.5609 52.9489)" fill="#35605A"/>
<rect width="13.2353" height="2.68424" transform="matrix(0.999978 -0.00662447 -0.00662447 -0.999978 117.619 52.7034)" fill="#35605A"/>
<rect width="13.2353" height="2.68424" transform="matrix(0.999978 -0.00662447 -0.00662447 -0.999978 99.9721 52.8203)" fill="#35605A"/>
<rect width="13.2353" height="2.68424" transform="matrix(0.999978 -0.00662447 -0.00662447 -0.999978 80.3119 15.3703)" fill="#35605A"/>
<rect width="13.2353" height="2.68424" transform="matrix(0.999978 -0.00662447 -0.00662447 -0.999978 98 21.5165)" fill="#35605A"/>
<rect width="13.2353" height="2.68424" transform="matrix(0.999978 -0.00662447 -0.00662447 -0.999978 80.3534 21.6334)" fill="#35605A"/>
<rect width="10.5882" height="2.68424" transform="matrix(0.999978 -0.00662447 -0.00662447 -0.999978 109.761 65.2822)" fill="#35605A"/>
<rect width="27.3529" height="2.68424" transform="matrix(0.999978 -0.00662447 -0.00662447 -0.999978 80.6023 59.212)" fill="#35605A"/>
<rect width="34.4118" height="2.68424" transform="matrix(0.999978 -0.00662447 -0.00662447 -0.999978 80.3948 27.8965)" fill="#35605A"/>
<rect width="19.4118" height="2.68424" transform="matrix(0.999978 -0.00662447 -0.00662447 -0.999978 80.4363 34.1596)" fill="#35605A"/>
<rect width="47.6471" height="2.68424" transform="matrix(0.999978 -0.00662447 -0.00662447 -0.999978 80.4778 40.4227)" fill="#35605A"/>
<rect width="27.3529" height="2.68424" transform="matrix(0.999978 -0.00662447 -0.00662447 -0.999978 80.5193 46.6858)" fill="#35605A"/>
</svg>
