<svg width="170" height="104" viewBox="0 0 170 104" fill="none" xmlns="http://www.w3.org/2000/svg">
<mask id="path-1-inside-1_26_146" fill="white">
<rect x="10" y="3" width="150" height="91" rx="4"/>
</mask>
<rect x="10" y="3" width="150" height="91" rx="4" stroke="#7B7B7B" stroke-width="16" mask="url(#path-1-inside-1_26_146)"/>
<rect y="91" width="170" height="13" rx="4" fill="#C4C4C4"/>
<rect x="73" y="94" width="25" height="5" fill="#6C6C6C"/>
<rect x="111" y="16" width="35" height="83" rx="1" fill="#302A2A" stroke="#7B7B7B" stroke-width="2"/>
<circle cx="128.5" cy="94.5" r="1.5" fill="#C4C4C4"/>
<rect x="19.4654" y="1.39109" width="87.1579" height="14.2105" rx="7.10526" transform="rotate(34.6244 19.4654 1.39109)" fill="white" stroke="#30AE9D" stroke-width="2"/>
<path d="M112.297 57.5942C114.188 59.3885 116.337 61.0653 118.915 60.8681C118.402 64.5972 115.624 68.1852 111.718 70.9797C107.405 74.0651 101.956 76 97.4056 76C92.9082 76 88.5173 73.9615 85.2414 70.7855C82.0357 67.6777 79.9709 63.5531 79.8822 59.3352C82.7178 54.8188 85.5011 50.9502 87.6916 48.7597C87.6871 48.7643 87.6882 48.7636 87.6965 48.7587C87.7266 48.7407 87.8511 48.6664 88.1473 48.5757C88.4879 48.4713 88.9549 48.375 89.5378 48.301C90.7003 48.1536 92.2392 48.1061 93.9761 48.2211C97.4606 48.4517 101.617 49.3274 105.038 51.2411C106.384 51.9938 107.618 53.0225 108.816 54.156C109.414 54.7218 109.994 55.3049 110.572 55.8883L110.632 55.9487C111.187 56.5081 111.744 57.0689 112.297 57.5942Z" fill="white" stroke="#30AE9D" stroke-width="2"/>
</svg>
