<svg width="48" height="48" viewBox="0 0 48 48" fill="none" xmlns="http://www.w3.org/2000/svg">
<path d="M32.5208 0H15.4792C6.93029 0 0 6.90321 0 15.4188V32.3937C0 40.9093 6.93029 47.8125 15.4792 47.8125H32.5208C41.0697 47.8125 48 40.9093 48 32.3937V15.4188C48 6.90321 41.0697 0 32.5208 0Z" fill="#C41A57"/>
<path d="M24.4283 37.6884C33.174 37.6884 40.2637 31.7516 40.2637 24.4282C40.2637 17.1048 33.174 11.168 24.4283 11.168C15.6826 11.168 8.5929 17.1048 8.5929 24.4282C8.5929 31.7516 15.6826 37.6884 24.4283 37.6884Z" fill="white"/>
<path d="M17.6539 18.5081C17.6539 18.5081 12.7992 18.3675 12.4202 13.3339C12.0412 8.30021 11.934 7.82702 11.934 7.82702C11.934 7.82702 17.0417 7.68421 19.3656 10.6588C21.6894 13.6333 21.4226 13.5761 21.4226 13.5761" fill="white"/>
<path d="M29.6807 16.595C29.6807 16.595 28.208 11.9849 32.8516 9.96353C37.4952 7.94214 37.9081 7.68481 37.9081 7.68481C37.9081 7.68481 39.7329 12.4391 37.6835 15.6076C35.6341 18.776 35.6001 18.5063 35.6001 18.5063" fill="white"/>
<path d="M28.2416 35.8989H20.223C18.6717 35.8989 17.4141 37.1516 17.4141 38.6969V43.8391C17.4141 45.3843 18.6717 46.637 20.223 46.637H28.2416C29.7929 46.637 31.0505 45.3843 31.0505 43.8391V38.6969C31.0505 37.1516 29.7929 35.8989 28.2416 35.8989Z" fill="white"/>
<path d="M31.0505 43.3196H17.4141V48.0001H31.0505V43.3196Z" fill="white"/>
<path d="M18.4297 40.9611C18.4297 40.9611 11.7915 42.487 9.62032 38.6052C7.4491 34.7234 7.65272 34.5577 5.96001 34.9338C4.2673 35.3099 6.63078 36.3136 6.63078 36.3136C6.63078 36.3136 7.53459 41.3295 8.3443 41.826C8.3443 41.826 9.38533 43.518 10.8926 44.0651C12.7647 44.7447 16.9532 44.0788 17.8039 43.7563C19.3397 43.1742 18.4297 40.9611 18.4297 40.9611V40.9611Z" fill="white"/>
</svg>
