<svg width="47" height="48" viewBox="0 0 47 48" fill="none" xmlns="http://www.w3.org/2000/svg">
<path d="M31.8433 0H15.1567C6.7859 0 0 6.7859 0 15.1567V31.8432C0 40.2141 6.7859 47 15.1567 47H31.8433C40.2141 47 47 40.2141 47 31.8432V15.1567C47 6.7859 40.2141 0 31.8433 0Z" fill="black"/>
<path d="M23.9194 37.0481C32.4828 37.0481 39.4249 31.2122 39.4249 24.0133C39.4249 16.8143 32.4828 10.9784 23.9194 10.9784C15.3559 10.9784 8.41388 16.8143 8.41388 24.0133C8.41388 31.2122 15.3559 37.0481 23.9194 37.0481Z" fill="white"/>
<path d="M17.2861 18.1937C17.2861 18.1937 12.5326 18.0555 12.1615 13.1074C11.7903 8.15919 11.6854 7.69404 11.6854 7.69404C11.6854 7.69404 16.6867 7.55365 18.9622 10.4777C21.2376 13.4017 20.9764 13.3454 20.9764 13.3454" fill="white"/>
<path d="M29.0623 16.3131C29.0623 16.3131 27.6203 11.7815 32.1671 9.79446C36.714 7.80746 37.1182 7.5545 37.1182 7.5545C37.1182 7.5545 38.9051 12.2279 36.8984 15.3425C34.8917 18.457 34.8583 18.1919 34.8583 18.1919" fill="white"/>
<path d="M27.6533 35.2891H19.8017C18.2827 35.2891 17.0513 36.5205 17.0513 38.0395V43.0943C17.0513 44.6133 18.2827 45.8447 19.8017 45.8447H27.6533C29.1723 45.8447 30.4037 44.6133 30.4037 43.0943V38.0395C30.4037 36.5205 29.1723 35.2891 27.6533 35.2891Z" fill="white"/>
<path d="M30.4037 42.5832H17.0513V47.1844H30.4037V42.5832Z" fill="white"/>
<path d="M18.0457 40.2649C18.0457 40.2649 11.5458 41.7648 9.41986 37.949C7.29387 34.1332 7.49325 33.9703 5.83581 34.34C4.17836 34.7097 6.4926 35.6964 6.4926 35.6964C6.4926 35.6964 7.37759 40.627 8.17042 41.1151C8.17042 41.1151 9.18977 42.7783 10.6656 43.3161C12.4987 43.9841 16.5999 43.3296 17.433 43.0125C18.9367 42.4403 18.0457 40.2649 18.0457 40.2649Z" fill="white"/>
</svg>
