<svg width="47" height="47" viewBox="0 0 47 47" fill="none" xmlns="http://www.w3.org/2000/svg">
<path d="M31.8433 0H15.1567C6.78591 0 0 6.78591 0 15.1567V31.8433C0 40.2141 6.78591 47 15.1567 47H31.8433C40.2141 47 47 40.2141 47 31.8433V15.1567C47 6.78591 40.2141 0 31.8433 0Z" fill="black"/>
<path d="M24.6029 11.9582H22.0112C15.8757 11.9582 10.902 16.932 10.902 23.0674V25.2081C10.902 31.3435 15.8757 36.3173 22.0112 36.3173H24.6029C30.7384 36.3173 35.7121 31.3435 35.7121 25.2081V23.0674C35.7121 16.932 30.7384 11.9582 24.6029 11.9582Z" fill="white"/>
<path d="M36.5386 5.73668H36.0552C34.6699 5.73668 33.5469 6.8597 33.5469 8.24502V8.72835C33.5469 10.1137 34.6699 11.2367 36.0552 11.2367H36.5386C37.9239 11.2367 39.0469 10.1137 39.0469 8.72835V8.24502C39.0469 6.8597 37.9239 5.73668 36.5386 5.73668Z" fill="white"/>
</svg>
