<svg width="128" height="128" viewBox="0 0 128 128" fill="none" xmlns="http://www.w3.org/2000/svg">
<path d="M1.4082 1.4082H126.592V126.593H1.4082V1.4082Z" fill="#F0DB4F"/>
<path d="M116.348 96.7359C115.431 91.0249 111.707 86.2279 100.676 81.7549C96.8436 79.9939 92.5715 78.7329 91.2985 75.8289C90.8465 74.1389 90.7865 73.1869 91.0725 72.1639C91.8935 68.8439 95.8565 67.8089 98.9975 68.7609C101.021 69.4389 102.936 70.9979 104.091 73.4849C109.493 69.9869 109.482 70.0099 113.254 67.6059C111.873 65.4649 111.136 64.4769 110.232 63.5609C106.983 59.9319 102.556 58.0629 95.4755 58.2059L91.7875 58.6829C88.2535 59.5759 84.8855 61.4309 82.9105 63.9179C76.9845 70.6419 78.6745 82.4099 85.8855 87.2529C92.9895 92.5849 103.426 93.7979 104.759 98.7839C106.056 104.888 100.273 106.864 94.5245 106.162C90.2885 105.281 87.9325 103.128 85.3855 99.2129C80.6975 101.926 80.6975 101.926 75.8775 104.698C77.0205 107.197 78.2215 108.328 80.1375 110.493C89.2055 119.691 111.898 119.239 115.968 105.317C116.133 104.839 117.229 101.651 116.348 96.7359ZM69.4625 58.9429H57.7535L57.7055 89.2149C57.7055 95.6529 58.0385 101.555 56.9915 103.364C55.2785 106.922 50.8395 106.481 48.8165 105.791C46.7575 104.779 45.7105 103.34 44.4975 101.306C44.1645 100.722 43.9145 100.27 43.8305 100.235L34.3105 106.065C35.8935 109.314 38.2255 112.134 41.2125 113.966C45.6745 116.644 51.6715 117.465 57.9435 116.025C62.0255 114.836 65.5475 112.373 67.3915 108.624C70.0575 103.709 69.4855 97.7599 69.4615 91.1799C69.5215 80.4449 69.4625 69.7119 69.4625 58.9429Z" fill="#323330"/>
</svg>
