<svg width="272" height="272" viewBox="0 0 272 272" fill="none" xmlns="http://www.w3.org/2000/svg">
<g clip-path="url(#clip0_1191_372)">
<path d="M135.993 0.00015884C128.718 -0.0173071 121.511 1.40579 114.789 4.18738C108.066 6.96896 101.961 11.054 96.8249 16.2068L16.1996 96.8435C6.02061 107.033 0.218772 120.791 0.0282802 135.192C-0.162211 149.593 5.27368 163.501 15.1796 173.955L83.9729 105.173C83.1517 102.337 83.1077 99.3326 83.8454 96.4736C84.5831 93.6146 86.0754 91.0063 88.1662 88.9215C91.2921 85.7995 95.5294 84.046 99.9472 84.046C104.365 84.046 108.602 85.7995 111.728 88.9215C118.302 95.4948 118.302 106.057 111.796 112.551C107.603 116.745 101.71 118.173 96.2922 116.949L27.1702 186.082L96.8362 255.737C107.212 266.133 121.294 271.982 135.982 271.997C150.671 272.012 164.764 266.192 175.161 255.816L245.915 185.062L212.47 151.617C209.634 152.44 206.629 152.485 203.77 151.747C200.911 151.009 198.302 149.516 196.218 147.424C193.093 144.298 191.337 140.058 191.337 135.637C191.337 131.217 193.093 126.977 196.218 123.851C197.765 122.294 199.603 121.058 201.628 120.212C203.653 119.366 205.825 118.928 208.019 118.921C210.214 118.915 212.388 119.341 214.417 120.175C216.447 121.009 218.292 122.235 219.848 123.783C224.042 127.976 225.47 133.869 224.246 139.287L257.826 172.867C267.286 162.341 272.343 148.584 271.953 134.437C271.563 120.29 265.755 106.832 255.73 96.8435L175.172 16.2862C170.035 11.1267 163.929 7.03221 157.206 4.23748C150.483 1.44275 143.274 0.00278563 135.993 0.00015884ZM171.806 83.8668C173.189 83.8442 174.56 84.0028 175.898 84.3202C178.81 84.9322 181.655 86.4168 183.956 88.7175C186.052 90.8142 187.548 93.3868 188.149 96.1635C188.995 98.9815 189.058 101.977 188.332 104.828C187.605 107.679 186.116 110.278 184.024 112.347C182.022 114.332 179.55 115.776 176.839 116.546C174.127 117.315 171.265 117.383 168.52 116.745L152.472 132.793C153.128 135.538 153.07 138.407 152.303 141.123C151.536 143.84 150.084 146.315 148.088 148.311C146.092 150.307 143.617 151.758 140.901 152.526C138.184 153.293 135.316 153.351 132.57 152.694C129.518 152.04 126.723 150.512 124.524 148.297C122.441 146.266 120.983 143.683 120.319 140.851C119.471 138.034 119.406 135.039 120.131 132.188C120.856 129.337 122.343 126.737 124.433 124.667C126.434 122.682 128.906 121.238 131.618 120.469C134.329 119.7 137.192 119.631 139.937 120.269L155.985 104.221C155.417 101.815 155.396 99.3129 155.923 96.8976C156.449 94.4822 157.51 92.2156 159.028 90.2642C160.546 88.3128 162.481 86.7263 164.692 85.6212C166.904 84.5161 169.335 83.9091 171.806 83.8668ZM172.18 92.1742C170.537 92.1805 168.931 92.6724 167.566 93.5879C166.201 94.5035 165.137 95.802 164.507 97.3203C163.878 98.8387 163.711 100.509 164.027 102.122C164.344 103.735 165.13 105.218 166.287 106.386C167.059 107.173 167.979 107.799 168.994 108.228C170.008 108.657 171.098 108.882 172.2 108.888C173.302 108.894 174.394 108.682 175.414 108.265C176.434 107.847 177.361 107.232 178.142 106.454C178.919 105.673 179.534 104.746 179.952 103.727C180.37 102.707 180.582 101.615 180.575 100.513C180.569 99.4107 180.345 98.321 179.915 97.3061C179.486 96.2912 178.86 95.3714 178.074 94.5995C177.3 93.8267 176.38 93.2146 175.369 92.7984C174.358 92.3821 173.274 92.17 172.18 92.1742ZM99.9416 92.3782C98.2955 92.3792 96.6866 92.8678 95.318 93.7825C93.9494 94.6972 92.8825 95.9968 92.252 97.5174C91.6214 99.0379 91.4555 100.711 91.7752 102.326C92.0949 103.941 92.8859 105.425 94.0482 106.59C94.8201 107.377 95.74 108.003 96.7548 108.432C97.7697 108.861 98.8595 109.086 99.9614 109.092C101.063 109.098 102.156 108.886 103.175 108.469C104.195 108.051 105.122 107.436 105.903 106.658C106.679 105.878 107.293 104.951 107.709 103.933C108.126 102.914 108.337 101.823 108.331 100.722C108.325 99.6218 108.101 98.5333 107.672 97.5195C107.244 96.5057 106.62 95.5865 105.835 94.8148C105.062 94.0405 104.143 93.4266 103.131 93.0085C102.12 92.5903 101.036 92.3761 99.9416 92.3782ZM208.062 127.251C205.822 127.259 203.678 128.155 202.1 129.744C200.641 131.328 199.85 133.414 199.894 135.567C199.938 137.72 200.812 139.773 202.335 141.296C203.858 142.819 205.911 143.693 208.064 143.737C210.217 143.781 212.303 142.99 213.887 141.531C214.673 140.759 215.299 139.839 215.729 138.824C216.158 137.809 216.382 136.72 216.389 135.618C216.395 134.516 216.183 133.423 215.765 132.404C215.348 131.384 214.732 130.457 213.955 129.676C213.182 128.902 212.263 128.29 211.251 127.873C210.24 127.457 209.155 127.245 208.062 127.251ZM136.333 128.135C134.684 128.107 133.064 128.577 131.686 129.483C131.206 129.811 130.751 130.175 130.326 130.571C129.93 130.968 129.59 131.444 129.25 131.92C128.204 133.535 127.748 135.461 127.959 137.373C128.17 139.285 129.034 141.066 130.406 142.415C131.969 143.976 134.088 144.853 136.297 144.852C138.507 144.851 140.625 143.972 142.187 142.409C143.748 140.846 144.625 138.727 144.624 136.517C144.623 134.308 143.744 132.19 142.181 130.628C140.632 129.065 138.533 128.17 136.333 128.135Z" fill="#0E7CAC"/>
</g>
<defs>
<clipPath id="clip0_1191_372">
<rect width="272" height="272" fill="white"/>
</clipPath>
</defs>
</svg>
