<svg width="1278" height="1333" viewBox="0 0 1278 1333" fill="none" xmlns="http://www.w3.org/2000/svg">
<g clip-path="url(#clip0_538_2078)">
<rect width="1278" height="1333" fill="white"/>
<path d="M279.364 1047.07C265.852 1047.07 254.201 1044.17 244.412 1038.38C234.623 1032.46 227.039 1024.11 221.662 1013.36C216.423 1002.47 213.803 989.713 213.803 975.098C213.803 960.482 216.767 947.867 222.696 937.25C228.625 926.633 236.829 918.43 247.308 912.639C257.924 906.848 270.195 903.952 284.121 903.952C296.254 903.952 307.147 906.365 316.798 911.191C326.588 916.017 334.24 923.117 339.755 932.493L311.628 944.075C309.422 940.49 305.975 937.388 301.287 934.768C296.737 932.148 290.877 930.839 283.707 930.839C277.227 930.839 271.298 932.493 265.921 935.802C260.544 939.111 256.27 944.075 253.098 950.693C249.927 957.173 248.342 965.308 248.342 975.098C248.342 989.575 251.651 1000.74 258.269 1008.6C264.887 1016.32 273.573 1020.18 284.328 1020.18C289.429 1020.18 294.324 1019.49 299.012 1018.12C303.7 1016.6 307.56 1014.12 310.594 1010.67C313.627 1007.22 315.144 1002.6 315.144 996.813V992.884H284.121V966.411H347.821V1044.59H326.312L321.762 1029.28C312.938 1041.14 298.805 1047.07 279.364 1047.07ZM365.556 1044.59V942.007H390.374L395.958 960.827C399.129 952.554 403.472 946.764 408.987 943.454C414.503 940.145 421.19 938.698 429.049 939.111V970.548C427.394 970.272 425.946 970.134 424.706 970.134C423.465 969.996 422.086 969.927 420.569 969.927C412.986 969.927 407.126 971.72 402.99 975.304C398.991 978.889 396.992 984.749 396.992 992.884V1044.59H365.556ZM493.384 1047.07C482.353 1047.07 472.564 1044.93 464.015 1040.66C455.605 1036.25 448.987 1029.97 444.161 1021.84C439.473 1013.7 437.129 1003.98 437.129 992.677C437.129 981.785 439.611 972.34 444.575 964.343C449.676 956.346 456.363 950.142 464.636 945.729C473.046 941.317 482.215 939.111 492.143 939.111C503.449 939.111 513.1 941.8 521.097 947.177C529.232 952.417 535.368 959.724 539.504 969.1C543.64 978.338 545.364 989.023 544.674 1001.16H468.772C469.324 1008.33 471.943 1013.7 476.631 1017.29C481.457 1020.87 486.765 1022.67 492.556 1022.67C497.382 1022.67 501.518 1021.98 504.965 1020.6C508.55 1019.08 511.308 1017.22 513.238 1015.01L538.263 1024.11C532.886 1031.97 526.13 1037.76 517.995 1041.49C509.998 1045.21 501.794 1047.07 493.384 1047.07ZM468.772 982.543H515.513C515.375 975.925 513.1 970.961 508.688 967.652C504.276 964.205 499.037 962.482 492.97 962.482C487.041 962.482 481.733 964.067 477.045 967.239C472.495 970.41 469.737 975.511 468.772 982.543ZM610.526 1047.07C599.496 1047.07 589.707 1044.93 581.158 1040.66C572.748 1036.25 566.13 1029.97 561.304 1021.84C556.616 1013.7 554.272 1003.98 554.272 992.677C554.272 981.785 556.754 972.34 561.717 964.343C566.819 956.346 573.506 950.142 581.779 945.729C590.189 941.317 599.358 939.111 609.286 939.111C620.592 939.111 630.243 941.8 638.24 947.177C646.375 952.417 652.51 959.724 656.647 969.1C660.783 978.338 662.507 989.023 661.817 1001.16H585.915C586.467 1008.33 589.086 1013.7 593.774 1017.29C598.6 1020.87 603.908 1022.67 609.699 1022.67C614.525 1022.67 618.661 1021.98 622.108 1020.6C625.693 1019.08 628.451 1017.22 630.381 1015.01L655.406 1024.11C650.029 1031.97 643.273 1037.76 635.138 1041.49C627.141 1045.21 618.937 1047.07 610.526 1047.07ZM585.915 982.543H632.656C632.518 975.925 630.243 970.961 625.831 967.652C621.419 964.205 616.179 962.482 610.113 962.482C604.184 962.482 598.876 964.067 594.188 967.239C589.638 970.41 586.88 975.511 585.915 982.543ZM720.017 1044.59C711.606 1044.59 704.919 1043.9 699.956 1042.52C694.992 1041 691.407 1038.18 689.201 1034.04C687.133 1029.77 686.099 1023.63 686.099 1015.63V965.998H669.14V942.007H686.099V916.361H717.535V942.007H739.872V965.998H717.535V1007.36C717.535 1012.19 718.431 1015.36 720.224 1016.87C722.154 1018.25 725.67 1018.94 730.772 1018.94H739.872V1044.59H720.017ZM813.479 1047.07C791.832 1047.07 776.459 1041.9 767.359 1031.56C758.397 1021.22 753.916 1005.43 753.916 984.198V906.434H786.593V986.886C786.593 993.642 787.213 999.571 788.454 1004.67C789.833 1009.64 792.453 1013.5 796.313 1016.25C800.174 1019.01 805.896 1020.39 813.479 1020.39C821.063 1020.39 826.716 1019.01 830.438 1016.25C834.299 1013.5 836.85 1009.64 838.091 1004.67C839.469 999.571 840.159 993.642 840.159 986.886V906.434H872.836V984.198C872.836 1005.43 868.286 1021.22 859.186 1031.56C850.086 1041.9 834.85 1047.07 813.479 1047.07ZM892.295 1077.89V942.007H919.595L923.731 956.07C927.04 950.417 931.659 946.212 937.588 943.454C943.654 940.559 949.445 939.111 954.96 939.111C963.785 939.111 971.575 941.317 978.331 945.729C985.225 950.142 990.602 956.415 994.463 964.55C998.323 972.547 1000.25 982.129 1000.25 993.298C1000.25 1004.47 998.323 1014.12 994.463 1022.25C990.602 1030.25 985.225 1036.38 978.331 1040.66C971.575 1044.93 963.785 1047.07 954.96 1047.07C949.445 1047.07 943.654 1045.62 937.588 1042.73C931.659 1039.83 927.04 1035.56 923.731 1029.9V1077.89H892.295ZM945.033 1022.67C951.1 1022.67 956.339 1020.18 960.751 1015.22C965.301 1010.26 967.576 1002.95 967.576 993.298C967.576 983.922 965.301 976.614 960.751 971.375C956.339 966.135 951.1 963.516 945.033 963.516C938.829 963.516 933.451 965.722 928.901 970.134C924.489 974.546 922.283 982.06 922.283 992.677C922.283 1003.16 924.489 1010.81 928.901 1015.63C933.451 1020.32 938.829 1022.67 945.033 1022.67Z" fill="black"/>
<path d="M657.353 168.85L855.767 283.404C878.466 296.51 886.11 301.176 891.508 307.234C896.48 312.814 900.255 319.354 902.602 326.449C905.15 334.153 905.369 343.106 905.369 369.317V598.426C905.369 624.637 905.15 633.589 902.602 641.293C900.255 648.389 896.48 654.929 891.508 660.509C886.11 666.567 878.466 671.233 855.767 684.338L657.353 798.893C634.654 811.999 626.791 816.285 618.845 817.931C611.527 819.446 603.976 819.446 596.657 817.931C588.711 816.285 580.849 811.999 558.15 798.893L359.735 684.338C337.036 671.233 329.392 666.567 323.994 660.509C319.023 654.929 315.247 648.389 312.9 641.293C310.353 633.589 310.134 624.637 310.134 598.426V369.317C310.134 343.106 310.353 334.153 312.9 326.449C315.247 319.354 319.023 312.814 323.994 307.234C329.392 301.176 337.036 296.51 359.735 283.404L558.15 168.85C580.849 155.744 588.711 151.458 596.657 149.812C603.976 148.297 611.527 148.297 618.845 149.812C626.791 151.458 634.654 155.744 657.353 168.85Z" fill="url(#paint0_linear_538_2078)" stroke="black" stroke-width="36.4716"/>
<path d="M402.705 476.393L305.049 529.548L313.703 640.801L604.197 816.334L892.22 648.218V446.726L801.981 409.641L703.089 446.726L693.2 386.156L604.197 331.766L522.612 386.156L516.431 529.548L402.705 476.393Z" fill="#FDFDFF" stroke="black" stroke-width="7.29432"/>
<path d="M657.353 168.85L855.767 283.404C878.466 296.51 886.11 301.176 891.508 307.234C896.48 312.814 900.255 319.354 902.602 326.449C905.15 334.153 905.369 343.106 905.369 369.317V598.426C905.369 624.637 905.15 633.589 902.602 641.293C900.255 648.389 896.48 654.929 891.508 660.509C886.11 666.567 878.466 671.233 855.767 684.338L657.353 798.893C634.654 811.999 626.791 816.285 618.845 817.931C611.527 819.446 603.976 819.446 596.657 817.931C588.711 816.285 580.849 811.999 558.15 798.893L359.735 684.338C337.036 671.233 329.392 666.567 323.994 660.509C319.023 654.929 315.247 648.389 312.9 641.293C310.353 633.589 310.134 624.637 310.134 598.426V369.317C310.134 343.106 310.353 334.153 312.9 326.449C315.247 319.354 319.023 312.814 323.994 307.234C329.392 301.176 337.036 296.51 359.735 283.404L558.15 168.85C580.849 155.744 588.711 151.458 596.657 149.812C603.976 148.297 611.527 148.297 618.845 149.812C626.791 151.458 634.654 155.744 657.353 168.85Z" stroke="black" stroke-width="36.4716"/>
<path d="M302.058 523.593L405.429 469.445C407.499 468.36 409.963 468.333 412.056 469.372L521.312 523.593M521.312 523.593L521.312 390.252C521.312 387.537 522.819 385.047 525.225 383.789L606.234 341.402C608.313 340.314 610.788 340.293 612.885 341.344L697.604 383.818C700.072 385.055 701.629 387.579 701.629 390.339L701.63 449.326M521.312 523.593L521.312 782.027M701.63 782.027L701.63 449.326M701.63 449.326L797.522 402.609C799.516 401.638 801.844 401.626 803.847 402.578L902.264 449.326" stroke="black" stroke-width="36.4716"/>
<path d="M618.127 443.406C618.127 442.078 618.849 440.855 620.011 440.213L657.422 419.551C659.852 418.209 662.832 419.967 662.832 422.744V449.119C662.832 450.446 662.111 451.669 660.948 452.311L623.537 472.973C621.107 474.316 618.127 472.558 618.127 469.781V443.406Z" fill="black"/>
<path d="M815.152 536.24C815.152 534.912 815.874 533.689 817.036 533.047L861.217 508.646C863.648 507.304 866.627 509.062 866.627 511.839V543.47C866.627 544.797 865.906 546.02 864.744 546.662L820.563 571.063C818.132 572.406 815.152 570.648 815.152 567.871V536.24Z" fill="black"/>
<path d="M438.113 591.9C438.113 590.572 438.835 589.349 439.997 588.707L477.408 568.045C479.839 566.702 482.818 568.461 482.818 571.237V597.612C482.818 598.94 482.097 600.163 480.935 600.805L443.524 621.467C441.093 622.81 438.113 621.051 438.113 618.274V591.9Z" fill="black"/>
<path d="M618.127 502.804C618.127 501.476 618.849 500.253 620.011 499.611L657.422 478.949C659.852 477.607 662.832 479.365 662.832 482.142V508.517C662.832 509.844 662.111 511.067 660.948 511.709L623.537 532.371C621.107 533.714 618.127 531.956 618.127 529.179V502.804Z" fill="black"/>
<path d="M815.152 595.639C815.152 594.311 815.874 593.089 817.036 592.447L861.218 568.045C863.649 566.702 866.628 568.461 866.628 571.237V602.869C866.628 604.197 865.907 605.419 864.744 606.061L820.563 630.463C818.132 631.806 815.152 630.047 815.152 627.271V595.639Z" fill="black"/>
<path d="M438.113 651.301C438.113 649.973 438.835 648.75 439.997 648.108L477.408 627.446C479.839 626.104 482.818 627.862 482.818 630.639V657.013C482.818 658.341 482.097 659.564 480.935 660.206L443.524 680.868C441.093 682.211 438.113 680.453 438.113 677.676V651.301Z" fill="black"/>
<path d="M618.127 562.202C618.127 560.874 618.849 559.651 620.011 559.009L657.422 538.347C659.852 537.005 662.832 538.763 662.832 541.54V567.914C662.832 569.242 662.111 570.465 660.948 571.107L623.537 591.769C621.107 593.112 618.127 591.354 618.127 588.577V562.202Z" fill="black"/>
<path d="M618.127 621.6C618.127 620.273 618.849 619.05 620.011 618.408L657.422 597.746C659.852 596.403 662.832 598.161 662.832 600.938V627.313C662.832 628.641 662.111 629.864 660.948 630.505L623.537 651.168C621.107 652.51 618.127 650.752 618.127 647.975V621.6Z" fill="black"/>
<path d="M618.127 680.998C618.127 679.67 618.849 678.448 620.011 677.806L657.422 657.143C659.852 655.801 662.832 657.559 662.832 660.336V686.711C662.832 688.039 662.111 689.262 660.948 689.903L623.537 710.566C621.107 711.908 618.127 710.15 618.127 707.373V680.998Z" fill="black"/>
<path d="M6.08018 1254.36V1199.01H40.7778V1206.2H14.4303V1223.06H38.9672V1230.22H14.4303V1247.17H41.102V1254.36H6.08018ZM57.6604 1212.85L66.8212 1229.01L76.0631 1212.85H84.8996L71.9556 1233.6L85.0077 1254.36H76.1712L66.8212 1238.85L57.4983 1254.36H48.6347L61.5517 1233.6L48.7969 1212.85H57.6604ZM93.1957 1269.92V1212.85H101.086V1219.58H101.762C102.23 1218.71 102.906 1217.71 103.789 1216.58C104.672 1215.44 105.897 1214.45 107.464 1213.61C109.031 1212.74 111.103 1212.31 113.679 1212.31C117.03 1212.31 120.021 1213.16 122.651 1214.85C125.281 1216.54 127.344 1218.98 128.839 1222.17C130.352 1225.36 131.109 1229.2 131.109 1233.68C131.109 1238.17 130.361 1242.02 128.866 1245.22C127.371 1248.41 125.317 1250.87 122.705 1252.6C120.093 1254.31 117.111 1255.17 113.76 1255.17C111.238 1255.17 109.175 1254.74 107.572 1253.9C105.987 1253.05 104.744 1252.06 103.843 1250.92C102.942 1249.79 102.248 1248.78 101.762 1247.9H101.276V1269.92H93.1957ZM101.113 1233.6C101.113 1236.52 101.537 1239.08 102.384 1241.28C103.23 1243.48 104.455 1245.2 106.059 1246.44C107.662 1247.66 109.626 1248.28 111.95 1248.28C114.364 1248.28 116.381 1247.64 118.003 1246.36C119.624 1245.06 120.849 1243.3 121.678 1241.09C122.525 1238.87 122.948 1236.38 122.948 1233.6C122.948 1230.86 122.534 1228.41 121.705 1226.23C120.894 1224.05 119.669 1222.33 118.03 1221.06C116.409 1219.8 114.382 1219.17 111.95 1219.17C109.608 1219.17 107.626 1219.78 106.005 1220.98C104.401 1222.19 103.185 1223.87 102.357 1226.04C101.528 1228.2 101.113 1230.72 101.113 1233.6ZM148.242 1199.01V1254.36H140.162V1199.01H148.242ZM176.596 1255.19C172.704 1255.19 169.308 1254.3 166.408 1252.52C163.507 1250.74 161.255 1248.24 159.652 1245.03C158.049 1241.83 157.247 1238.08 157.247 1233.79C157.247 1229.49 158.049 1225.72 159.652 1222.5C161.255 1219.27 163.507 1216.77 166.408 1214.98C169.308 1213.2 172.704 1212.31 176.596 1212.31C180.487 1212.31 183.883 1213.2 186.783 1214.98C189.684 1216.77 191.936 1219.27 193.539 1222.5C195.142 1225.72 195.944 1229.49 195.944 1233.79C195.944 1238.08 195.142 1241.83 193.539 1245.03C191.936 1248.24 189.684 1250.74 186.783 1252.52C183.883 1254.3 180.487 1255.19 176.596 1255.19ZM176.623 1248.41C179.145 1248.41 181.235 1247.74 182.892 1246.41C184.549 1245.08 185.774 1243.3 186.567 1241.09C187.378 1238.87 187.783 1236.43 187.783 1233.76C187.783 1231.12 187.378 1228.68 186.567 1226.47C185.774 1224.23 184.549 1222.44 182.892 1221.09C181.235 1219.74 179.145 1219.06 176.623 1219.06C174.082 1219.06 171.975 1219.74 170.299 1221.09C168.642 1222.44 167.408 1224.23 166.597 1226.47C165.804 1228.68 165.408 1231.12 165.408 1233.76C165.408 1236.43 165.804 1238.87 166.597 1241.09C167.408 1243.3 168.642 1245.08 170.299 1246.41C171.975 1247.74 174.082 1248.41 176.623 1248.41ZM204.963 1254.36V1212.85H212.773V1219.44H213.205C213.962 1217.21 215.295 1215.45 217.204 1214.17C219.132 1212.88 221.312 1212.23 223.744 1212.23C224.248 1212.23 224.843 1212.25 225.528 1212.28C226.23 1212.32 226.78 1212.36 227.176 1212.42V1220.15C226.852 1220.06 226.275 1219.96 225.446 1219.85C224.618 1219.72 223.789 1219.66 222.96 1219.66C221.051 1219.66 219.348 1220.06 217.853 1220.87C216.376 1221.67 215.205 1222.78 214.34 1224.2C213.475 1225.6 213.043 1227.21 213.043 1229.01V1254.36H204.963ZM250.571 1255.19C246.482 1255.19 242.96 1254.32 240.005 1252.57C237.069 1250.81 234.799 1248.33 233.195 1245.14C231.61 1241.93 230.817 1238.18 230.817 1233.87C230.817 1229.62 231.61 1225.87 233.195 1222.63C234.799 1219.39 237.033 1216.86 239.897 1215.04C242.78 1213.22 246.148 1212.31 250.004 1212.31C252.346 1212.31 254.616 1212.7 256.813 1213.47C259.011 1214.25 260.984 1215.46 262.732 1217.12C264.479 1218.78 265.857 1220.93 266.866 1223.58C267.875 1226.21 268.379 1229.41 268.379 1233.17V1236.03H235.384V1229.98H260.462C260.462 1227.86 260.029 1225.97 259.164 1224.33C258.3 1222.68 257.084 1221.37 255.516 1220.42C253.967 1219.46 252.148 1218.98 250.058 1218.98C247.788 1218.98 245.806 1219.54 244.113 1220.66C242.437 1221.76 241.14 1223.2 240.221 1224.98C239.321 1226.75 238.87 1228.67 238.87 1230.74V1235.47C238.87 1238.24 239.357 1240.6 240.329 1242.55C241.32 1244.49 242.698 1245.98 244.464 1247.01C246.229 1248.02 248.292 1248.52 250.652 1248.52C252.184 1248.52 253.58 1248.3 254.841 1247.87C256.102 1247.42 257.192 1246.75 258.111 1245.87C259.029 1244.99 259.732 1243.9 260.218 1242.6L267.866 1243.98C267.253 1246.23 266.154 1248.2 264.569 1249.9C263.002 1251.57 261.029 1252.88 258.651 1253.82C256.291 1254.73 253.598 1255.19 250.571 1255.19ZM302.591 1269.92C301.383 1269.92 300.285 1269.82 299.294 1269.62C298.303 1269.44 297.564 1269.25 297.078 1269.03L299.023 1262.41C300.501 1262.81 301.816 1262.98 302.969 1262.92C304.122 1262.87 305.14 1262.44 306.022 1261.63C306.923 1260.81 307.716 1259.49 308.4 1257.65L309.4 1254.9L294.213 1212.85H302.861L313.373 1245.06H313.805L324.317 1212.85H332.991L315.886 1259.9C315.093 1262.06 314.084 1263.89 312.859 1265.38C311.634 1266.9 310.175 1268.03 308.482 1268.79C306.788 1269.54 304.824 1269.92 302.591 1269.92ZM356.657 1255.19C352.766 1255.19 349.37 1254.3 346.469 1252.52C343.569 1250.74 341.317 1248.24 339.713 1245.03C338.11 1241.83 337.308 1238.08 337.308 1233.79C337.308 1229.49 338.11 1225.72 339.713 1222.5C341.317 1219.27 343.569 1216.77 346.469 1214.98C349.37 1213.2 352.766 1212.31 356.657 1212.31C360.548 1212.31 363.944 1213.2 366.845 1214.98C369.745 1216.77 371.997 1219.27 373.6 1222.5C375.204 1225.72 376.005 1229.49 376.005 1233.79C376.005 1238.08 375.204 1241.83 373.6 1245.03C371.997 1248.24 369.745 1250.74 366.845 1252.52C363.944 1254.3 360.548 1255.19 356.657 1255.19ZM356.684 1248.41C359.206 1248.41 361.296 1247.74 362.953 1246.41C364.611 1245.08 365.836 1243.3 366.628 1241.09C367.439 1238.87 367.844 1236.43 367.844 1233.76C367.844 1231.12 367.439 1228.68 366.628 1226.47C365.836 1224.23 364.611 1222.44 362.953 1221.09C361.296 1219.74 359.206 1219.06 356.684 1219.06C354.144 1219.06 352.036 1219.74 350.36 1221.09C348.703 1222.44 347.469 1224.23 346.658 1226.47C345.866 1228.68 345.469 1231.12 345.469 1233.76C345.469 1236.43 345.866 1238.87 346.658 1241.09C347.469 1243.3 348.703 1245.08 350.36 1246.41C352.036 1247.74 354.144 1248.41 356.684 1248.41ZM411.318 1237.14V1212.85H419.425V1254.36H411.48V1247.17H411.047C410.093 1249.38 408.561 1251.23 406.454 1252.71C404.364 1254.17 401.761 1254.9 398.644 1254.9C395.978 1254.9 393.618 1254.31 391.564 1253.14C389.528 1251.95 387.925 1250.19 386.754 1247.87C385.601 1245.55 385.024 1242.67 385.024 1239.25V1212.85H393.104V1238.28C393.104 1241.11 393.888 1243.36 395.455 1245.03C397.023 1246.71 399.058 1247.55 401.562 1247.55C403.076 1247.55 404.58 1247.17 406.075 1246.41C407.589 1245.66 408.841 1244.51 409.831 1242.98C410.84 1241.45 411.336 1239.5 411.318 1237.14ZM430.281 1254.36V1212.85H438.091V1219.44H438.523C439.28 1217.21 440.613 1215.45 442.523 1214.17C444.45 1212.88 446.63 1212.23 449.062 1212.23C449.567 1212.23 450.161 1212.25 450.846 1212.28C451.548 1212.32 452.098 1212.36 452.494 1212.42V1220.15C452.17 1220.06 451.593 1219.96 450.765 1219.85C449.936 1219.72 449.107 1219.66 448.278 1219.66C446.369 1219.66 444.666 1220.06 443.171 1220.87C441.694 1221.67 440.523 1222.78 439.658 1224.2C438.793 1225.6 438.361 1227.21 438.361 1229.01V1254.36H430.281ZM487.705 1229.71V1254.36H479.625V1212.85H487.381V1219.6H487.894C488.849 1217.41 490.344 1215.64 492.38 1214.31C494.434 1212.98 497.019 1212.31 500.136 1212.31C502.964 1212.31 505.441 1212.9 507.567 1214.09C509.693 1215.26 511.341 1217.01 512.512 1219.33C513.683 1221.66 514.269 1224.53 514.269 1227.95V1254.36H506.189V1228.93C506.189 1225.92 505.405 1223.57 503.838 1221.87C502.271 1220.16 500.118 1219.31 497.379 1219.31C495.506 1219.31 493.839 1219.71 492.38 1220.52C490.939 1221.33 489.795 1222.52 488.948 1224.09C488.119 1225.64 487.705 1227.51 487.705 1229.71ZM542.994 1255.19C538.905 1255.19 535.383 1254.32 532.428 1252.57C529.492 1250.81 527.222 1248.33 525.618 1245.14C524.033 1241.93 523.24 1238.18 523.24 1233.87C523.24 1229.62 524.033 1225.87 525.618 1222.63C527.222 1219.39 529.456 1216.86 532.32 1215.04C535.203 1213.22 538.571 1212.31 542.427 1212.31C544.769 1212.31 547.039 1212.7 549.237 1213.47C551.434 1214.25 553.407 1215.46 555.155 1217.12C556.902 1218.78 558.28 1220.93 559.289 1223.58C560.298 1226.21 560.802 1229.41 560.802 1233.17V1236.03H527.807V1229.98H552.885C552.885 1227.86 552.452 1225.97 551.588 1224.33C550.723 1222.68 549.507 1221.37 547.939 1220.42C546.39 1219.46 544.571 1218.98 542.481 1218.98C540.211 1218.98 538.229 1219.54 536.536 1220.66C534.86 1221.76 533.563 1223.2 532.644 1224.98C531.744 1226.75 531.293 1228.67 531.293 1230.74V1235.47C531.293 1238.24 531.78 1240.6 532.752 1242.55C533.743 1244.49 535.122 1245.98 536.887 1247.01C538.653 1248.02 540.715 1248.52 543.075 1248.52C544.607 1248.52 546.003 1248.3 547.264 1247.87C548.525 1247.42 549.615 1246.75 550.534 1245.87C551.452 1244.99 552.155 1243.9 552.641 1242.6L560.289 1243.98C559.676 1246.23 558.578 1248.2 556.992 1249.9C555.425 1251.57 553.452 1252.88 551.074 1253.82C548.714 1254.73 546.021 1255.19 542.994 1255.19ZM569.767 1254.36V1212.85H577.847V1254.36H569.767ZM573.848 1206.44C572.443 1206.44 571.236 1205.98 570.227 1205.04C569.236 1204.08 568.74 1202.95 568.74 1201.63C568.74 1200.3 569.236 1199.17 570.227 1198.23C571.236 1197.27 572.443 1196.8 573.848 1196.8C575.253 1196.8 576.451 1197.27 577.442 1198.23C578.451 1199.17 578.955 1200.3 578.955 1201.63C578.955 1202.95 578.451 1204.08 577.442 1205.04C576.451 1205.98 575.253 1206.44 573.848 1206.44ZM606.12 1270.79C602.823 1270.79 599.986 1270.35 597.608 1269.49C595.248 1268.62 593.32 1267.48 591.825 1266.06C590.33 1264.63 589.213 1263.08 588.474 1261.38L595.419 1258.52C595.905 1259.31 596.554 1260.15 597.365 1261.03C598.193 1261.93 599.31 1262.7 600.715 1263.33C602.139 1263.96 603.967 1264.27 606.201 1264.27C609.264 1264.27 611.795 1263.53 613.795 1262.03C615.794 1260.55 616.794 1258.19 616.794 1254.95V1246.79H616.281C615.794 1247.67 615.092 1248.65 614.173 1249.74C613.272 1250.82 612.029 1251.75 610.444 1252.55C608.858 1253.34 606.796 1253.73 604.255 1253.73C600.977 1253.73 598.022 1252.97 595.392 1251.44C592.78 1249.89 590.708 1247.61 589.177 1244.6C587.663 1241.57 586.907 1237.85 586.907 1233.44C586.907 1229.03 587.654 1225.24 589.15 1222.09C590.663 1218.94 592.735 1216.52 595.365 1214.85C597.995 1213.16 600.977 1212.31 604.31 1212.31C606.886 1212.31 608.966 1212.74 610.552 1213.61C612.137 1214.45 613.371 1215.44 614.254 1216.58C615.155 1217.71 615.848 1218.71 616.335 1219.58H616.929V1212.85H624.847V1255.28C624.847 1258.84 624.018 1261.77 622.361 1264.06C620.703 1266.35 618.461 1268.04 615.632 1269.14C612.822 1270.24 609.651 1270.79 606.12 1270.79ZM606.039 1247.03C608.363 1247.03 610.327 1246.49 611.93 1245.41C613.551 1244.31 614.776 1242.75 615.605 1240.71C616.452 1238.66 616.875 1236.2 616.875 1233.33C616.875 1230.54 616.461 1228.08 615.632 1225.96C614.803 1223.83 613.587 1222.17 611.984 1220.98C610.381 1219.78 608.399 1219.17 606.039 1219.17C603.607 1219.17 601.58 1219.8 599.959 1221.06C598.337 1222.31 597.112 1224 596.284 1226.14C595.473 1228.29 595.068 1230.68 595.068 1233.33C595.068 1236.05 595.482 1238.44 596.311 1240.49C597.139 1242.55 598.364 1244.15 599.986 1245.3C601.625 1246.46 603.643 1247.03 606.039 1247.03ZM643.763 1229.71V1254.36H635.683V1199.01H643.655V1219.6H644.169C645.141 1217.37 646.628 1215.6 648.627 1214.28C650.627 1212.97 653.239 1212.31 656.464 1212.31C659.31 1212.31 661.797 1212.89 663.922 1214.07C666.066 1215.24 667.724 1216.98 668.895 1219.31C670.084 1221.61 670.678 1224.5 670.678 1227.95V1254.36H662.598V1228.93C662.598 1225.88 661.815 1223.52 660.247 1221.85C658.68 1220.15 656.5 1219.31 653.708 1219.31C651.798 1219.31 650.087 1219.71 648.573 1220.52C647.078 1221.33 645.898 1222.52 645.033 1224.09C644.187 1225.64 643.763 1227.51 643.763 1229.71ZM682.109 1254.36V1199.01H690.189V1219.58H690.675C691.144 1218.71 691.819 1217.71 692.702 1216.58C693.585 1215.44 694.81 1214.45 696.377 1213.61C697.944 1212.74 700.016 1212.31 702.592 1212.31C705.943 1212.31 708.934 1213.16 711.564 1214.85C714.194 1216.54 716.257 1218.98 717.752 1222.17C719.266 1225.36 720.022 1229.2 720.022 1233.68C720.022 1238.17 719.275 1242.02 717.779 1245.22C716.284 1248.41 714.23 1250.87 711.618 1252.6C709.006 1254.31 706.024 1255.17 702.673 1255.17C700.151 1255.17 698.088 1254.74 696.485 1253.9C694.9 1253.05 693.657 1252.06 692.756 1250.92C691.855 1249.79 691.162 1248.78 690.675 1247.9H690V1254.36H682.109ZM690.027 1233.6C690.027 1236.52 690.45 1239.08 691.297 1241.28C692.143 1243.48 693.368 1245.2 694.972 1246.44C696.575 1247.66 698.539 1248.28 700.863 1248.28C703.277 1248.28 705.295 1247.64 706.916 1246.36C708.537 1245.06 709.762 1243.3 710.591 1241.09C711.438 1238.87 711.861 1236.38 711.861 1233.6C711.861 1230.86 711.447 1228.41 710.618 1226.23C709.807 1224.05 708.582 1222.33 706.943 1221.06C705.322 1219.8 703.295 1219.17 700.863 1219.17C698.521 1219.17 696.539 1219.78 694.918 1220.98C693.314 1222.19 692.098 1223.87 691.27 1226.04C690.441 1228.2 690.027 1230.72 690.027 1233.6ZM746.579 1255.19C742.688 1255.19 739.292 1254.3 736.391 1252.52C733.491 1250.74 731.239 1248.24 729.636 1245.03C728.032 1241.83 727.231 1238.08 727.231 1233.79C727.231 1229.49 728.032 1225.72 729.636 1222.5C731.239 1219.27 733.491 1216.77 736.391 1214.98C739.292 1213.2 742.688 1212.31 746.579 1212.31C750.47 1212.31 753.866 1213.2 756.767 1214.98C759.667 1216.77 761.919 1219.27 763.523 1222.5C765.126 1225.72 765.928 1229.49 765.928 1233.79C765.928 1238.08 765.126 1241.83 763.523 1245.03C761.919 1248.24 759.667 1250.74 756.767 1252.52C753.866 1254.3 750.47 1255.19 746.579 1255.19ZM746.606 1248.41C749.128 1248.41 751.218 1247.74 752.875 1246.41C754.533 1245.08 755.758 1243.3 756.551 1241.09C757.361 1238.87 757.767 1236.43 757.767 1233.76C757.767 1231.12 757.361 1228.68 756.551 1226.47C755.758 1224.23 754.533 1222.44 752.875 1221.09C751.218 1219.74 749.128 1219.06 746.606 1219.06C744.066 1219.06 741.958 1219.74 740.283 1221.09C738.625 1222.44 737.391 1224.23 736.581 1226.47C735.788 1228.68 735.392 1231.12 735.392 1233.76C735.392 1236.43 735.788 1238.87 736.581 1241.09C737.391 1243.3 738.625 1245.08 740.283 1246.41C741.958 1247.74 744.066 1248.41 746.606 1248.41ZM801.24 1237.14V1212.85H809.347V1254.36H801.402V1247.17H800.97C800.015 1249.38 798.484 1251.23 796.376 1252.71C794.286 1254.17 791.683 1254.9 788.566 1254.9C785.9 1254.9 783.54 1254.31 781.486 1253.14C779.45 1251.95 777.847 1250.19 776.676 1247.87C775.523 1245.55 774.947 1242.67 774.947 1239.25V1212.85H783.026V1238.28C783.026 1241.11 783.81 1243.36 785.377 1245.03C786.945 1246.71 788.98 1247.55 791.485 1247.55C792.998 1247.55 794.502 1247.17 795.997 1246.41C797.511 1245.66 798.763 1244.51 799.754 1242.98C800.763 1241.45 801.258 1239.5 801.24 1237.14ZM820.203 1254.36V1212.85H828.013V1219.44H828.445C829.202 1217.21 830.535 1215.45 832.445 1214.17C834.372 1212.88 836.552 1212.23 838.984 1212.23C839.489 1212.23 840.083 1212.25 840.768 1212.28C841.47 1212.32 842.02 1212.36 842.416 1212.42V1220.15C842.092 1220.06 841.516 1219.96 840.687 1219.85C839.858 1219.72 839.029 1219.66 838.201 1219.66C836.291 1219.66 834.589 1220.06 833.093 1220.87C831.616 1221.67 830.445 1222.78 829.58 1224.2C828.716 1225.6 828.283 1227.21 828.283 1229.01V1254.36H820.203ZM857.488 1229.71V1254.36H849.408V1199.01H857.38V1219.6H857.894C858.867 1217.37 860.353 1215.6 862.353 1214.28C864.352 1212.97 866.964 1212.31 870.189 1212.31C873.036 1212.31 875.522 1212.89 877.648 1214.07C879.791 1215.24 881.449 1216.98 882.62 1219.31C883.809 1221.61 884.403 1224.5 884.403 1227.95V1254.36H876.323V1228.93C876.323 1225.88 875.54 1223.52 873.972 1221.85C872.405 1220.15 870.225 1219.31 867.433 1219.31C865.523 1219.31 863.812 1219.71 862.298 1220.52C860.803 1221.33 859.623 1222.52 858.758 1224.09C857.912 1225.64 857.488 1227.51 857.488 1229.71ZM912.669 1255.19C908.778 1255.19 905.382 1254.3 902.482 1252.52C899.581 1250.74 897.329 1248.24 895.726 1245.03C894.123 1241.83 893.321 1238.08 893.321 1233.79C893.321 1229.49 894.123 1225.72 895.726 1222.5C897.329 1219.27 899.581 1216.77 902.482 1214.98C905.382 1213.2 908.778 1212.31 912.669 1212.31C916.561 1212.31 919.957 1213.2 922.857 1214.98C925.758 1216.77 928.01 1219.27 929.613 1222.5C931.216 1225.72 932.018 1229.49 932.018 1233.79C932.018 1238.08 931.216 1241.83 929.613 1245.03C928.01 1248.24 925.758 1250.74 922.857 1252.52C919.957 1254.3 916.561 1255.19 912.669 1255.19ZM912.696 1248.41C915.219 1248.41 917.308 1247.74 918.966 1246.41C920.623 1245.08 921.848 1243.3 922.641 1241.09C923.452 1238.87 923.857 1236.43 923.857 1233.76C923.857 1231.12 923.452 1228.68 922.641 1226.47C921.848 1224.23 920.623 1222.44 918.966 1221.09C917.308 1219.74 915.219 1219.06 912.696 1219.06C910.156 1219.06 908.049 1219.74 906.373 1221.09C904.716 1222.44 903.482 1224.23 902.671 1226.47C901.878 1228.68 901.482 1231.12 901.482 1233.76C901.482 1236.43 901.878 1238.87 902.671 1241.09C903.482 1243.3 904.716 1245.08 906.373 1246.41C908.049 1247.74 910.156 1248.41 912.696 1248.41ZM958.521 1255.19C954.629 1255.19 951.234 1254.3 948.333 1252.52C945.433 1250.74 943.181 1248.24 941.577 1245.03C939.974 1241.83 939.172 1238.08 939.172 1233.79C939.172 1229.49 939.974 1225.72 941.577 1222.5C943.181 1219.27 945.433 1216.77 948.333 1214.98C951.234 1213.2 954.629 1212.31 958.521 1212.31C962.412 1212.31 965.808 1213.2 968.708 1214.98C971.609 1216.77 973.861 1219.27 975.464 1222.5C977.068 1225.72 977.869 1229.49 977.869 1233.79C977.869 1238.08 977.068 1241.83 975.464 1245.03C973.861 1248.24 971.609 1250.74 968.708 1252.52C965.808 1254.3 962.412 1255.19 958.521 1255.19ZM958.548 1248.41C961.07 1248.41 963.16 1247.74 964.817 1246.41C966.475 1245.08 967.7 1243.3 968.492 1241.09C969.303 1238.87 969.708 1236.43 969.708 1233.76C969.708 1231.12 969.303 1228.68 968.492 1226.47C967.7 1224.23 966.475 1222.44 964.817 1221.09C963.16 1219.74 961.07 1219.06 958.548 1219.06C956.008 1219.06 953.9 1219.74 952.224 1221.09C950.567 1222.44 949.333 1224.23 948.522 1226.47C947.73 1228.68 947.333 1231.12 947.333 1233.76C947.333 1236.43 947.73 1238.87 948.522 1241.09C949.333 1243.3 950.567 1245.08 952.224 1246.41C953.9 1247.74 956.008 1248.41 958.548 1248.41ZM1002.43 1255.17C999.076 1255.17 996.085 1254.31 993.455 1252.6C990.843 1250.87 988.789 1248.41 987.294 1245.22C985.816 1242.02 985.078 1238.17 985.078 1233.68C985.078 1229.2 985.825 1225.36 987.321 1222.17C988.834 1218.98 990.906 1216.54 993.536 1214.85C996.166 1213.16 999.148 1212.31 1002.48 1212.31C1005.06 1212.31 1007.13 1212.74 1008.7 1213.61C1010.28 1214.45 1011.51 1215.44 1012.37 1216.58C1013.25 1217.71 1013.94 1218.71 1014.42 1219.58H1014.91V1199.01H1022.99V1254.36H1015.1V1247.9H1014.42C1013.94 1248.78 1013.24 1249.79 1012.32 1250.92C1011.42 1252.06 1010.17 1253.05 1008.59 1253.9C1007 1254.74 1004.95 1255.17 1002.43 1255.17ZM1004.21 1248.28C1006.53 1248.28 1008.5 1247.66 1010.1 1246.44C1011.72 1245.2 1012.95 1243.48 1013.78 1241.28C1014.62 1239.08 1015.05 1236.52 1015.05 1233.6C1015.05 1230.72 1014.63 1228.2 1013.8 1226.04C1012.97 1223.87 1011.76 1222.19 1010.16 1220.98C1008.55 1219.78 1006.57 1219.17 1004.21 1219.17C1001.78 1219.17 999.751 1219.8 998.13 1221.06C996.508 1222.33 995.283 1224.05 994.455 1226.23C993.644 1228.41 993.239 1230.86 993.239 1233.6C993.239 1236.38 993.653 1238.87 994.482 1241.09C995.31 1243.3 996.535 1245.06 998.157 1246.36C999.796 1247.64 1001.81 1248.28 1004.21 1248.28ZM1074.04 1212.85V1219.33H1051.37V1212.85H1074.04ZM1057.45 1202.9H1065.53V1242.17C1065.53 1243.74 1065.76 1244.92 1066.23 1245.71C1066.7 1246.48 1067.3 1247.02 1068.04 1247.3C1068.8 1247.57 1069.61 1247.71 1070.5 1247.71C1071.15 1247.71 1071.71 1247.66 1072.2 1247.57C1072.69 1247.48 1073.06 1247.41 1073.33 1247.36L1074.79 1254.03C1074.33 1254.21 1073.66 1254.39 1072.79 1254.57C1071.93 1254.77 1070.85 1254.88 1069.55 1254.9C1067.43 1254.93 1065.44 1254.55 1063.61 1253.76C1061.77 1252.97 1060.28 1251.74 1059.15 1250.09C1058.01 1248.43 1057.45 1246.35 1057.45 1243.84V1202.9ZM1100.01 1255.19C1096.12 1255.19 1092.73 1254.3 1089.83 1252.52C1086.93 1250.74 1084.67 1248.24 1083.07 1245.03C1081.47 1241.83 1080.66 1238.08 1080.66 1233.79C1080.66 1229.49 1081.47 1225.72 1083.07 1222.5C1084.67 1219.27 1086.93 1216.77 1089.83 1214.98C1092.73 1213.2 1096.12 1212.31 1100.01 1212.31C1103.9 1212.31 1107.3 1213.2 1110.2 1214.98C1113.1 1216.77 1115.35 1219.27 1116.96 1222.5C1118.56 1225.72 1119.36 1229.49 1119.36 1233.79C1119.36 1238.08 1118.56 1241.83 1116.96 1245.03C1115.35 1248.24 1113.1 1250.74 1110.2 1252.52C1107.3 1254.3 1103.9 1255.19 1100.01 1255.19ZM1100.04 1248.41C1102.56 1248.41 1104.65 1247.74 1106.31 1246.41C1107.97 1245.08 1109.19 1243.3 1109.98 1241.09C1110.8 1238.87 1111.2 1236.43 1111.2 1233.76C1111.2 1231.12 1110.8 1228.68 1109.98 1226.47C1109.19 1224.23 1107.97 1222.44 1106.31 1221.09C1104.65 1219.74 1102.56 1219.06 1100.04 1219.06C1097.5 1219.06 1095.39 1219.74 1093.72 1221.09C1092.06 1222.44 1090.83 1224.23 1090.01 1226.47C1089.22 1228.68 1088.83 1231.12 1088.83 1233.76C1088.83 1236.43 1089.22 1238.87 1090.01 1241.09C1090.83 1243.3 1092.06 1245.08 1093.72 1246.41C1095.39 1247.74 1097.5 1248.41 1100.04 1248.41ZM1143.92 1255.17C1140.57 1255.17 1137.58 1254.31 1134.95 1252.6C1132.34 1250.87 1130.28 1248.41 1128.79 1245.22C1127.31 1242.02 1126.57 1238.17 1126.57 1233.68C1126.57 1229.2 1127.32 1225.36 1128.81 1222.17C1130.33 1218.98 1132.4 1216.54 1135.03 1214.85C1137.66 1213.16 1140.64 1212.31 1143.97 1212.31C1146.55 1212.31 1148.62 1212.74 1150.19 1213.61C1151.77 1214.45 1153 1215.44 1153.86 1216.58C1154.75 1217.71 1155.43 1218.71 1155.92 1219.58H1156.4V1199.01H1164.48V1254.36H1156.59V1247.9H1155.92C1155.43 1248.78 1154.73 1249.79 1153.81 1250.92C1152.91 1252.06 1151.67 1253.05 1150.08 1253.9C1148.5 1254.74 1146.44 1255.17 1143.92 1255.17ZM1145.7 1248.28C1148.03 1248.28 1149.99 1247.66 1151.59 1246.44C1153.22 1245.2 1154.44 1243.48 1155.27 1241.28C1156.12 1239.08 1156.54 1236.52 1156.54 1233.6C1156.54 1230.72 1156.12 1228.2 1155.3 1226.04C1154.47 1223.87 1153.25 1222.19 1151.65 1220.98C1150.04 1219.78 1148.06 1219.17 1145.7 1219.17C1143.27 1219.17 1141.24 1219.8 1139.62 1221.06C1138 1222.33 1136.78 1224.05 1135.95 1226.23C1135.14 1228.41 1134.73 1230.86 1134.73 1233.6C1134.73 1236.38 1135.15 1238.87 1135.97 1241.09C1136.8 1243.3 1138.03 1245.06 1139.65 1246.36C1141.29 1247.64 1143.31 1248.28 1145.7 1248.28ZM1188.1 1255.28C1185.46 1255.28 1183.09 1254.79 1180.96 1253.82C1178.84 1252.83 1177.15 1251.39 1175.91 1249.52C1174.68 1247.65 1174.07 1245.35 1174.07 1242.63C1174.07 1240.29 1174.52 1238.36 1175.42 1236.85C1176.32 1235.33 1177.54 1234.13 1179.07 1233.25C1180.6 1232.37 1182.31 1231.7 1184.2 1231.25C1186.1 1230.8 1188.02 1230.46 1189.99 1230.22C1192.47 1229.94 1194.49 1229.7 1196.04 1229.52C1197.59 1229.32 1198.72 1229.01 1199.42 1228.58C1200.12 1228.14 1200.47 1227.44 1200.47 1226.47V1226.28C1200.47 1223.92 1199.81 1222.09 1198.47 1220.79C1197.16 1219.5 1195.19 1218.85 1192.58 1218.85C1189.86 1218.85 1187.72 1219.45 1186.15 1220.66C1184.6 1221.85 1183.53 1223.17 1182.93 1224.63L1175.34 1222.9C1176.24 1220.38 1177.56 1218.34 1179.29 1216.79C1181.03 1215.23 1183.04 1214.09 1185.31 1213.39C1187.58 1212.67 1189.97 1212.31 1192.47 1212.31C1194.13 1212.31 1195.89 1212.51 1197.74 1212.9C1199.62 1213.28 1201.36 1213.98 1202.98 1215.01C1204.62 1216.04 1205.97 1217.51 1207.01 1219.42C1208.06 1221.31 1208.58 1223.77 1208.58 1226.79V1254.36H1200.69V1248.68H1200.36C1199.84 1249.73 1199.06 1250.75 1198.01 1251.76C1196.97 1252.77 1195.63 1253.61 1193.99 1254.28C1192.35 1254.94 1190.38 1255.28 1188.1 1255.28ZM1189.85 1248.79C1192.09 1248.79 1194 1248.35 1195.58 1247.47C1197.18 1246.58 1198.4 1245.43 1199.23 1244.01C1200.08 1242.57 1200.5 1241.03 1200.5 1239.39V1234.04C1200.21 1234.32 1199.65 1234.59 1198.82 1234.85C1198.01 1235.08 1197.08 1235.29 1196.04 1235.47C1194.99 1235.63 1193.98 1235.78 1192.99 1235.93C1192 1236.05 1191.17 1236.16 1190.5 1236.25C1188.93 1236.45 1187.5 1236.78 1186.2 1237.25C1184.92 1237.72 1183.9 1238.39 1183.12 1239.28C1182.37 1240.14 1181.99 1241.3 1181.99 1242.74C1181.99 1244.74 1182.73 1246.25 1184.2 1247.28C1185.68 1248.29 1187.56 1248.79 1189.85 1248.79ZM1222.96 1269.92C1221.75 1269.92 1220.66 1269.82 1219.66 1269.62C1218.67 1269.44 1217.94 1269.25 1217.45 1269.03L1219.39 1262.41C1220.87 1262.81 1222.19 1262.98 1223.34 1262.92C1224.49 1262.87 1225.51 1262.44 1226.39 1261.63C1227.29 1260.81 1228.09 1259.49 1228.77 1257.65L1229.77 1254.9L1214.58 1212.85H1223.23L1233.74 1245.06H1234.18L1244.69 1212.85H1253.36L1236.26 1259.9C1235.46 1262.06 1234.46 1263.89 1233.23 1265.38C1232.01 1266.9 1230.55 1268.03 1228.85 1268.79C1227.16 1269.54 1225.2 1269.92 1222.96 1269.92ZM1271.14 1199.01L1270.44 1238.44H1262.96L1262.25 1199.01H1271.14ZM1266.71 1254.87C1265.22 1254.87 1263.94 1254.35 1262.87 1253.3C1261.81 1252.24 1261.29 1250.96 1261.31 1249.47C1261.29 1247.99 1261.81 1246.73 1262.87 1245.68C1263.94 1244.62 1265.22 1244.09 1266.71 1244.09C1268.17 1244.09 1269.43 1244.62 1270.5 1245.68C1271.56 1246.73 1272.1 1247.99 1272.12 1249.47C1272.1 1250.46 1271.84 1251.37 1271.33 1252.19C1270.85 1253.01 1270.2 1253.65 1269.39 1254.14C1268.58 1254.63 1267.68 1254.87 1266.71 1254.87Z" fill="black" fill-opacity="0.87"/>
</g>
<defs>
<linearGradient id="paint0_linear_538_2078" x1="972.467" y1="703.291" x2="301.198" y2="72.8354" gradientUnits="userSpaceOnUse">
<stop stop-color="#B8E0D0"/>
<stop offset="0.0001" stop-color="#B8E0D0"/>
<stop offset="1" stop-color="#DBF0E8"/>
</linearGradient>
<clipPath id="clip0_538_2078">
<rect width="1278" height="1333" fill="white"/>
</clipPath>
</defs>
</svg>
