<svg width="470" height="1014" viewBox="0 0 470 1014" fill="none" xmlns="http://www.w3.org/2000/svg">
<g clip-path="url(#clip0_201_24)">
<rect width="470" height="1014" rx="50" fill="#2D2D2D"/>
<g filter="url(#filter0_ii_201_24)">
<rect x="7" y="13" width="456" height="988" rx="50" fill="#2D2D2D"/>
</g>
<rect x="7.25" y="13.25" width="455.5" height="987.5" rx="49.75" stroke="url(#paint0_linear_201_24)" stroke-width="0.5"/>
<rect x="96" width="7" height="13" fill="#131313"/>
<rect x="366" width="7" height="13" fill="#131313"/>
<rect x="96" y="1001" width="7" height="13" fill="#131313"/>
<rect x="366" y="1001" width="7" height="13" fill="#131313"/>
<rect x="226.632" y="25" width="3.63158" height="3.63158" rx="1.81579" fill="#131313"/>
<rect x="233.263" y="25" width="3.63158" height="3.63158" rx="1.81579" fill="#131313"/>
<rect x="239.895" y="25" width="3.63158" height="3.63158" rx="1.81579" fill="#131313"/>
<rect x="246.526" y="25" width="3.63158" height="3.63158" rx="1.81579" fill="#131313"/>
<rect x="220" y="25" width="3.63158" height="3.63158" rx="1.81579" fill="#131313"/>
<path d="M69.56 505.664C69.56 518.464 79.864 528.64 92.664 528.64C98.36 528.64 103.864 526.656 108.216 522.432C108.664 521.984 108.792 521.152 108.28 520.704L104.312 516.608C103.928 516.224 103.224 516.16 102.712 516.608C100.024 518.784 96.76 520.256 92.92 520.256C84.728 520.256 78.584 513.472 78.584 505.472C78.584 497.408 84.664 490.56 92.856 490.56C96.44 490.56 100.024 491.968 102.712 494.336C103.224 494.848 103.864 494.848 104.312 494.336L108.216 490.304C108.728 489.792 108.728 489.024 108.152 488.512C103.8 484.608 99.128 482.56 92.664 482.56C79.864 482.56 69.56 492.864 69.56 505.664Z" fill="white"/>
<path d="M113.902 526.784C113.902 527.424 114.478 528 115.118 528H120.494C121.134 528 121.71 527.424 121.71 526.784V484.416C121.71 483.776 121.134 483.2 120.494 483.2H115.118C114.478 483.2 113.902 483.776 113.902 484.416V526.784Z" fill="white"/>
<path d="M127.546 519.872C127.546 525.312 131.067 528.64 136.187 528.64C140.155 528.64 142.522 526.72 143.994 525.376L144.762 527.104C145.082 527.808 145.402 528 145.85 528H148.154C148.794 528 149.37 527.424 149.37 526.784V512.896C149.37 505.92 147.514 501.76 139.514 501.76C135.418 501.76 131.322 502.784 130.81 502.976C130.234 503.168 129.722 503.616 129.914 504.576L130.49 507.904C130.618 508.736 131.066 509.312 131.962 509.056C133.434 508.608 136.763 508.096 139.131 508.096C141.499 508.096 142.522 509.248 142.458 512.512C142.458 512.512 140.346 511.808 137.786 511.808C131.258 511.808 127.546 515.328 127.546 519.872ZM134.586 519.872C134.586 517.824 136.25 516.416 138.746 516.416C140.602 516.416 142.33 517.184 142.33 517.184V520.704C141.946 521.472 139.962 523.2 137.914 523.2C135.93 523.2 134.586 521.792 134.586 519.872Z" fill="white"/>
<path d="M163.819 526.208L154.731 545.472C154.283 546.368 154.859 547.2 155.819 547.2H161.323C161.835 547.2 162.219 546.816 162.411 546.432L181.995 504.064C182.443 503.232 181.931 502.4 180.907 502.4H175.787C175.019 502.4 174.571 502.464 174.251 503.104L167.851 517.568H167.787L161.323 503.104C161.131 502.72 160.811 502.4 160.235 502.4H154.475C153.515 502.4 153.003 503.232 153.387 504.064L163.819 526.208Z" fill="white"/>
<path d="M199.505 526.528C199.377 527.424 199.889 528 200.721 528H206.481C207.057 528 207.569 527.488 207.633 527.04L211.345 502.784C211.409 502.784 211.537 502.784 211.537 502.784L222.865 527.936C223.057 528.32 223.377 528.64 223.953 528.64H225.105C225.681 528.64 226.065 528.32 226.193 527.936L237.393 502.784C237.393 502.784 237.521 502.784 237.585 502.784L241.361 527.04C241.489 527.488 242.001 528 242.577 528H248.401C249.233 528 249.745 527.424 249.553 526.528L242.001 483.52C241.937 483.008 241.553 482.56 240.849 482.56H239.825C239.249 482.56 238.929 482.816 238.737 483.2L224.657 513.408C224.593 513.408 224.593 513.408 224.465 513.408L210.385 483.2C210.193 482.816 209.809 482.56 209.297 482.56H208.273C207.569 482.56 207.185 483.008 207.121 483.52L199.505 526.528Z" fill="white"/>
<path d="M253.544 515.136C253.544 522.496 259.431 528.64 266.663 528.64C273.895 528.64 279.783 522.496 279.783 515.136C279.783 507.904 273.895 501.76 266.663 501.76C259.431 501.76 253.544 507.904 253.544 515.136ZM260.52 515.136C260.52 511.552 263.207 508.672 266.663 508.672C270.055 508.672 272.807 511.552 272.807 515.136C272.807 518.784 270.055 521.728 266.663 521.728C263.207 521.728 260.52 518.784 260.52 515.136Z" fill="white"/>
<path d="M283.481 515.2C283.481 522.88 289.817 528.64 297.049 528.64C301.593 528.64 304.985 526.656 307.161 523.264C307.609 522.624 307.353 521.984 306.713 521.472L303.961 519.104C303.449 518.72 302.809 518.848 302.361 519.296C301.209 520.384 299.993 521.728 297.241 521.728C293.785 521.728 291.033 518.848 291.033 515.2C291.033 511.616 293.849 508.672 297.305 508.672C299.097 508.672 300.697 509.568 301.721 510.72C302.169 511.104 302.745 511.424 303.321 510.912L306.265 508.096C306.905 507.648 307.033 506.88 306.585 506.304C304.153 503.36 301.081 501.76 297.113 501.76C289.945 501.76 283.481 507.648 283.481 515.2Z" fill="white"/>
<path d="M312.715 526.784C312.715 527.424 313.291 528 313.931 528H319.371C320.011 528 320.587 527.424 320.587 526.784V515.968L330.699 527.488C330.891 527.744 331.403 528 331.787 528H338.699C339.787 528 340.171 526.912 339.531 526.208L328.139 513.984L337.675 504.256C338.315 503.552 337.931 502.4 336.843 502.4H331.019C330.315 502.4 329.867 502.784 329.419 503.168L320.587 512.128V484.416C320.587 483.776 320.011 483.2 319.371 483.2H313.931C313.291 483.2 312.715 483.776 312.715 484.416V526.784Z" fill="white"/>
<path d="M343.204 516.032C343.204 522.56 346.085 528.64 354.021 528.64C359.077 528.64 361.444 525.952 362.596 524.928L363.365 527.04C363.557 527.552 363.941 528 364.581 528H366.948C367.588 528 368.164 527.424 368.164 526.784V503.616C368.164 502.912 367.588 502.4 366.948 502.4H362.085C361.061 502.4 360.676 502.656 360.676 503.616V516.928C360.292 519.232 358.244 521.728 355.556 521.728C352.612 521.728 350.884 519.616 350.884 516.224V503.616C350.884 502.912 350.308 502.4 349.668 502.4H344.421C343.781 502.4 343.204 502.912 343.204 503.616V516.032Z" fill="white"/>
<path d="M383.712 527.232C384.608 527.744 386.912 528.64 389.408 528.64C396.32 528.64 402.08 522.752 402.08 515.2C402.08 507.84 396.768 501.76 389.728 501.76C385.568 501.76 382.432 504 381.472 505.28L380.64 503.168C380.448 502.656 380 502.4 379.552 502.4H377.056C376.416 502.4 375.84 502.912 375.84 503.616V545.984C375.84 546.624 376.416 547.2 377.056 547.2H382.176C383.328 547.2 383.712 546.752 383.712 545.984V527.232ZM383.392 520.256V512.576C383.776 511.232 385.376 508.672 388.64 508.672C392.16 508.672 394.592 511.616 394.592 515.2C394.592 518.784 391.968 521.728 388.384 521.728C385.184 521.728 383.392 520.256 383.392 520.256Z" fill="white"/>
<rect width="421" height="935.555" transform="translate(24 39)" fill="white"/>
<rect x="-1.88672" y="1.88672" width="103.188" height="102.674" rx="10.6914" transform="matrix(-1 0 0 1 149.188 162)" stroke="black" stroke-width="3.77344"/>
<path d="M87.4624 215.756C87.4624 222.054 92.5951 227.175 98.9458 227.175C105.296 227.175 110.429 222.054 110.429 215.756C110.429 209.458 105.296 204.337 98.9458 204.337C92.5951 204.337 87.4624 209.458 87.4624 215.756Z" fill="black" stroke="black" stroke-width="3.77344"/>
<rect x="-1.88672" y="1.88672" width="103.188" height="102.674" rx="10.6914" transform="matrix(-1 0 0 1 284.379 162)" stroke="black" stroke-width="3.77344"/>
<path d="M249.394 188.08C249.394 194.378 254.527 199.499 260.877 199.499C267.228 199.499 272.361 194.378 272.361 188.08C272.361 181.782 267.228 176.661 260.877 176.661C254.527 176.661 249.394 181.782 249.394 188.08Z" fill="black" stroke="black" stroke-width="3.77344"/>
<path d="M195.913 241.304C195.913 247.602 201.046 252.723 207.397 252.723C213.747 252.723 218.88 247.602 218.88 241.304C218.88 235.006 213.747 229.884 207.397 229.884C201.046 229.884 195.913 235.006 195.913 241.304Z" fill="black" stroke="black" stroke-width="3.77344"/>
<rect x="-1.88672" y="1.88672" width="103.188" height="102.674" rx="10.6914" transform="matrix(-1 0 0 1 419.57 162)" stroke="black" stroke-width="3.77344"/>
<path d="M384.586 188.08C384.586 194.378 389.718 199.499 396.069 199.499C402.42 199.499 407.552 194.378 407.552 188.08C407.552 181.782 402.42 176.661 396.069 176.661C389.718 176.661 384.586 181.782 384.586 188.08Z" fill="black" stroke="black" stroke-width="3.77344"/>
<path d="M357.845 214.692C357.845 220.99 362.978 226.111 369.328 226.111C375.679 226.111 380.812 220.99 380.812 214.692C380.812 208.394 375.679 203.272 369.328 203.272C362.978 203.272 357.845 208.394 357.845 214.692Z" fill="black" stroke="black" stroke-width="3.77344"/>
<path d="M331.105 241.304C331.105 247.602 336.238 252.723 342.588 252.723C348.939 252.723 354.072 247.602 354.072 241.304C354.072 235.006 348.939 229.884 342.588 229.884C336.238 229.884 331.105 235.006 331.105 241.304Z" fill="black" stroke="black" stroke-width="3.77344"/>
<rect x="-1.88672" y="1.88672" width="103.188" height="102.674" rx="10.6914" transform="matrix(-1 0 0 1 149.188 319.74)" stroke="black" stroke-width="3.77344"/>
<path d="M114.203 345.82C114.203 352.118 119.335 357.239 125.686 357.239C132.037 357.239 137.169 352.118 137.169 345.82C137.169 339.521 132.037 334.4 125.686 334.4C119.335 334.4 114.203 339.521 114.203 345.82Z" fill="black" stroke="black" stroke-width="3.77344"/>
<path d="M114.203 396.914C114.203 403.213 119.335 408.334 125.686 408.334C132.037 408.334 137.169 403.213 137.169 396.914C137.169 390.616 132.037 385.495 125.686 385.495C119.335 385.495 114.203 390.616 114.203 396.914Z" fill="black" stroke="black" stroke-width="3.77344"/>
<path d="M60.7222 396.914C60.7222 403.213 65.8549 408.334 72.2056 408.334C78.5563 408.334 83.689 403.213 83.689 396.914C83.689 390.616 78.5563 385.495 72.2056 385.495C65.8549 385.495 60.7222 390.616 60.7222 396.914Z" fill="black" stroke="black" stroke-width="3.77344"/>
<path d="M60.7222 345.82C60.7222 352.118 65.8549 357.239 72.2056 357.239C78.5563 357.239 83.689 352.118 83.689 345.82C83.689 339.521 78.5563 334.4 72.2056 334.4C65.8549 334.4 60.7222 339.521 60.7222 345.82Z" fill="black" stroke="black" stroke-width="3.77344"/>
<rect x="-1.88672" y="1.88672" width="103.188" height="102.674" rx="10.6914" transform="matrix(-1 0 0 1 284.379 319.74)" stroke="black" stroke-width="3.77344"/>
<path d="M249.394 345.82C249.394 352.118 254.527 357.239 260.877 357.239C267.228 357.239 272.361 352.118 272.361 345.82C272.361 339.521 267.228 334.4 260.877 334.4C254.527 334.4 249.394 339.521 249.394 345.82Z" fill="black" stroke="black" stroke-width="3.77344"/>
<path d="M249.394 396.914C249.394 403.213 254.527 408.334 260.877 408.334C267.228 408.334 272.361 403.213 272.361 396.914C272.361 390.616 267.228 385.495 260.877 385.495C254.527 385.495 249.394 390.616 249.394 396.914Z" fill="black" stroke="black" stroke-width="3.77344"/>
<path d="M195.913 396.914C195.913 403.213 201.046 408.334 207.397 408.334C213.747 408.334 218.88 403.213 218.88 396.914C218.88 390.616 213.747 385.495 207.397 385.495C201.046 385.495 195.913 390.616 195.913 396.914Z" fill="black" stroke="black" stroke-width="3.77344"/>
<path d="M222.653 370.302C222.653 376.601 227.786 381.722 234.137 381.722C240.488 381.722 245.62 376.601 245.62 370.302C245.62 364.004 240.488 358.883 234.137 358.883C227.786 358.883 222.653 364.004 222.653 370.302Z" fill="black" stroke="black" stroke-width="3.77344"/>
<path d="M195.913 345.82C195.913 352.118 201.046 357.239 207.397 357.239C213.747 357.239 218.88 352.118 218.88 345.82C218.88 339.521 213.747 334.4 207.397 334.4C201.046 334.4 195.913 339.521 195.913 345.82Z" fill="black" stroke="black" stroke-width="3.77344"/>
<rect x="-1.88672" y="1.88672" width="103.188" height="102.674" rx="10.6914" transform="matrix(-1 0 0 1 419.57 319.74)" stroke="black" stroke-width="3.77344"/>
<path d="M331.105 405.43C331.105 411.141 335.759 415.785 341.519 415.785C347.279 415.785 351.932 411.141 351.932 405.43C351.932 399.72 347.279 395.076 341.519 395.076C335.759 395.076 331.105 399.72 331.105 405.43Z" fill="black" stroke="black" stroke-width="3.77344"/>
<path d="M331.105 340.497C331.105 346.207 335.759 350.852 341.519 350.852C347.279 350.852 351.932 346.207 351.932 340.497C351.932 334.787 347.279 330.142 341.519 330.142C335.759 330.142 331.105 334.787 331.105 340.497Z" fill="black" stroke="black" stroke-width="3.77344"/>
<path d="M331.105 372.431C331.105 378.142 335.759 382.786 341.519 382.786C347.279 382.786 351.932 378.142 351.932 372.431C351.932 366.721 347.279 362.077 341.519 362.077C335.759 362.077 331.105 366.721 331.105 372.431Z" fill="black" stroke="black" stroke-width="3.77344"/>
<path d="M386.725 405.43C386.725 411.141 391.379 415.785 397.139 415.785C402.899 415.785 407.552 411.141 407.552 405.43C407.552 399.72 402.899 395.076 397.139 395.076C391.379 395.076 386.725 399.72 386.725 405.43Z" fill="black" stroke="black" stroke-width="3.77344"/>
<path d="M386.725 340.497C386.725 346.207 391.379 350.852 397.139 350.852C402.899 350.852 407.552 346.207 407.552 340.497C407.552 334.787 402.899 330.142 397.139 330.142C391.379 330.142 386.725 334.787 386.725 340.497Z" fill="black" stroke="black" stroke-width="3.77344"/>
<path d="M386.725 372.431C386.725 378.142 391.379 382.786 397.139 382.786C402.899 382.786 407.552 378.142 407.552 372.431C407.552 366.721 402.899 362.077 397.139 362.077C391.379 362.077 386.725 366.721 386.725 372.431Z" fill="black" stroke="black" stroke-width="3.77344"/>
<path d="M61.2927 527.384V533.931C61.0716 534.258 60.7195 534.627 60.2364 535.036C59.7532 535.437 59.0858 535.79 58.2342 536.093C57.3907 536.387 56.3016 536.535 54.9668 536.535C53.8777 536.535 52.8746 536.346 51.9574 535.97C51.0484 535.585 50.2582 535.028 49.5867 534.299C48.9234 533.562 48.4075 532.67 48.039 531.621C47.6787 530.565 47.4986 529.369 47.4986 528.035V526.647C47.4986 525.312 47.6542 524.12 47.9653 523.072C48.2847 522.024 48.7515 521.136 49.3656 520.407C49.9798 519.67 50.7332 519.113 51.6258 518.736C52.5183 518.351 53.542 518.159 54.6966 518.159C56.0641 518.159 57.2065 518.396 58.1236 518.871C59.049 519.338 59.7696 519.985 60.2855 520.812C60.8096 521.639 61.1453 522.581 61.2927 523.637H58.9221C58.8156 522.99 58.6027 522.401 58.2833 521.868C57.9721 521.336 57.5259 520.91 56.9444 520.591C56.363 520.263 55.6137 520.1 54.6966 520.1C53.8695 520.1 53.153 520.251 52.547 520.554C51.941 520.857 51.4415 521.291 51.0484 521.856C50.6554 522.421 50.3606 523.105 50.164 523.907C49.9757 524.71 49.8815 525.615 49.8815 526.622V528.035C49.8815 529.066 50.0003 529.988 50.2377 530.798C50.4834 531.609 50.8314 532.301 51.2818 532.874C51.7322 533.439 52.2686 533.869 52.8909 534.164C53.5215 534.459 54.2175 534.606 54.9791 534.606C55.8226 534.606 56.5063 534.537 57.0304 534.397C57.5545 534.25 57.964 534.078 58.2588 533.882C58.5536 533.677 58.7787 533.484 58.9343 533.304V529.3H54.7949V527.384H61.2927ZM67.1519 525.087V536.289H64.8795V522.999H67.0905L67.1519 525.087ZM71.3036 522.925L71.2914 525.038C71.103 524.997 70.9229 524.972 70.7509 524.964C70.5871 524.947 70.3988 524.939 70.1859 524.939C69.6618 524.939 69.1991 525.021 68.7978 525.185C68.3966 525.349 68.0568 525.578 67.7783 525.873C67.4999 526.168 67.2788 526.52 67.115 526.929C66.9594 527.33 66.8571 527.773 66.8079 528.256L66.1692 528.624C66.1692 527.822 66.247 527.068 66.4026 526.364C66.5664 525.66 66.8161 525.038 67.1519 524.497C67.4876 523.948 67.9134 523.523 68.4293 523.22C68.9534 522.908 69.5758 522.753 70.2964 522.753C70.4602 522.753 70.6485 522.773 70.8614 522.814C71.0744 522.847 71.2218 522.884 71.3036 522.925ZM72.5565 529.791V529.509C72.5565 528.551 72.6958 527.662 72.9742 526.843C73.2526 526.016 73.6539 525.3 74.1779 524.694C74.702 524.079 75.3367 523.604 76.0819 523.269C76.827 522.925 77.6623 522.753 78.5877 522.753C79.5212 522.753 80.3605 522.925 81.1057 523.269C81.8591 523.604 82.4978 524.079 83.0219 524.694C83.5542 525.3 83.9596 526.016 84.238 526.843C84.5164 527.662 84.6556 528.551 84.6556 529.509V529.791C84.6556 530.749 84.5164 531.638 84.238 532.457C83.9596 533.276 83.5542 533.992 83.0219 534.606C82.4978 535.212 81.8632 535.687 81.118 536.031C80.381 536.367 79.5458 536.535 78.6122 536.535C77.6787 536.535 76.8393 536.367 76.0941 536.031C75.349 535.687 74.7102 535.212 74.1779 534.606C73.6539 533.992 73.2526 533.276 72.9742 532.457C72.6958 531.638 72.5565 530.749 72.5565 529.791ZM74.829 529.509V529.791C74.829 530.454 74.9068 531.081 75.0623 531.671C75.2179 532.252 75.4513 532.768 75.7625 533.218C76.0819 533.669 76.479 534.025 76.954 534.287C77.4289 534.541 77.9817 534.668 78.6122 534.668C79.2346 534.668 79.7791 534.541 80.2459 534.287C80.7209 534.025 81.1139 533.669 81.4251 533.218C81.7363 532.768 81.9697 532.252 82.1253 531.671C82.289 531.081 82.3709 530.454 82.3709 529.791V529.509C82.3709 528.854 82.289 528.235 82.1253 527.654C81.9697 527.064 81.7322 526.544 81.4128 526.094C81.1016 525.635 80.7086 525.275 80.2336 525.013C79.7669 524.751 79.2182 524.62 78.5877 524.62C77.9653 524.62 77.4166 524.751 76.9417 525.013C76.4749 525.275 76.0819 525.635 75.7625 526.094C75.4513 526.544 75.2179 527.064 75.0623 527.654C74.9068 528.235 74.829 528.854 74.829 529.509ZM95.6369 533.218V522.999H97.9216V536.289H95.7475L95.6369 533.218ZM96.0668 530.418L97.0126 530.393C97.0126 531.277 96.9185 532.096 96.7301 532.85C96.55 533.595 96.2552 534.242 95.8457 534.79C95.4363 535.339 94.8999 535.769 94.2366 536.08C93.5733 536.383 92.7667 536.535 91.8168 536.535C91.1699 536.535 90.5762 536.441 90.0357 536.252C89.5034 536.064 89.0449 535.773 88.66 535.38C88.2751 534.987 87.9762 534.475 87.7633 533.845C87.5586 533.214 87.4562 532.457 87.4562 531.572V522.999H89.7286V531.597C89.7286 532.195 89.7941 532.69 89.9252 533.083C90.0644 533.468 90.2486 533.775 90.4779 534.004C90.7154 534.225 90.9774 534.381 91.264 534.471C91.5588 534.561 91.8618 534.606 92.173 534.606C93.1393 534.606 93.905 534.422 94.47 534.053C95.035 533.677 95.4404 533.173 95.686 532.543C95.9399 531.904 96.0668 531.196 96.0668 530.418ZM103.658 525.553V541.399H101.373V522.999H103.461L103.658 525.553ZM112.612 529.533V529.791C112.612 530.757 112.498 531.654 112.269 532.481C112.039 533.3 111.703 534.013 111.261 534.619C110.827 535.225 110.291 535.695 109.652 536.031C109.013 536.367 108.281 536.535 107.453 536.535C106.61 536.535 105.865 536.396 105.218 536.117C104.571 535.839 104.022 535.433 103.572 534.901C103.122 534.369 102.761 533.73 102.491 532.985C102.229 532.24 102.049 531.4 101.951 530.467V529.091C102.049 528.108 102.233 527.228 102.503 526.45C102.774 525.672 103.13 525.009 103.572 524.46C104.022 523.903 104.567 523.482 105.206 523.195C105.844 522.9 106.581 522.753 107.417 522.753C108.252 522.753 108.993 522.917 109.64 523.244C110.287 523.564 110.831 524.022 111.274 524.62C111.716 525.218 112.047 525.934 112.269 526.769C112.498 527.597 112.612 528.518 112.612 529.533ZM110.328 529.791V529.533C110.328 528.87 110.258 528.248 110.119 527.666C109.98 527.077 109.763 526.561 109.468 526.118C109.181 525.668 108.813 525.316 108.362 525.062C107.912 524.8 107.376 524.669 106.753 524.669C106.18 524.669 105.681 524.767 105.255 524.964C104.837 525.16 104.481 525.427 104.186 525.762C103.891 526.09 103.65 526.466 103.461 526.892C103.281 527.31 103.146 527.744 103.056 528.194V531.376C103.22 531.949 103.449 532.489 103.744 532.997C104.039 533.497 104.432 533.902 104.923 534.213C105.414 534.516 106.033 534.668 106.778 534.668C107.392 534.668 107.92 534.541 108.362 534.287C108.813 534.025 109.181 533.669 109.468 533.218C109.763 532.768 109.98 532.252 110.119 531.671C110.258 531.081 110.328 530.454 110.328 529.791ZM127.07 534.668C127.61 534.668 128.11 534.557 128.568 534.336C129.027 534.115 129.404 533.812 129.699 533.427C129.993 533.034 130.161 532.588 130.202 532.088H132.364C132.323 532.874 132.057 533.607 131.566 534.287C131.082 534.958 130.448 535.503 129.662 535.921C128.876 536.33 128.012 536.535 127.07 536.535C126.071 536.535 125.199 536.359 124.454 536.007C123.717 535.654 123.102 535.171 122.611 534.557C122.128 533.943 121.764 533.239 121.518 532.444C121.28 531.642 121.162 530.794 121.162 529.902V529.386C121.162 528.493 121.28 527.65 121.518 526.855C121.764 526.053 122.128 525.345 122.611 524.73C123.102 524.116 123.717 523.633 124.454 523.281C125.199 522.929 126.071 522.753 127.07 522.753C128.11 522.753 129.019 522.966 129.797 523.392C130.575 523.809 131.185 524.382 131.627 525.111C132.077 525.832 132.323 526.651 132.364 527.568H130.202C130.161 527.019 130.006 526.524 129.735 526.082C129.473 525.639 129.113 525.287 128.654 525.025C128.204 524.755 127.676 524.62 127.07 524.62C126.374 524.62 125.788 524.759 125.313 525.038C124.847 525.308 124.474 525.676 124.196 526.143C123.925 526.602 123.729 527.113 123.606 527.678C123.491 528.235 123.434 528.804 123.434 529.386V529.902C123.434 530.483 123.491 531.056 123.606 531.621C123.721 532.186 123.913 532.698 124.183 533.157C124.462 533.615 124.834 533.984 125.301 534.262C125.776 534.533 126.366 534.668 127.07 534.668ZM134.317 529.791V529.509C134.317 528.551 134.456 527.662 134.735 526.843C135.013 526.016 135.414 525.3 135.938 524.694C136.463 524.079 137.097 523.604 137.842 523.269C138.588 522.925 139.423 522.753 140.348 522.753C141.282 522.753 142.121 522.925 142.866 523.269C143.62 523.604 144.258 524.079 144.782 524.694C145.315 525.3 145.72 526.016 145.999 526.843C146.277 527.662 146.416 528.551 146.416 529.509V529.791C146.416 530.749 146.277 531.638 145.999 532.457C145.72 533.276 145.315 533.992 144.782 534.606C144.258 535.212 143.624 535.687 142.879 536.031C142.142 536.367 141.306 536.535 140.373 536.535C139.439 536.535 138.6 536.367 137.855 536.031C137.11 535.687 136.471 535.212 135.938 534.606C135.414 533.992 135.013 533.276 134.735 532.457C134.456 531.638 134.317 530.749 134.317 529.791ZM136.59 529.509V529.791C136.59 530.454 136.667 531.081 136.823 531.671C136.978 532.252 137.212 532.768 137.523 533.218C137.842 533.669 138.24 534.025 138.715 534.287C139.189 534.541 139.742 534.668 140.373 534.668C140.995 534.668 141.54 534.541 142.006 534.287C142.481 534.025 142.874 533.669 143.186 533.218C143.497 532.768 143.73 532.252 143.886 531.671C144.05 531.081 144.131 530.454 144.131 529.791V529.509C144.131 528.854 144.05 528.235 143.886 527.654C143.73 527.064 143.493 526.544 143.173 526.094C142.862 525.635 142.469 525.275 141.994 525.013C141.527 524.751 140.979 524.62 140.348 524.62C139.726 524.62 139.177 524.751 138.702 525.013C138.235 525.275 137.842 525.635 137.523 526.094C137.212 526.544 136.978 527.064 136.823 527.654C136.667 528.235 136.59 528.854 136.59 529.509ZM151.735 517.422V536.289H149.45V517.422H151.735ZM154.781 529.791V529.509C154.781 528.551 154.92 527.662 155.199 526.843C155.477 526.016 155.878 525.3 156.403 524.694C156.927 524.079 157.561 523.604 158.306 523.269C159.052 522.925 159.887 522.753 160.812 522.753C161.746 522.753 162.585 522.925 163.33 523.269C164.084 523.604 164.722 524.079 165.246 524.694C165.779 525.3 166.184 526.016 166.463 526.843C166.741 527.662 166.88 528.551 166.88 529.509V529.791C166.88 530.749 166.741 531.638 166.463 532.457C166.184 533.276 165.779 533.992 165.246 534.606C164.722 535.212 164.088 535.687 163.343 536.031C162.606 536.367 161.77 536.535 160.837 536.535C159.903 536.535 159.064 536.367 158.319 536.031C157.574 535.687 156.935 535.212 156.403 534.606C155.878 533.992 155.477 533.276 155.199 532.457C154.92 531.638 154.781 530.749 154.781 529.791ZM157.054 529.509V529.791C157.054 530.454 157.131 531.081 157.287 531.671C157.442 532.252 157.676 532.768 157.987 533.218C158.306 533.669 158.704 534.025 159.179 534.287C159.653 534.541 160.206 534.668 160.837 534.668C161.459 534.668 162.004 534.541 162.47 534.287C162.945 534.025 163.338 533.669 163.65 533.218C163.961 532.768 164.194 532.252 164.35 531.671C164.514 531.081 164.595 530.454 164.595 529.791V529.509C164.595 528.854 164.514 528.235 164.35 527.654C164.194 527.064 163.957 526.544 163.637 526.094C163.326 525.635 162.933 525.275 162.458 525.013C161.991 524.751 161.443 524.62 160.812 524.62C160.19 524.62 159.641 524.751 159.166 525.013C158.699 525.275 158.306 525.635 157.987 526.094C157.676 526.544 157.442 527.064 157.287 527.654C157.131 528.235 157.054 528.854 157.054 529.509ZM172.002 525.087V536.289H169.73V522.999H171.941L172.002 525.087ZM176.154 522.925L176.142 525.038C175.953 524.997 175.773 524.972 175.601 524.964C175.438 524.947 175.249 524.939 175.036 524.939C174.512 524.939 174.05 525.021 173.648 525.185C173.247 525.349 172.907 525.578 172.629 525.873C172.35 526.168 172.129 526.52 171.965 526.929C171.81 527.33 171.708 527.773 171.658 528.256L171.02 528.624C171.02 527.822 171.097 527.068 171.253 526.364C171.417 525.66 171.667 525.038 172.002 524.497C172.338 523.948 172.764 523.523 173.28 523.22C173.804 522.908 174.426 522.753 175.147 522.753C175.311 522.753 175.499 522.773 175.712 522.814C175.925 522.847 176.072 522.884 176.154 522.925Z" fill="black"/>
<ellipse cx="231.441" cy="535.301" rx="29.0761" ry="28.3008" fill="#47B7E7"/>
<ellipse cx="394.268" cy="610.77" rx="29.0761" ry="28.3008" fill="#8D0202"/>
<ellipse cx="315.439" cy="610.77" rx="29.0761" ry="28.3008" fill="#B94DFB"/>
<ellipse cx="231.441" cy="610.77" rx="29.0761" ry="28.3008" fill="#FF6F3F"/>
<ellipse cx="394.268" cy="535.301" rx="29.0761" ry="28.3008" fill="#F7F100"/>
<ellipse cx="315.439" cy="535.301" rx="29.0761" ry="28.3008" fill="#00F791"/>
<path d="M251.515 529.415L229.018 551.311C227.352 552.932 224.649 552.932 222.982 551.311L211.369 540.006C209.702 538.385 209.702 535.754 211.369 534.132C213.036 532.509 215.738 532.509 217.404 534.131L226.001 542.499L245.479 523.54C247.145 521.918 249.848 521.919 251.514 523.54C253.18 525.162 253.18 527.792 251.515 529.415Z" fill="white"/>
<rect width="171.062" height="60.375" transform="translate(46 883)" fill="#47B7E7"/>
<path d="M111.286 900.694V918.578H108.952V900.694H111.286ZM117.035 900.694V902.634H103.216V900.694H117.035ZM121.616 899.711V918.578H119.344V899.711H121.616ZM121.076 911.429L120.13 911.392C120.138 910.483 120.273 909.644 120.535 908.874C120.797 908.096 121.166 907.421 121.641 906.847C122.116 906.274 122.681 905.832 123.336 905.521C123.999 905.202 124.732 905.042 125.535 905.042C126.19 905.042 126.779 905.132 127.303 905.312C127.828 905.484 128.274 905.762 128.642 906.147C129.019 906.532 129.306 907.032 129.502 907.646C129.699 908.252 129.797 908.993 129.797 909.869V918.578H127.512V909.845C127.512 909.149 127.41 908.592 127.205 908.174C127 907.748 126.702 907.441 126.308 907.253C125.915 907.056 125.432 906.958 124.859 906.958C124.294 906.958 123.778 907.077 123.311 907.314C122.853 907.552 122.456 907.879 122.12 908.297C121.792 908.715 121.534 909.194 121.346 909.734C121.166 910.266 121.076 910.831 121.076 911.429ZM135.472 907.376V918.578H133.199V905.288H135.41L135.472 907.376ZM139.624 905.214L139.611 907.327C139.423 907.286 139.243 907.261 139.071 907.253C138.907 907.236 138.719 907.228 138.506 907.228C137.982 907.228 137.519 907.31 137.118 907.474C136.717 907.638 136.377 907.867 136.098 908.162C135.82 908.457 135.599 908.809 135.435 909.218C135.279 909.619 135.177 910.062 135.128 910.545L134.489 910.913C134.489 910.111 134.567 909.357 134.723 908.653C134.886 907.949 135.136 907.327 135.472 906.786C135.808 906.237 136.233 905.812 136.749 905.509C137.273 905.197 137.896 905.042 138.616 905.042C138.78 905.042 138.969 905.062 139.181 905.103C139.394 905.136 139.542 905.173 139.624 905.214ZM140.877 912.08V911.798C140.877 910.84 141.016 909.951 141.294 909.132C141.573 908.305 141.974 907.589 142.498 906.983C143.022 906.368 143.657 905.893 144.402 905.558C145.147 905.214 145.982 905.042 146.908 905.042C147.841 905.042 148.681 905.214 149.426 905.558C150.179 905.893 150.818 906.368 151.342 906.983C151.874 907.589 152.28 908.305 152.558 909.132C152.836 909.951 152.976 910.84 152.976 911.798V912.08C152.976 913.038 152.836 913.927 152.558 914.746C152.28 915.565 151.874 916.281 151.342 916.895C150.818 917.501 150.183 917.976 149.438 918.32C148.701 918.656 147.866 918.824 146.932 918.824C145.999 918.824 145.159 918.656 144.414 918.32C143.669 917.976 143.03 917.501 142.498 916.895C141.974 916.281 141.573 915.565 141.294 914.746C141.016 913.927 140.877 913.038 140.877 912.08ZM143.149 911.798V912.08C143.149 912.743 143.227 913.37 143.382 913.96C143.538 914.541 143.771 915.057 144.082 915.507C144.402 915.958 144.799 916.314 145.274 916.576C145.749 916.83 146.302 916.957 146.932 916.957C147.555 916.957 148.099 916.83 148.566 916.576C149.041 916.314 149.434 915.958 149.745 915.507C150.056 915.057 150.29 914.541 150.445 913.96C150.609 913.37 150.691 912.743 150.691 912.08V911.798C150.691 911.143 150.609 910.524 150.445 909.943C150.29 909.353 150.052 908.833 149.733 908.383C149.422 907.924 149.029 907.564 148.554 907.302C148.087 907.04 147.538 906.909 146.908 906.909C146.285 906.909 145.737 907.04 145.262 907.302C144.795 907.564 144.402 907.924 144.082 908.383C143.771 908.833 143.538 909.353 143.382 909.943C143.227 910.524 143.149 911.143 143.149 911.798ZM159.191 916.22L162.606 905.288H164.104L163.809 907.462L160.333 918.578H158.872L159.191 916.22ZM156.894 905.288L159.805 916.342L160.014 918.578H158.479L154.622 905.288H156.894ZM167.372 916.257L170.148 905.288H172.408L168.551 918.578H167.028L167.372 916.257ZM164.436 905.288L167.777 916.035L168.158 918.578H166.708L163.134 907.437L162.839 905.288H164.436Z" fill="black"/>
<rect width="171.062" height="60.375" transform="translate(252 883)" fill="#47B7E7"/>
<path d="M272.42 912.891H274.778C274.655 914.021 274.332 915.032 273.808 915.925C273.284 916.817 272.543 917.526 271.585 918.05C270.626 918.566 269.431 918.824 267.998 918.824C266.95 918.824 265.996 918.627 265.136 918.234C264.284 917.841 263.551 917.284 262.937 916.564C262.323 915.835 261.848 914.963 261.512 913.947C261.185 912.924 261.021 911.785 261.021 910.532V908.751C261.021 907.499 261.185 906.364 261.512 905.349C261.848 904.325 262.327 903.449 262.949 902.72C263.58 901.991 264.337 901.431 265.222 901.037C266.106 900.644 267.101 900.448 268.207 900.448C269.558 900.448 270.7 900.702 271.634 901.209C272.567 901.717 273.292 902.421 273.808 903.322C274.332 904.215 274.655 905.251 274.778 906.43H272.42C272.305 905.595 272.092 904.878 271.781 904.28C271.47 903.674 271.028 903.208 270.454 902.88C269.881 902.552 269.132 902.389 268.207 902.389C267.412 902.389 266.712 902.54 266.106 902.843C265.508 903.146 265.005 903.576 264.595 904.133C264.194 904.69 263.891 905.357 263.686 906.135C263.482 906.913 263.379 907.777 263.379 908.727V910.532C263.379 911.409 263.469 912.232 263.65 913.001C263.838 913.771 264.12 914.447 264.497 915.028C264.874 915.61 265.353 916.068 265.934 916.404C266.516 916.731 267.203 916.895 267.998 916.895C269.005 916.895 269.808 916.736 270.405 916.416C271.003 916.097 271.454 915.638 271.756 915.04C272.068 914.443 272.289 913.726 272.42 912.891ZM277.063 912.08V911.798C277.063 910.84 277.202 909.951 277.481 909.132C277.759 908.305 278.16 907.589 278.684 906.983C279.208 906.368 279.843 905.893 280.588 905.558C281.333 905.214 282.169 905.042 283.094 905.042C284.028 905.042 284.867 905.214 285.612 905.558C286.365 905.893 287.004 906.368 287.528 906.983C288.061 907.589 288.466 908.305 288.744 909.132C289.023 909.951 289.162 910.84 289.162 911.798V912.08C289.162 913.038 289.023 913.927 288.744 914.746C288.466 915.565 288.061 916.281 287.528 916.895C287.004 917.501 286.37 917.976 285.624 918.32C284.887 918.656 284.052 918.824 283.119 918.824C282.185 918.824 281.346 918.656 280.6 918.32C279.855 917.976 279.217 917.501 278.684 916.895C278.16 916.281 277.759 915.565 277.481 914.746C277.202 913.927 277.063 913.038 277.063 912.08ZM279.335 911.798V912.08C279.335 912.743 279.413 913.37 279.569 913.96C279.724 914.541 279.958 915.057 280.269 915.507C280.588 915.958 280.985 916.314 281.46 916.576C281.935 916.83 282.488 916.957 283.119 916.957C283.741 916.957 284.285 916.83 284.752 916.576C285.227 916.314 285.62 915.958 285.931 915.507C286.243 915.057 286.476 914.541 286.632 913.96C286.795 913.37 286.877 912.743 286.877 912.08V911.798C286.877 911.143 286.795 910.524 286.632 909.943C286.476 909.353 286.239 908.833 285.919 908.383C285.608 907.924 285.215 907.564 284.74 907.302C284.273 907.04 283.725 906.909 283.094 906.909C282.472 906.909 281.923 907.04 281.448 907.302C280.981 907.564 280.588 907.924 280.269 908.383C279.958 908.833 279.724 909.353 279.569 909.943C279.413 910.524 279.335 911.143 279.335 911.798ZM294.481 899.711V918.578H292.196V899.711H294.481ZM300.598 899.711V918.578H298.313V899.711H300.598ZM309.761 918.824C308.836 918.824 307.996 918.668 307.243 918.357C306.498 918.038 305.855 917.591 305.315 917.018C304.782 916.445 304.373 915.765 304.086 914.979C303.8 914.193 303.656 913.333 303.656 912.4V911.884C303.656 910.803 303.816 909.841 304.135 908.997C304.455 908.145 304.889 907.425 305.437 906.835C305.986 906.246 306.608 905.799 307.304 905.496C308 905.193 308.721 905.042 309.466 905.042C310.416 905.042 311.235 905.206 311.923 905.533C312.619 905.861 313.188 906.319 313.63 906.909C314.073 907.49 314.4 908.178 314.613 908.973C314.826 909.759 314.932 910.618 314.932 911.552V912.572H305.007V910.717H312.66V910.545C312.627 909.955 312.504 909.382 312.291 908.825C312.087 908.268 311.759 907.81 311.309 907.449C310.858 907.089 310.244 906.909 309.466 906.909C308.95 906.909 308.475 907.019 308.041 907.241C307.607 907.453 307.235 907.773 306.924 908.199C306.612 908.624 306.371 909.144 306.199 909.759C306.027 910.373 305.941 911.081 305.941 911.884V912.4C305.941 913.03 306.027 913.624 306.199 914.181C306.379 914.729 306.637 915.212 306.973 915.63C307.317 916.048 307.73 916.375 308.213 916.613C308.705 916.85 309.262 916.969 309.884 916.969C310.686 916.969 311.366 916.805 311.923 916.478C312.48 916.15 312.967 915.712 313.385 915.163L314.76 916.257C314.474 916.691 314.109 917.104 313.667 917.497C313.225 917.89 312.68 918.21 312.034 918.455C311.395 918.701 310.637 918.824 309.761 918.824ZM322.904 916.957C323.445 916.957 323.944 916.846 324.403 916.625C324.861 916.404 325.238 916.101 325.533 915.716C325.828 915.323 325.996 914.877 326.037 914.377H328.198C328.157 915.163 327.891 915.896 327.4 916.576C326.917 917.247 326.282 917.792 325.496 918.21C324.71 918.619 323.846 918.824 322.904 918.824C321.905 918.824 321.033 918.648 320.288 918.296C319.551 917.943 318.937 917.46 318.445 916.846C317.962 916.232 317.598 915.528 317.352 914.733C317.115 913.931 316.996 913.083 316.996 912.191V911.675C316.996 910.782 317.115 909.939 317.352 909.144C317.598 908.342 317.962 907.634 318.445 907.019C318.937 906.405 319.551 905.922 320.288 905.57C321.033 905.218 321.905 905.042 322.904 905.042C323.944 905.042 324.853 905.255 325.631 905.681C326.409 906.098 327.019 906.671 327.461 907.4C327.912 908.121 328.157 908.94 328.198 909.857H326.037C325.996 909.308 325.84 908.813 325.57 908.371C325.308 907.928 324.947 907.576 324.489 907.314C324.038 907.044 323.51 906.909 322.904 906.909C322.208 906.909 321.623 907.048 321.148 907.327C320.681 907.597 320.308 907.965 320.03 908.432C319.76 908.891 319.563 909.402 319.44 909.967C319.326 910.524 319.268 911.093 319.268 911.675V912.191C319.268 912.772 319.326 913.345 319.44 913.91C319.555 914.475 319.747 914.987 320.018 915.446C320.296 915.904 320.669 916.273 321.135 916.551C321.61 916.822 322.2 916.957 322.904 916.957ZM336.318 905.288V907.032H329.132V905.288H336.318ZM331.564 902.057H333.836V915.286C333.836 915.737 333.906 916.076 334.045 916.306C334.184 916.535 334.365 916.686 334.586 916.76C334.807 916.834 335.044 916.871 335.298 916.871C335.486 916.871 335.683 916.854 335.888 916.822C336.101 916.781 336.26 916.748 336.367 916.723L336.379 918.578C336.199 918.635 335.961 918.689 335.667 918.738C335.38 918.795 335.032 918.824 334.623 918.824C334.066 918.824 333.554 918.713 333.087 918.492C332.62 918.271 332.248 917.902 331.969 917.387C331.699 916.862 331.564 916.158 331.564 915.274V902.057ZM347.495 907.842V923.688H345.211V905.288H347.299L347.495 907.842ZM356.45 911.822V912.08C356.45 913.046 356.335 913.943 356.106 914.77C355.877 915.589 355.541 916.302 355.099 916.908C354.665 917.514 354.128 917.984 353.49 918.32C352.851 918.656 352.118 918.824 351.291 918.824C350.448 918.824 349.702 918.685 349.055 918.406C348.409 918.128 347.86 917.722 347.409 917.19C346.959 916.658 346.599 916.019 346.329 915.274C346.067 914.529 345.886 913.689 345.788 912.756V911.38C345.886 910.397 346.071 909.517 346.341 908.739C346.611 907.961 346.967 907.298 347.409 906.749C347.86 906.192 348.404 905.771 349.043 905.484C349.682 905.189 350.419 905.042 351.254 905.042C352.089 905.042 352.831 905.206 353.477 905.533C354.124 905.853 354.669 906.311 355.111 906.909C355.553 907.507 355.885 908.223 356.106 909.058C356.335 909.886 356.45 910.807 356.45 911.822ZM354.165 912.08V911.822C354.165 911.159 354.096 910.537 353.956 909.955C353.817 909.366 353.6 908.85 353.305 908.407C353.019 907.957 352.65 907.605 352.2 907.351C351.75 907.089 351.213 906.958 350.591 906.958C350.018 906.958 349.518 907.056 349.092 907.253C348.675 907.449 348.318 907.716 348.024 908.051C347.729 908.379 347.487 908.756 347.299 909.181C347.119 909.599 346.984 910.033 346.894 910.483V913.665C347.057 914.238 347.287 914.778 347.581 915.286C347.876 915.786 348.269 916.191 348.761 916.502C349.252 916.805 349.87 916.957 350.615 916.957C351.23 916.957 351.758 916.83 352.2 916.576C352.65 916.314 353.019 915.958 353.305 915.507C353.6 915.057 353.817 914.541 353.956 913.96C354.096 913.37 354.165 912.743 354.165 912.08ZM358.747 912.08V911.798C358.747 910.84 358.886 909.951 359.165 909.132C359.443 908.305 359.844 907.589 360.368 906.983C360.892 906.368 361.527 905.893 362.272 905.558C363.017 905.214 363.853 905.042 364.778 905.042C365.712 905.042 366.551 905.214 367.296 905.558C368.05 905.893 368.688 906.368 369.212 906.983C369.745 907.589 370.15 908.305 370.428 909.132C370.707 909.951 370.846 910.84 370.846 911.798V912.08C370.846 913.038 370.707 913.927 370.428 914.746C370.15 915.565 369.745 916.281 369.212 916.895C368.688 917.501 368.054 917.976 367.308 918.32C366.571 918.656 365.736 918.824 364.803 918.824C363.869 918.824 363.03 918.656 362.285 918.32C361.539 917.976 360.901 917.501 360.368 916.895C359.844 916.281 359.443 915.565 359.165 914.746C358.886 913.927 358.747 913.038 358.747 912.08ZM361.019 911.798V912.08C361.019 912.743 361.097 913.37 361.253 913.96C361.408 914.541 361.642 915.057 361.953 915.507C362.272 915.958 362.669 916.314 363.144 916.576C363.619 916.83 364.172 916.957 364.803 916.957C365.425 916.957 365.97 916.83 366.436 916.576C366.911 916.314 367.304 915.958 367.616 915.507C367.927 915.057 368.16 914.541 368.316 913.96C368.479 913.37 368.561 912.743 368.561 912.08V911.798C368.561 911.143 368.479 910.524 368.316 909.943C368.16 909.353 367.923 908.833 367.603 908.383C367.292 907.924 366.899 907.564 366.424 907.302C365.957 907.04 365.409 906.909 364.778 906.909C364.156 906.909 363.607 907.04 363.132 907.302C362.665 907.564 362.272 907.924 361.953 908.383C361.642 908.833 361.408 909.353 361.253 909.943C361.097 910.524 361.019 911.143 361.019 911.798ZM376.165 905.288V918.578H373.88V905.288H376.165ZM373.708 901.762C373.708 901.394 373.819 901.083 374.04 900.829C374.269 900.575 374.605 900.448 375.047 900.448C375.481 900.448 375.813 900.575 376.042 900.829C376.279 901.083 376.398 901.394 376.398 901.762C376.398 902.114 376.279 902.417 376.042 902.671C375.813 902.917 375.481 903.04 375.047 903.04C374.605 903.04 374.269 902.917 374.04 902.671C373.819 902.417 373.708 902.114 373.708 901.762ZM382.085 908.125V918.578H379.813V905.288H381.962L382.085 908.125ZM381.545 911.429L380.599 911.392C380.607 910.483 380.742 909.644 381.004 908.874C381.266 908.096 381.635 907.421 382.11 906.847C382.585 906.274 383.15 905.832 383.805 905.521C384.468 905.202 385.201 905.042 386.004 905.042C386.659 905.042 387.248 905.132 387.772 905.312C388.297 905.484 388.743 905.762 389.111 906.147C389.488 906.532 389.775 907.032 389.971 907.646C390.168 908.252 390.266 908.993 390.266 909.869V918.578H387.981V909.845C387.981 909.149 387.879 908.592 387.674 908.174C387.469 907.748 387.171 907.441 386.778 907.253C386.384 907.056 385.901 906.958 385.328 906.958C384.763 906.958 384.247 907.077 383.78 907.314C383.322 907.552 382.925 907.879 382.589 908.297C382.261 908.715 382.003 909.194 381.815 909.734C381.635 910.266 381.545 910.831 381.545 911.429ZM399.282 905.288V907.032H392.096V905.288H399.282ZM394.528 902.057H396.801V915.286C396.801 915.737 396.87 916.076 397.01 916.306C397.149 916.535 397.329 916.686 397.55 916.76C397.771 916.834 398.009 916.871 398.262 916.871C398.451 916.871 398.647 916.854 398.852 916.822C399.065 916.781 399.225 916.748 399.331 916.723L399.343 918.578C399.163 918.635 398.926 918.689 398.631 918.738C398.344 918.795 397.996 918.824 397.587 918.824C397.03 918.824 396.518 918.713 396.051 918.492C395.585 918.271 395.212 917.902 394.934 917.387C394.663 916.862 394.528 916.158 394.528 915.274V902.057ZM409.686 915.053C409.686 914.725 409.612 914.422 409.465 914.144C409.326 913.857 409.035 913.599 408.593 913.37C408.159 913.132 407.504 912.928 406.627 912.756C405.89 912.6 405.223 912.416 404.625 912.203C404.036 911.99 403.532 911.732 403.114 911.429C402.705 911.126 402.39 910.77 402.169 910.361C401.947 909.951 401.837 909.472 401.837 908.923C401.837 908.399 401.952 907.904 402.181 907.437C402.418 906.97 402.75 906.557 403.176 906.196C403.61 905.836 404.13 905.554 404.736 905.349C405.342 905.144 406.017 905.042 406.762 905.042C407.827 905.042 408.736 905.23 409.489 905.607C410.243 905.984 410.82 906.487 411.221 907.118C411.623 907.74 411.823 908.432 411.823 909.194H409.551C409.551 908.825 409.44 908.469 409.219 908.125C409.006 907.773 408.691 907.482 408.273 907.253C407.864 907.024 407.36 906.909 406.762 906.909C406.132 906.909 405.62 907.007 405.227 907.204C404.842 907.392 404.56 907.634 404.38 907.928C404.208 908.223 404.122 908.534 404.122 908.862C404.122 909.108 404.163 909.329 404.244 909.525C404.334 909.714 404.49 909.89 404.711 910.053C404.932 910.209 405.243 910.356 405.645 910.496C406.046 910.635 406.558 910.774 407.18 910.913C408.269 911.159 409.166 911.454 409.87 911.798C410.574 912.142 411.099 912.563 411.442 913.063C411.786 913.562 411.958 914.168 411.958 914.881C411.958 915.462 411.836 915.994 411.59 916.478C411.352 916.961 411.004 917.378 410.546 917.731C410.095 918.074 409.555 918.345 408.924 918.541C408.302 918.73 407.602 918.824 406.824 918.824C405.653 918.824 404.662 918.615 403.851 918.197C403.041 917.78 402.426 917.239 402.009 916.576C401.591 915.913 401.382 915.212 401.382 914.475H403.667C403.7 915.098 403.88 915.593 404.208 915.962C404.535 916.322 404.936 916.58 405.411 916.736C405.886 916.883 406.357 916.957 406.824 916.957C407.446 916.957 407.966 916.875 408.384 916.711C408.81 916.547 409.133 916.322 409.354 916.035C409.575 915.749 409.686 915.421 409.686 915.053Z" fill="black"/>
<rect x="45.5155" y="804.594" width="379.859" height="41.5078" fill="white" stroke="black" stroke-width="2.51562"/>
<path d="M388.395 838.352C387.664 838.352 386.933 838.068 386.376 837.5L368.839 819.626C367.723 818.489 367.723 816.645 368.839 815.509C369.954 814.372 371.762 814.372 372.878 815.509L388.395 831.325L403.913 815.509C405.028 814.373 406.836 814.373 407.952 815.509C409.068 816.646 409.068 818.489 407.952 819.626L390.414 837.5C389.857 838.068 389.126 838.352 388.395 838.352Z" fill="#2B2E34"/>
<path d="M72.4748 831.954V833.883H63.5325V831.954H72.4748ZM63.9993 815.998V833.883H61.6286V815.998H63.9993ZM74.2436 827.385V827.102C74.2436 826.144 74.3828 825.256 74.6612 824.437C74.9396 823.61 75.3409 822.893 75.865 822.287C76.3891 821.673 77.0237 821.198 77.7689 820.862C78.5141 820.519 79.3494 820.347 80.2747 820.347C81.2082 820.347 82.0476 820.519 82.7928 820.862C83.5462 821.198 84.1849 821.673 84.709 822.287C85.2413 822.893 85.6466 823.61 85.925 824.437C86.2034 825.256 86.3427 826.144 86.3427 827.102V827.385C86.3427 828.343 86.2034 829.231 85.925 830.05C85.6466 830.869 85.2413 831.586 84.709 832.2C84.1849 832.806 83.5503 833.281 82.8051 833.625C82.0681 833.961 81.2328 834.128 80.2993 834.128C79.3657 834.128 78.5264 833.961 77.7812 833.625C77.036 833.281 76.3973 832.806 75.865 832.2C75.3409 831.586 74.9396 830.869 74.6612 830.05C74.3828 829.231 74.2436 828.343 74.2436 827.385ZM76.516 827.102V827.385C76.516 828.048 76.5938 828.675 76.7494 829.264C76.905 829.846 77.1384 830.362 77.4495 830.812C77.7689 831.262 78.1661 831.619 78.641 831.881C79.116 832.134 79.6687 832.261 80.2993 832.261C80.9216 832.261 81.4662 832.134 81.9329 831.881C82.4079 831.619 82.801 831.262 83.1121 830.812C83.4233 830.362 83.6567 829.846 83.8123 829.264C83.9761 828.675 84.058 828.048 84.058 827.385V827.102C84.058 826.447 83.9761 825.829 83.8123 825.248C83.6567 824.658 83.4192 824.138 83.0999 823.688C82.7887 823.229 82.3956 822.869 81.9207 822.607C81.4539 822.345 80.9052 822.214 80.2747 822.214C79.6523 822.214 79.1037 822.345 78.6287 822.607C78.162 822.869 77.7689 823.229 77.4495 823.688C77.1384 824.138 76.905 824.658 76.7494 825.248C76.5938 825.829 76.516 826.447 76.516 827.102ZM92.558 831.524L95.9728 820.592H97.4714L97.1766 822.766L93.7004 833.883H92.2387L92.558 831.524ZM90.261 820.592L93.1722 831.647L93.381 833.883H91.8456L87.9886 820.592H90.261ZM100.739 831.561L103.515 820.592H105.775L101.918 833.883H100.395L100.739 831.561ZM97.803 820.592L101.144 831.34L101.525 833.883H100.075L96.501 822.742L96.2062 820.592H97.803Z" fill="black"/>
<path d="M45.0759 714.115H50.9964C52.3394 714.115 53.4736 714.32 54.3989 714.73C55.3325 715.139 56.0408 715.745 56.5239 716.548C57.0153 717.342 57.2609 718.32 57.2609 719.483C57.2609 720.302 57.0931 721.051 56.7573 721.731C56.4298 722.403 55.9548 722.976 55.3325 723.451C54.7183 723.918 53.9813 724.266 53.1215 724.495L52.4582 724.753H46.8938L46.8692 722.824H51.0701C51.9218 722.824 52.6301 722.677 53.1952 722.382C53.7602 722.079 54.186 721.674 54.4726 721.166C54.7592 720.658 54.9025 720.097 54.9025 719.483C54.9025 718.795 54.7674 718.194 54.4972 717.678C54.227 717.162 53.8011 716.765 53.2197 716.486C52.6465 716.2 51.9054 716.056 50.9964 716.056H47.4466V732H45.0759V714.115ZM55.529 732L51.1807 723.893L53.6496 723.881L58.0594 731.853V732H55.529ZM59.6316 725.502V725.22C59.6316 724.262 59.7708 723.373 60.0493 722.554C60.3277 721.727 60.7289 721.011 61.253 720.405C61.7771 719.79 62.4117 719.315 63.1569 718.98C63.9021 718.636 64.7374 718.464 65.6627 718.464C66.5963 718.464 67.4356 718.636 68.1808 718.98C68.9342 719.315 69.5729 719.79 70.097 720.405C70.6293 721.011 71.0346 721.727 71.3131 722.554C71.5915 723.373 71.7307 724.262 71.7307 725.22V725.502C71.7307 726.46 71.5915 727.349 71.3131 728.168C71.0346 728.986 70.6293 729.703 70.097 730.317C69.5729 730.923 68.9383 731.398 68.1931 731.742C67.4561 732.078 66.6208 732.246 65.6873 732.246C64.7538 732.246 63.9144 732.078 63.1692 731.742C62.424 731.398 61.7853 730.923 61.253 730.317C60.7289 729.703 60.3277 728.986 60.0493 728.168C59.7708 727.349 59.6316 726.46 59.6316 725.502ZM61.904 725.22V725.502C61.904 726.165 61.9818 726.792 62.1374 727.381C62.293 727.963 62.5264 728.479 62.8376 728.929C63.1569 729.38 63.5541 729.736 64.029 729.998C64.504 730.252 65.0568 730.379 65.6873 730.379C66.3097 730.379 66.8542 730.252 67.321 729.998C67.7959 729.736 68.189 729.38 68.5002 728.929C68.8114 728.479 69.0447 727.963 69.2003 727.381C69.3641 726.792 69.446 726.165 69.446 725.502V725.22C69.446 724.564 69.3641 723.946 69.2003 723.365C69.0447 722.775 68.8073 722.255 68.4879 721.805C68.1767 721.346 67.7836 720.986 67.3087 720.724C66.8419 720.462 66.2933 720.331 65.6627 720.331C65.0404 720.331 64.4917 720.462 64.0168 720.724C63.55 720.986 63.1569 721.346 62.8376 721.805C62.5264 722.255 62.293 722.775 62.1374 723.365C61.9818 723.946 61.904 724.564 61.904 725.22ZM82.712 728.929V718.709H84.9967V732H82.8225L82.712 728.929ZM83.1419 726.129L84.0877 726.104C84.0877 726.988 83.9935 727.807 83.8052 728.561C83.625 729.306 83.3302 729.953 82.9208 730.501C82.5114 731.05 81.975 731.48 81.3117 731.791C80.6484 732.094 79.8418 732.246 78.8919 732.246C78.2449 732.246 77.6513 732.151 77.1108 731.963C76.5785 731.775 76.1199 731.484 75.7351 731.091C75.3502 730.698 75.0513 730.186 74.8384 729.556C74.6336 728.925 74.5313 728.168 74.5313 727.283V718.709H76.8037V727.308C76.8037 727.906 76.8692 728.401 77.0002 728.794C77.1394 729.179 77.3237 729.486 77.553 729.715C77.7905 729.936 78.0525 730.092 78.3391 730.182C78.6339 730.272 78.9369 730.317 79.2481 730.317C80.2144 730.317 80.98 730.133 81.5451 729.764C82.1101 729.388 82.5154 728.884 82.7611 728.254C83.015 727.615 83.1419 726.907 83.1419 726.129ZM90.733 721.547V732H88.4606V718.709H90.6102L90.733 721.547ZM90.1925 724.851L89.2467 724.814C89.2549 723.905 89.39 723.066 89.6521 722.296C89.9141 721.518 90.2826 720.843 90.7576 720.269C91.2325 719.696 91.7975 719.254 92.4527 718.943C93.116 718.623 93.8489 718.464 94.6514 718.464C95.3065 718.464 95.8961 718.554 96.4202 718.734C96.9443 718.906 97.3906 719.184 97.7591 719.569C98.1357 719.954 98.4224 720.454 98.6189 721.068C98.8154 721.674 98.9137 722.415 98.9137 723.291V732H96.629V723.267C96.629 722.571 96.5266 722.014 96.3219 721.596C96.1172 721.17 95.8183 720.863 95.4252 720.675C95.0322 720.478 94.549 720.38 93.9758 720.38C93.4108 720.38 92.8949 720.499 92.4281 720.736C91.9695 720.974 91.5724 721.301 91.2366 721.719C90.9091 722.136 90.6511 722.616 90.4628 723.156C90.2826 723.688 90.1925 724.253 90.1925 724.851ZM110.743 729.421V713.133H113.027V732H110.939L110.743 729.421ZM101.8 725.502V725.244C101.8 724.229 101.923 723.308 102.169 722.48C102.423 721.645 102.779 720.929 103.237 720.331C103.704 719.733 104.257 719.274 104.896 718.955C105.543 718.628 106.263 718.464 107.058 718.464C107.893 718.464 108.622 718.611 109.244 718.906C109.875 719.193 110.407 719.614 110.841 720.171C111.283 720.72 111.631 721.383 111.885 722.161C112.139 722.939 112.315 723.819 112.413 724.802V725.932C112.323 726.907 112.147 727.783 111.885 728.561C111.631 729.339 111.283 730.002 110.841 730.551C110.407 731.099 109.875 731.521 109.244 731.816C108.613 732.102 107.876 732.246 107.033 732.246C106.255 732.246 105.543 732.078 104.896 731.742C104.257 731.406 103.704 730.935 103.237 730.329C102.779 729.723 102.423 729.011 102.169 728.192C101.923 727.365 101.8 726.468 101.8 725.502ZM104.085 725.244V725.502C104.085 726.165 104.15 726.788 104.281 727.369C104.421 727.951 104.634 728.462 104.92 728.905C105.207 729.347 105.571 729.695 106.013 729.949C106.456 730.194 106.984 730.317 107.598 730.317C108.351 730.317 108.97 730.158 109.453 729.838C109.944 729.519 110.337 729.097 110.632 728.573C110.927 728.049 111.156 727.48 111.32 726.866V723.905C111.222 723.455 111.078 723.021 110.89 722.603C110.71 722.177 110.472 721.801 110.177 721.473C109.891 721.137 109.535 720.871 109.109 720.675C108.691 720.478 108.196 720.38 107.623 720.38C107 720.38 106.464 720.511 106.013 720.773C105.571 721.027 105.207 721.379 104.92 721.829C104.634 722.272 104.421 722.788 104.281 723.377C104.15 723.959 104.085 724.581 104.085 725.244ZM130.543 728.475C130.543 728.147 130.47 727.844 130.322 727.566C130.183 727.279 129.892 727.021 129.45 726.792C129.016 726.554 128.361 726.35 127.485 726.178C126.748 726.022 126.08 725.838 125.483 725.625C124.893 725.412 124.389 725.154 123.972 724.851C123.562 724.548 123.247 724.192 123.026 723.782C122.805 723.373 122.694 722.894 122.694 722.345C122.694 721.821 122.809 721.326 123.038 720.859C123.276 720.392 123.607 719.979 124.033 719.618C124.467 719.258 124.987 718.976 125.593 718.771C126.199 718.566 126.875 718.464 127.62 718.464C128.684 718.464 129.593 718.652 130.347 719.029C131.1 719.406 131.677 719.909 132.079 720.54C132.48 721.162 132.681 721.854 132.681 722.616H130.408C130.408 722.247 130.298 721.891 130.076 721.547C129.864 721.195 129.548 720.904 129.131 720.675C128.721 720.445 128.218 720.331 127.62 720.331C126.989 720.331 126.477 720.429 126.084 720.626C125.7 720.814 125.417 721.056 125.237 721.35C125.065 721.645 124.979 721.956 124.979 722.284C124.979 722.53 125.02 722.751 125.102 722.947C125.192 723.136 125.347 723.312 125.568 723.475C125.79 723.631 126.101 723.778 126.502 723.918C126.903 724.057 127.415 724.196 128.037 724.335C129.127 724.581 130.023 724.876 130.727 725.22C131.432 725.564 131.956 725.985 132.3 726.485C132.644 726.984 132.816 727.59 132.816 728.303C132.816 728.884 132.693 729.416 132.447 729.9C132.21 730.383 131.862 730.8 131.403 731.152C130.953 731.496 130.412 731.767 129.782 731.963C129.159 732.151 128.459 732.246 127.681 732.246C126.51 732.246 125.519 732.037 124.709 731.619C123.898 731.202 123.284 730.661 122.866 729.998C122.449 729.335 122.24 728.634 122.24 727.897H124.524C124.557 728.52 124.737 729.015 125.065 729.384C125.392 729.744 125.794 730.002 126.269 730.158C126.744 730.305 127.214 730.379 127.681 730.379C128.304 730.379 128.824 730.297 129.241 730.133C129.667 729.969 129.99 729.744 130.212 729.457C130.433 729.171 130.543 728.843 130.543 728.475ZM141.119 730.379C141.66 730.379 142.159 730.268 142.618 730.047C143.076 729.826 143.453 729.523 143.748 729.138C144.043 728.745 144.21 728.299 144.251 727.799H146.413C146.372 728.585 146.106 729.318 145.615 729.998C145.132 730.669 144.497 731.214 143.711 731.632C142.925 732.041 142.061 732.246 141.119 732.246C140.12 732.246 139.248 732.07 138.503 731.717C137.766 731.365 137.152 730.882 136.66 730.268C136.177 729.654 135.813 728.95 135.567 728.155C135.33 727.353 135.211 726.505 135.211 725.613V725.097C135.211 724.204 135.33 723.361 135.567 722.566C135.813 721.764 136.177 721.056 136.66 720.441C137.152 719.827 137.766 719.344 138.503 718.992C139.248 718.64 140.12 718.464 141.119 718.464C142.159 718.464 143.068 718.677 143.846 719.103C144.624 719.52 145.234 720.093 145.676 720.822C146.127 721.543 146.372 722.362 146.413 723.279H144.251C144.21 722.73 144.055 722.235 143.785 721.793C143.523 721.35 143.162 720.998 142.704 720.736C142.253 720.466 141.725 720.331 141.119 720.331C140.423 720.331 139.838 720.47 139.363 720.748C138.896 721.019 138.523 721.387 138.245 721.854C137.975 722.313 137.778 722.824 137.655 723.389C137.541 723.946 137.483 724.515 137.483 725.097V725.613C137.483 726.194 137.541 726.767 137.655 727.332C137.77 727.897 137.962 728.409 138.233 728.868C138.511 729.326 138.884 729.695 139.35 729.973C139.825 730.243 140.415 730.379 141.119 730.379ZM148.366 725.502V725.22C148.366 724.262 148.506 723.373 148.784 722.554C149.062 721.727 149.464 721.011 149.988 720.405C150.512 719.79 151.146 719.315 151.892 718.98C152.637 718.636 153.472 718.464 154.397 718.464C155.331 718.464 156.17 718.636 156.916 718.98C157.669 719.315 158.308 719.79 158.832 720.405C159.364 721.011 159.769 721.727 160.048 722.554C160.326 723.373 160.465 724.262 160.465 725.22V725.502C160.465 726.46 160.326 727.349 160.048 728.168C159.769 728.986 159.364 729.703 158.832 730.317C158.308 730.923 157.673 731.398 156.928 731.742C156.191 732.078 155.356 732.246 154.422 732.246C153.488 732.246 152.649 732.078 151.904 731.742C151.159 731.398 150.52 730.923 149.988 730.317C149.464 729.703 149.062 728.986 148.784 728.168C148.506 727.349 148.366 726.46 148.366 725.502ZM150.639 725.22V725.502C150.639 726.165 150.717 726.792 150.872 727.381C151.028 727.963 151.261 728.479 151.572 728.929C151.892 729.38 152.289 729.736 152.764 729.998C153.239 730.252 153.791 730.379 154.422 730.379C155.044 730.379 155.589 730.252 156.056 729.998C156.531 729.736 156.924 729.38 157.235 728.929C157.546 728.479 157.779 727.963 157.935 727.381C158.099 726.792 158.181 726.165 158.181 725.502V725.22C158.181 724.564 158.099 723.946 157.935 723.365C157.779 722.775 157.542 722.255 157.223 721.805C156.911 721.346 156.518 720.986 156.043 720.724C155.577 720.462 155.028 720.331 154.397 720.331C153.775 720.331 153.226 720.462 152.751 720.724C152.285 720.986 151.892 721.346 151.572 721.805C151.261 722.255 151.028 722.775 150.872 723.365C150.717 723.946 150.639 724.564 150.639 725.22ZM165.588 720.798V732H163.315V718.709H165.526L165.588 720.798ZM169.739 718.636L169.727 720.748C169.539 720.708 169.359 720.683 169.187 720.675C169.023 720.658 168.834 720.65 168.622 720.65C168.097 720.65 167.635 720.732 167.234 720.896C166.832 721.06 166.492 721.289 166.214 721.584C165.936 721.879 165.714 722.231 165.551 722.64C165.395 723.041 165.293 723.484 165.244 723.967L164.605 724.335C164.605 723.533 164.683 722.779 164.838 722.075C165.002 721.371 165.252 720.748 165.588 720.208C165.923 719.659 166.349 719.234 166.865 718.931C167.389 718.619 168.011 718.464 168.732 718.464C168.896 718.464 169.084 718.484 169.297 718.525C169.51 718.558 169.657 718.595 169.739 718.636ZM177.109 732.246C176.184 732.246 175.345 732.09 174.591 731.779C173.846 731.46 173.203 731.013 172.663 730.44C172.13 729.867 171.721 729.187 171.434 728.401C171.148 727.615 171.005 726.755 171.005 725.821V725.306C171.005 724.225 171.164 723.262 171.484 722.419C171.803 721.567 172.237 720.847 172.786 720.257C173.334 719.668 173.957 719.221 174.653 718.918C175.349 718.615 176.069 718.464 176.815 718.464C177.764 718.464 178.583 718.628 179.271 718.955C179.967 719.283 180.536 719.741 180.979 720.331C181.421 720.912 181.748 721.6 181.961 722.394C182.174 723.181 182.281 724.04 182.281 724.974V725.993H172.356V724.139H180.008V723.967C179.975 723.377 179.853 722.804 179.64 722.247C179.435 721.69 179.107 721.232 178.657 720.871C178.207 720.511 177.592 720.331 176.815 720.331C176.299 720.331 175.824 720.441 175.39 720.662C174.956 720.875 174.583 721.195 174.272 721.621C173.961 722.046 173.719 722.566 173.547 723.181C173.375 723.795 173.289 724.503 173.289 725.306V725.821C173.289 726.452 173.375 727.046 173.547 727.603C173.727 728.151 173.985 728.634 174.321 729.052C174.665 729.47 175.078 729.797 175.562 730.035C176.053 730.272 176.61 730.391 177.232 730.391C178.035 730.391 178.714 730.227 179.271 729.9C179.828 729.572 180.315 729.134 180.733 728.585L182.109 729.678C181.822 730.112 181.458 730.526 181.015 730.919C180.573 731.312 180.029 731.632 179.382 731.877C178.743 732.123 177.986 732.246 177.109 732.246ZM184.836 730.796C184.836 730.411 184.954 730.088 185.192 729.826C185.437 729.556 185.79 729.421 186.248 729.421C186.707 729.421 187.055 729.556 187.292 729.826C187.538 730.088 187.661 730.411 187.661 730.796C187.661 731.173 187.538 731.492 187.292 731.754C187.055 732.016 186.707 732.147 186.248 732.147C185.79 732.147 185.437 732.016 185.192 731.754C184.954 731.492 184.836 731.173 184.836 730.796ZM184.848 719.95C184.848 719.565 184.967 719.242 185.204 718.98C185.45 718.709 185.802 718.574 186.26 718.574C186.719 718.574 187.067 718.709 187.304 718.98C187.55 719.242 187.673 719.565 187.673 719.95C187.673 720.327 187.55 720.646 187.304 720.908C187.067 721.17 186.719 721.301 186.26 721.301C185.802 721.301 185.45 721.17 185.204 720.908C184.967 720.646 184.848 720.327 184.848 719.95ZM204.489 714.017V732H202.216V716.855L197.635 718.525V716.474L204.133 714.017H204.489ZM222.889 730.133V732H211.183V730.366L217.042 723.844C217.763 723.041 218.32 722.362 218.713 721.805C219.114 721.24 219.393 720.736 219.548 720.294C219.712 719.844 219.794 719.385 219.794 718.918C219.794 718.329 219.671 717.796 219.425 717.321C219.188 716.838 218.836 716.453 218.369 716.167C217.902 715.88 217.337 715.737 216.674 715.737C215.88 715.737 215.216 715.892 214.684 716.204C214.16 716.507 213.767 716.932 213.505 717.481C213.243 718.03 213.112 718.66 213.112 719.373H210.839C210.839 718.366 211.06 717.444 211.503 716.609C211.945 715.774 212.6 715.11 213.468 714.619C214.336 714.12 215.405 713.87 216.674 713.87C217.804 713.87 218.77 714.07 219.573 714.472C220.375 714.865 220.989 715.422 221.415 716.142C221.849 716.855 222.066 717.69 222.066 718.648C222.066 719.172 221.976 719.704 221.796 720.245C221.624 720.777 221.383 721.309 221.071 721.842C220.768 722.374 220.412 722.898 220.003 723.414C219.601 723.93 219.172 724.438 218.713 724.937L213.922 730.133H222.889Z" fill="black"/>
<path d="M51.6843 763.17V781.055H49.3505V763.17H51.6843ZM57.4329 763.17V765.111H43.6142V763.17H57.4329ZM57.912 774.557V774.274C57.912 773.316 58.0512 772.428 58.3296 771.609C58.608 770.782 59.0093 770.065 59.5334 769.459C60.0574 768.845 60.6921 768.37 61.4373 768.034C62.1825 767.69 63.0177 767.518 63.9431 767.518C64.8766 767.518 65.716 767.69 66.4611 768.034C67.2145 768.37 67.8533 768.845 68.3773 769.459C68.9096 770.065 69.315 770.782 69.5934 771.609C69.8718 772.428 70.011 773.316 70.011 774.274V774.557C70.011 775.515 69.8718 776.403 69.5934 777.222C69.315 778.041 68.9096 778.758 68.3773 779.372C67.8533 779.978 67.2186 780.453 66.4734 780.797C65.7364 781.132 64.9012 781.3 63.9676 781.3C63.0341 781.3 62.1947 781.132 61.4496 780.797C60.7044 780.453 60.0656 779.978 59.5334 779.372C59.0093 778.758 58.608 778.041 58.3296 777.222C58.0512 776.403 57.912 775.515 57.912 774.557ZM60.1844 774.274V774.557C60.1844 775.22 60.2622 775.846 60.4178 776.436C60.5733 777.018 60.8067 777.533 61.1179 777.984C61.4373 778.434 61.8344 778.79 62.3094 779.052C62.7843 779.306 63.3371 779.433 63.9676 779.433C64.59 779.433 65.1345 779.306 65.6013 779.052C66.0763 778.79 66.4693 778.434 66.7805 777.984C67.0917 777.533 67.3251 777.018 67.4807 776.436C67.6444 775.846 67.7263 775.22 67.7263 774.557V774.274C67.7263 773.619 67.6444 773.001 67.4807 772.419C67.3251 771.83 67.0876 771.31 66.7682 770.859C66.4571 770.401 66.064 770.041 65.589 769.779C65.1223 769.516 64.5736 769.385 63.9431 769.385C63.3207 769.385 62.7721 769.516 62.2971 769.779C61.8303 770.041 61.4373 770.401 61.1179 770.859C60.8067 771.31 60.5733 771.83 60.4178 772.419C60.2622 773.001 60.1844 773.619 60.1844 774.274ZM78.4251 767.764V769.508H71.2394V767.764H78.4251ZM73.6715 764.534H75.9439V777.763C75.9439 778.213 76.0135 778.553 76.1527 778.782C76.2919 779.012 76.4721 779.163 76.6932 779.237C76.9143 779.31 77.1517 779.347 77.4056 779.347C77.5939 779.347 77.7905 779.331 77.9952 779.298C78.2081 779.257 78.3678 779.224 78.4742 779.2L78.4865 781.055C78.3064 781.112 78.0689 781.165 77.7741 781.214C77.4875 781.272 77.1394 781.3 76.73 781.3C76.1732 781.3 75.6614 781.19 75.1946 780.969C74.7278 780.748 74.3552 780.379 74.0768 779.863C73.8066 779.339 73.6715 778.635 73.6715 777.75V764.534ZM88.9273 778.782V771.94C88.9273 771.416 88.8209 770.962 88.608 770.577C88.4033 770.184 88.0921 769.881 87.6744 769.668C87.2568 769.455 86.7409 769.349 86.1267 769.349C85.5535 769.349 85.0499 769.447 84.6159 769.643C84.1901 769.84 83.8543 770.098 83.6087 770.417C83.3712 770.737 83.2524 771.081 83.2524 771.449H80.98C80.98 770.974 81.1029 770.503 81.3485 770.036C81.5942 769.57 81.9463 769.148 82.4049 768.771C82.8717 768.386 83.4285 768.083 84.0754 767.862C84.7305 767.633 85.4594 767.518 86.2619 767.518C87.2282 767.518 88.0798 767.682 88.8168 768.01C89.562 768.337 90.1434 768.833 90.561 769.496C90.9868 770.151 91.1998 770.974 91.1998 771.965V778.156C91.1998 778.598 91.2366 779.069 91.3103 779.568C91.3922 780.068 91.5109 780.498 91.6665 780.858V781.055H89.2958C89.1812 780.793 89.0911 780.445 89.0256 780.011C88.9601 779.568 88.9273 779.159 88.9273 778.782ZM89.3204 772.997L89.345 774.594H87.048C86.4011 774.594 85.8238 774.647 85.316 774.753C84.8083 774.852 84.3825 775.003 84.0386 775.208C83.6946 775.412 83.4326 775.67 83.2524 775.982C83.0723 776.285 82.9822 776.641 82.9822 777.05C82.9822 777.468 83.0764 777.849 83.2647 778.193C83.4531 778.537 83.7356 778.811 84.1123 779.016C84.4972 779.212 84.968 779.31 85.5249 779.31C86.2209 779.31 86.8351 779.163 87.3674 778.868C87.8996 778.573 88.3214 778.213 88.6325 777.787C88.9519 777.361 89.1239 776.948 89.1484 776.547L90.1188 777.64C90.0615 777.984 89.9059 778.365 89.6521 778.782C89.3982 779.2 89.0584 779.601 88.6325 779.986C88.2149 780.363 87.7154 780.678 87.134 780.932C86.5608 781.177 85.9138 781.3 85.1932 781.3C84.2924 781.3 83.5022 781.124 82.8225 780.772C82.151 780.42 81.627 779.949 81.2503 779.36C80.8818 778.762 80.6975 778.094 80.6975 777.357C80.6975 776.645 80.8367 776.018 81.1152 775.478C81.3936 774.929 81.7948 774.475 82.3189 774.115C82.843 773.746 83.4735 773.468 84.2105 773.279C84.9475 773.091 85.7705 772.997 86.6795 772.997H89.3204ZM97.2432 762.187V781.055H94.9585V762.187H97.2432ZM114.87 777.529C114.87 777.202 114.796 776.899 114.649 776.62C114.509 776.334 114.219 776.076 113.777 775.846C113.342 775.609 112.687 775.404 111.811 775.232C111.074 775.077 110.407 774.892 109.809 774.68C109.219 774.467 108.716 774.209 108.298 773.906C107.889 773.603 107.573 773.247 107.352 772.837C107.131 772.428 107.021 771.949 107.021 771.4C107.021 770.876 107.135 770.38 107.365 769.914C107.602 769.447 107.934 769.033 108.36 768.673C108.794 768.313 109.314 768.03 109.92 767.825C110.526 767.621 111.201 767.518 111.946 767.518C113.011 767.518 113.92 767.707 114.673 768.083C115.427 768.46 116.004 768.964 116.405 769.594C116.806 770.217 117.007 770.909 117.007 771.67H114.735C114.735 771.302 114.624 770.945 114.403 770.602C114.19 770.249 113.875 769.959 113.457 769.729C113.048 769.5 112.544 769.385 111.946 769.385C111.316 769.385 110.804 769.484 110.411 769.68C110.026 769.869 109.743 770.11 109.563 770.405C109.391 770.7 109.305 771.011 109.305 771.339C109.305 771.584 109.346 771.805 109.428 772.002C109.518 772.19 109.674 772.366 109.895 772.53C110.116 772.686 110.427 772.833 110.829 772.972C111.23 773.111 111.742 773.251 112.364 773.39C113.453 773.635 114.35 773.93 115.054 774.274C115.758 774.618 116.282 775.04 116.626 775.539C116.97 776.039 117.142 776.645 117.142 777.357C117.142 777.939 117.019 778.471 116.774 778.954C116.536 779.437 116.188 779.855 115.73 780.207C115.279 780.551 114.739 780.821 114.108 781.018C113.486 781.206 112.786 781.3 112.008 781.3C110.837 781.3 109.846 781.091 109.035 780.674C108.224 780.256 107.61 779.716 107.193 779.052C106.775 778.389 106.566 777.689 106.566 776.952H108.851C108.884 777.574 109.064 778.07 109.391 778.438C109.719 778.799 110.12 779.057 110.595 779.212C111.07 779.36 111.541 779.433 112.008 779.433C112.63 779.433 113.15 779.351 113.568 779.188C113.994 779.024 114.317 778.799 114.538 778.512C114.759 778.225 114.87 777.898 114.87 777.529ZM125.446 779.433C125.986 779.433 126.486 779.323 126.944 779.102C127.403 778.88 127.779 778.577 128.074 778.193C128.369 777.8 128.537 777.353 128.578 776.854H130.74C130.699 777.64 130.433 778.373 129.941 779.052C129.458 779.724 128.824 780.268 128.037 780.686C127.251 781.096 126.387 781.3 125.446 781.3C124.447 781.3 123.575 781.124 122.829 780.772C122.092 780.42 121.478 779.937 120.987 779.323C120.504 778.709 120.139 778.004 119.894 777.21C119.656 776.407 119.537 775.56 119.537 774.667V774.151C119.537 773.259 119.656 772.415 119.894 771.621C120.139 770.819 120.504 770.11 120.987 769.496C121.478 768.882 122.092 768.399 122.829 768.047C123.575 767.694 124.447 767.518 125.446 767.518C126.486 767.518 127.395 767.731 128.173 768.157C128.951 768.575 129.561 769.148 130.003 769.877C130.453 770.597 130.699 771.416 130.74 772.333H128.578C128.537 771.785 128.381 771.289 128.111 770.847C127.849 770.405 127.489 770.053 127.03 769.791C126.58 769.521 126.052 769.385 125.446 769.385C124.75 769.385 124.164 769.525 123.689 769.803C123.222 770.073 122.85 770.442 122.571 770.909C122.301 771.367 122.105 771.879 121.982 772.444C121.867 773.001 121.81 773.57 121.81 774.151V774.667C121.81 775.249 121.867 775.822 121.982 776.387C122.096 776.952 122.289 777.464 122.559 777.922C122.838 778.381 123.21 778.749 123.677 779.028C124.152 779.298 124.741 779.433 125.446 779.433ZM132.693 774.557V774.274C132.693 773.316 132.832 772.428 133.11 771.609C133.389 770.782 133.79 770.065 134.314 769.459C134.838 768.845 135.473 768.37 136.218 768.034C136.963 767.69 137.799 767.518 138.724 767.518C139.657 767.518 140.497 767.69 141.242 768.034C141.995 768.37 142.634 768.845 143.158 769.459C143.69 770.065 144.096 770.782 144.374 771.609C144.653 772.428 144.792 773.316 144.792 774.274V774.557C144.792 775.515 144.653 776.403 144.374 777.222C144.096 778.041 143.69 778.758 143.158 779.372C142.634 779.978 141.999 780.453 141.254 780.797C140.517 781.132 139.682 781.3 138.749 781.3C137.815 781.3 136.976 781.132 136.23 780.797C135.485 780.453 134.847 779.978 134.314 779.372C133.79 778.758 133.389 778.041 133.11 777.222C132.832 776.403 132.693 775.515 132.693 774.557ZM134.965 774.274V774.557C134.965 775.22 135.043 775.846 135.199 776.436C135.354 777.018 135.588 777.533 135.899 777.984C136.218 778.434 136.615 778.79 137.09 779.052C137.565 779.306 138.118 779.433 138.749 779.433C139.371 779.433 139.915 779.306 140.382 779.052C140.857 778.79 141.25 778.434 141.561 777.984C141.873 777.533 142.106 777.018 142.262 776.436C142.425 775.846 142.507 775.22 142.507 774.557V774.274C142.507 773.619 142.425 773.001 142.262 772.419C142.106 771.83 141.868 771.31 141.549 770.859C141.238 770.401 140.845 770.041 140.37 769.779C139.903 769.516 139.354 769.385 138.724 769.385C138.102 769.385 137.553 769.516 137.078 769.779C136.611 770.041 136.218 770.401 135.899 770.859C135.588 771.31 135.354 771.83 135.199 772.419C135.043 773.001 134.965 773.619 134.965 774.274ZM149.914 769.852V781.055H147.642V767.764H149.853L149.914 769.852ZM154.066 767.69L154.054 769.803C153.865 769.762 153.685 769.738 153.513 769.729C153.349 769.713 153.161 769.705 152.948 769.705C152.424 769.705 151.961 769.787 151.56 769.951C151.159 770.114 150.819 770.344 150.54 770.638C150.262 770.933 150.041 771.285 149.877 771.695C149.722 772.096 149.619 772.538 149.57 773.021L148.931 773.39C148.931 772.587 149.009 771.834 149.165 771.13C149.329 770.425 149.578 769.803 149.914 769.263C150.25 768.714 150.676 768.288 151.192 767.985C151.716 767.674 152.338 767.518 153.059 767.518C153.222 767.518 153.411 767.539 153.624 767.58C153.837 767.613 153.984 767.649 154.066 767.69ZM161.436 781.3C160.51 781.3 159.671 781.145 158.918 780.834C158.173 780.514 157.53 780.068 156.989 779.495C156.457 778.921 156.048 778.242 155.761 777.456C155.474 776.669 155.331 775.81 155.331 774.876V774.36C155.331 773.279 155.491 772.317 155.81 771.474C156.129 770.622 156.563 769.901 157.112 769.312C157.661 768.722 158.283 768.276 158.979 767.973C159.675 767.67 160.396 767.518 161.141 767.518C162.091 767.518 162.91 767.682 163.598 768.01C164.294 768.337 164.863 768.796 165.305 769.385C165.747 769.967 166.075 770.655 166.288 771.449C166.501 772.235 166.607 773.095 166.607 774.029V775.048H156.682V773.193H164.335V773.021C164.302 772.432 164.179 771.859 163.966 771.302C163.761 770.745 163.434 770.286 162.983 769.926C162.533 769.566 161.919 769.385 161.141 769.385C160.625 769.385 160.15 769.496 159.716 769.717C159.282 769.93 158.91 770.249 158.598 770.675C158.287 771.101 158.046 771.621 157.874 772.235C157.702 772.849 157.616 773.558 157.616 774.36V774.876C157.616 775.507 157.702 776.1 157.874 776.657C158.054 777.206 158.312 777.689 158.647 778.107C158.991 778.524 159.405 778.852 159.888 779.089C160.379 779.327 160.936 779.446 161.559 779.446C162.361 779.446 163.041 779.282 163.598 778.954C164.155 778.627 164.642 778.189 165.059 777.64L166.435 778.733C166.148 779.167 165.784 779.581 165.342 779.974C164.9 780.367 164.355 780.686 163.708 780.932C163.069 781.177 162.312 781.3 161.436 781.3ZM169.162 779.851C169.162 779.466 169.281 779.143 169.518 778.88C169.764 778.61 170.116 778.475 170.575 778.475C171.033 778.475 171.381 778.61 171.619 778.88C171.864 779.143 171.987 779.466 171.987 779.851C171.987 780.228 171.864 780.547 171.619 780.809C171.381 781.071 171.033 781.202 170.575 781.202C170.116 781.202 169.764 781.071 169.518 780.809C169.281 780.547 169.162 780.228 169.162 779.851ZM169.174 769.005C169.174 768.62 169.293 768.296 169.531 768.034C169.776 767.764 170.128 767.629 170.587 767.629C171.045 767.629 171.393 767.764 171.631 768.034C171.877 768.296 171.999 768.62 171.999 769.005C171.999 769.381 171.877 769.701 171.631 769.963C171.393 770.225 171.045 770.356 170.587 770.356C170.128 770.356 169.776 770.225 169.531 769.963C169.293 769.701 169.174 769.381 169.174 769.005ZM192.623 776.215C192.623 777.304 192.369 778.229 191.862 778.991C191.362 779.744 190.682 780.318 189.823 780.711C188.971 781.104 188.009 781.3 186.936 781.3C185.863 781.3 184.897 781.104 184.037 780.711C183.177 780.318 182.498 779.744 181.998 778.991C181.499 778.229 181.249 777.304 181.249 776.215C181.249 775.503 181.384 774.852 181.654 774.262C181.933 773.664 182.322 773.144 182.821 772.702C183.329 772.26 183.927 771.92 184.614 771.682C185.31 771.437 186.076 771.314 186.911 771.314C188.009 771.314 188.987 771.527 189.847 771.953C190.707 772.37 191.383 772.948 191.874 773.685C192.373 774.422 192.623 775.265 192.623 776.215ZM190.338 776.166C190.338 775.503 190.195 774.917 189.909 774.409C189.622 773.893 189.221 773.492 188.705 773.206C188.189 772.919 187.591 772.776 186.911 772.776C186.215 772.776 185.613 772.919 185.106 773.206C184.606 773.492 184.217 773.893 183.939 774.409C183.66 774.917 183.521 775.503 183.521 776.166C183.521 776.854 183.656 777.443 183.927 777.935C184.205 778.418 184.598 778.79 185.106 779.052C185.622 779.306 186.232 779.433 186.936 779.433C187.64 779.433 188.246 779.306 188.754 779.052C189.262 778.79 189.651 778.418 189.921 777.935C190.199 777.443 190.338 776.854 190.338 776.166ZM192.206 767.825C192.206 768.694 191.976 769.476 191.518 770.172C191.059 770.868 190.433 771.416 189.638 771.818C188.844 772.219 187.943 772.419 186.936 772.419C185.912 772.419 184.999 772.219 184.197 771.818C183.402 771.416 182.78 770.868 182.33 770.172C181.879 769.476 181.654 768.694 181.654 767.825C181.654 766.786 181.879 765.901 182.33 765.172C182.788 764.443 183.415 763.887 184.209 763.502C185.003 763.117 185.908 762.924 186.924 762.924C187.947 762.924 188.856 763.117 189.651 763.502C190.445 763.887 191.067 764.443 191.518 765.172C191.976 765.901 192.206 766.786 192.206 767.825ZM189.933 767.862C189.933 767.265 189.806 766.736 189.552 766.278C189.298 765.819 188.946 765.459 188.496 765.197C188.046 764.927 187.521 764.792 186.924 764.792C186.326 764.792 185.802 764.918 185.351 765.172C184.909 765.418 184.561 765.77 184.307 766.229C184.062 766.687 183.939 767.232 183.939 767.862C183.939 768.477 184.062 769.013 184.307 769.471C184.561 769.93 184.913 770.286 185.364 770.54C185.814 770.794 186.338 770.921 186.936 770.921C187.534 770.921 188.054 770.794 188.496 770.54C188.946 770.286 189.298 769.93 189.552 769.471C189.806 769.013 189.933 768.477 189.933 767.862ZM206.724 770.688V773.414C206.724 774.88 206.593 776.117 206.331 777.124C206.069 778.131 205.693 778.942 205.201 779.556C204.71 780.17 204.116 780.617 203.42 780.895C202.732 781.165 201.954 781.3 201.086 781.3C200.398 781.3 199.764 781.214 199.182 781.042C198.601 780.87 198.077 780.596 197.61 780.219C197.152 779.834 196.759 779.335 196.431 778.721C196.103 778.107 195.854 777.361 195.682 776.485C195.51 775.609 195.424 774.585 195.424 773.414V770.688C195.424 769.222 195.555 767.993 195.817 767.003C196.087 766.012 196.468 765.217 196.959 764.62C197.45 764.014 198.04 763.58 198.728 763.318C199.424 763.055 200.202 762.924 201.062 762.924C201.758 762.924 202.397 763.01 202.978 763.182C203.568 763.346 204.092 763.612 204.55 763.981C205.009 764.341 205.398 764.824 205.717 765.43C206.045 766.028 206.294 766.761 206.466 767.629C206.638 768.497 206.724 769.516 206.724 770.688ZM204.44 773.783V770.307C204.44 769.504 204.391 768.8 204.292 768.194C204.202 767.58 204.067 767.056 203.887 766.622C203.707 766.188 203.478 765.836 203.199 765.565C202.929 765.295 202.614 765.099 202.253 764.976C201.901 764.845 201.504 764.779 201.062 764.779C200.521 764.779 200.042 764.882 199.625 765.086C199.207 765.283 198.855 765.598 198.568 766.032C198.29 766.466 198.077 767.035 197.93 767.74C197.782 768.444 197.708 769.299 197.708 770.307V773.783C197.708 774.585 197.753 775.294 197.844 775.908C197.942 776.522 198.085 777.054 198.273 777.505C198.462 777.947 198.691 778.311 198.961 778.598C199.232 778.885 199.543 779.097 199.895 779.237C200.255 779.368 200.652 779.433 201.086 779.433C201.643 779.433 202.13 779.327 202.548 779.114C202.966 778.901 203.314 778.569 203.592 778.119C203.879 777.66 204.092 777.075 204.231 776.362C204.37 775.642 204.44 774.782 204.44 773.783Z" fill="black"/>
<rect width="421" height="77" transform="translate(24 39)" fill="#47B7E7"/>
</g>
<defs>
<filter id="filter0_ii_201_24" x="-23" y="11" width="516" height="992" filterUnits="userSpaceOnUse" color-interpolation-filters="sRGB">
<feFlood flood-opacity="0" result="BackgroundImageFix"/>
<feBlend mode="normal" in="SourceGraphic" in2="BackgroundImageFix" result="shape"/>
<feColorMatrix in="SourceAlpha" type="matrix" values="0 0 0 0 0 0 0 0 0 0 0 0 0 0 0 0 0 0 127 0" result="hardAlpha"/>
<feOffset dx="30" dy="2"/>
<feGaussianBlur stdDeviation="15"/>
<feComposite in2="hardAlpha" operator="arithmetic" k2="-1" k3="1"/>
<feColorMatrix type="matrix" values="0 0 0 0 0.0333333 0 0 0 0 0.0333333 0 0 0 0 0.0333333 0 0 0 0.5 0"/>
<feBlend mode="normal" in2="shape" result="effect1_innerShadow_201_24"/>
<feColorMatrix in="SourceAlpha" type="matrix" values="0 0 0 0 0 0 0 0 0 0 0 0 0 0 0 0 0 0 127 0" result="hardAlpha"/>
<feOffset dx="-30" dy="-2"/>
<feGaussianBlur stdDeviation="15"/>
<feComposite in2="hardAlpha" operator="arithmetic" k2="-1" k3="1"/>
<feColorMatrix type="matrix" values="0 0 0 0 1 0 0 0 0 1 0 0 0 0 1 0 0 0 0.05 0"/>
<feBlend mode="normal" in2="effect1_innerShadow_201_24" result="effect2_innerShadow_201_24"/>
</filter>
<linearGradient id="paint0_linear_201_24" x1="235" y1="13" x2="235" y2="1001" gradientUnits="userSpaceOnUse">
<stop stop-color="#0E0E0E"/>
<stop offset="1" stop-color="#3C3C3C"/>
</linearGradient>
<clipPath id="clip0_201_24">
<rect width="470" height="1014" rx="50" fill="white"/>
</clipPath>
</defs>
</svg>
