<svg width="470" height="1014" viewBox="0 0 470 1014" fill="none" xmlns="http://www.w3.org/2000/svg">
<rect width="470" height="1014" rx="50" fill="#2D2D2D"/>
<g filter="url(#filter0_ii_201_98)">
<rect x="7" y="13" width="456" height="988" rx="50" fill="#2D2D2D"/>
</g>
<rect x="7.25" y="13.25" width="455.5" height="987.5" rx="49.75" stroke="url(#paint0_linear_201_98)" stroke-width="0.5"/>
<rect x="96" width="7" height="13" fill="#131313"/>
<rect x="366" width="7" height="13" fill="#131313"/>
<rect x="96" y="1001" width="7" height="13" fill="#131313"/>
<rect x="366" y="1001" width="7" height="13" fill="#131313"/>
<rect x="226.632" y="25" width="3.63158" height="3.63158" rx="1.81579" fill="#131313"/>
<rect x="233.263" y="25" width="3.63158" height="3.63158" rx="1.81579" fill="#131313"/>
<rect x="239.895" y="25" width="3.63158" height="3.63158" rx="1.81579" fill="#131313"/>
<rect x="246.526" y="25" width="3.63158" height="3.63158" rx="1.81579" fill="#131313"/>
<rect x="220" y="25" width="3.63158" height="3.63158" rx="1.81579" fill="#131313"/>
<path d="M69.5601 505.664C69.5601 518.464 79.8641 528.64 92.6641 528.64C98.3601 528.64 103.864 526.656 108.216 522.432C108.664 521.984 108.792 521.152 108.28 520.704L104.312 516.608C103.928 516.224 103.224 516.16 102.712 516.608C100.024 518.784 96.7601 520.256 92.9201 520.256C84.7281 520.256 78.5841 513.472 78.5841 505.472C78.5841 497.408 84.6641 490.56 92.8561 490.56C96.4401 490.56 100.024 491.968 102.712 494.336C103.224 494.848 103.864 494.848 104.312 494.336L108.216 490.304C108.728 489.792 108.728 489.024 108.152 488.512C103.8 484.608 99.1281 482.56 92.6641 482.56C79.8641 482.56 69.5601 492.864 69.5601 505.664Z" fill="white"/>
<path d="M113.903 526.784C113.903 527.424 114.479 528 115.119 528H120.495C121.135 528 121.711 527.424 121.711 526.784V484.416C121.711 483.776 121.135 483.2 120.495 483.2H115.119C114.479 483.2 113.903 483.776 113.903 484.416V526.784Z" fill="white"/>
<path d="M127.547 519.872C127.547 525.312 131.067 528.64 136.187 528.64C140.155 528.64 142.523 526.72 143.995 525.376L144.763 527.104C145.083 527.808 145.403 528 145.851 528H148.155C148.795 528 149.371 527.424 149.371 526.784V512.896C149.371 505.92 147.515 501.76 139.515 501.76C135.419 501.76 131.323 502.784 130.811 502.976C130.235 503.168 129.723 503.616 129.915 504.576L130.491 507.904C130.619 508.736 131.067 509.312 131.963 509.056C133.435 508.608 136.763 508.096 139.131 508.096C141.499 508.096 142.523 509.248 142.459 512.512C142.459 512.512 140.347 511.808 137.787 511.808C131.259 511.808 127.547 515.328 127.547 519.872ZM134.587 519.872C134.587 517.824 136.251 516.416 138.747 516.416C140.603 516.416 142.331 517.184 142.331 517.184V520.704C141.947 521.472 139.963 523.2 137.915 523.2C135.931 523.2 134.587 521.792 134.587 519.872Z" fill="white"/>
<path d="M163.819 526.208L154.731 545.472C154.283 546.368 154.859 547.2 155.819 547.2H161.323C161.835 547.2 162.219 546.816 162.411 546.432L181.995 504.064C182.443 503.232 181.931 502.4 180.907 502.4H175.787C175.019 502.4 174.571 502.464 174.251 503.104L167.851 517.568H167.787L161.323 503.104C161.131 502.72 160.811 502.4 160.235 502.4H154.475C153.515 502.4 153.003 503.232 153.387 504.064L163.819 526.208Z" fill="white"/>
<path d="M199.505 526.528C199.377 527.424 199.889 528 200.721 528H206.481C207.057 528 207.569 527.488 207.633 527.04L211.345 502.784C211.409 502.784 211.537 502.784 211.537 502.784L222.865 527.936C223.057 528.32 223.377 528.64 223.953 528.64H225.105C225.681 528.64 226.065 528.32 226.193 527.936L237.393 502.784C237.393 502.784 237.521 502.784 237.585 502.784L241.361 527.04C241.489 527.488 242.001 528 242.577 528H248.401C249.233 528 249.745 527.424 249.553 526.528L242.001 483.52C241.937 483.008 241.553 482.56 240.849 482.56H239.825C239.249 482.56 238.929 482.816 238.737 483.2L224.657 513.408C224.593 513.408 224.593 513.408 224.465 513.408L210.385 483.2C210.193 482.816 209.809 482.56 209.297 482.56H208.273C207.569 482.56 207.185 483.008 207.121 483.52L199.505 526.528Z" fill="white"/>
<path d="M253.544 515.136C253.544 522.496 259.432 528.64 266.664 528.64C273.896 528.64 279.784 522.496 279.784 515.136C279.784 507.904 273.896 501.76 266.664 501.76C259.432 501.76 253.544 507.904 253.544 515.136ZM260.52 515.136C260.52 511.552 263.208 508.672 266.664 508.672C270.056 508.672 272.808 511.552 272.808 515.136C272.808 518.784 270.056 521.728 266.664 521.728C263.208 521.728 260.52 518.784 260.52 515.136Z" fill="white"/>
<path d="M283.481 515.2C283.481 522.88 289.817 528.64 297.049 528.64C301.593 528.64 304.985 526.656 307.161 523.264C307.609 522.624 307.353 521.984 306.713 521.472L303.961 519.104C303.449 518.72 302.809 518.848 302.361 519.296C301.209 520.384 299.993 521.728 297.241 521.728C293.785 521.728 291.033 518.848 291.033 515.2C291.033 511.616 293.849 508.672 297.305 508.672C299.097 508.672 300.697 509.568 301.721 510.72C302.169 511.104 302.745 511.424 303.321 510.912L306.265 508.096C306.905 507.648 307.033 506.88 306.585 506.304C304.153 503.36 301.081 501.76 297.113 501.76C289.945 501.76 283.481 507.648 283.481 515.2Z" fill="white"/>
<path d="M312.715 526.784C312.715 527.424 313.291 528 313.931 528H319.371C320.011 528 320.587 527.424 320.587 526.784V515.968L330.699 527.488C330.891 527.744 331.403 528 331.787 528H338.699C339.787 528 340.171 526.912 339.531 526.208L328.139 513.984L337.675 504.256C338.315 503.552 337.931 502.4 336.843 502.4H331.019C330.315 502.4 329.867 502.784 329.419 503.168L320.587 512.128V484.416C320.587 483.776 320.011 483.2 319.371 483.2H313.931C313.291 483.2 312.715 483.776 312.715 484.416V526.784Z" fill="white"/>
<path d="M343.205 516.032C343.205 522.56 346.085 528.64 354.021 528.64C359.077 528.64 361.445 525.952 362.597 524.928L363.365 527.04C363.557 527.552 363.941 528 364.581 528H366.949C367.589 528 368.165 527.424 368.165 526.784V503.616C368.165 502.912 367.589 502.4 366.949 502.4H362.085C361.061 502.4 360.677 502.656 360.677 503.616V516.928C360.293 519.232 358.245 521.728 355.557 521.728C352.613 521.728 350.885 519.616 350.885 516.224V503.616C350.885 502.912 350.309 502.4 349.669 502.4H344.421C343.781 502.4 343.205 502.912 343.205 503.616V516.032Z" fill="white"/>
<path d="M383.712 527.232C384.608 527.744 386.912 528.64 389.408 528.64C396.32 528.64 402.08 522.752 402.08 515.2C402.08 507.84 396.768 501.76 389.728 501.76C385.568 501.76 382.432 504 381.472 505.28L380.64 503.168C380.448 502.656 380 502.4 379.552 502.4H377.056C376.416 502.4 375.84 502.912 375.84 503.616V545.984C375.84 546.624 376.416 547.2 377.056 547.2H382.176C383.328 547.2 383.712 546.752 383.712 545.984V527.232ZM383.392 520.256V512.576C383.776 511.232 385.376 508.672 388.64 508.672C392.16 508.672 394.592 511.616 394.592 515.2C394.592 518.784 391.968 521.728 388.384 521.728C385.184 521.728 383.392 520.256 383.392 520.256Z" fill="white"/>
<g clip-path="url(#clip0_201_98)">
<rect width="421" height="935.555" transform="translate(24 39)" fill="white"/>
<path d="M56.8817 159.052L63.099 171.075L69.3327 159.052H72.9348L64.678 174.052V183H61.5035V174.052L53.2467 159.052H56.8817ZM73.6585 174.299V173.921C73.6585 172.638 73.8449 171.448 74.2177 170.352C74.5905 169.244 75.1278 168.285 75.8296 167.473C76.5313 166.651 77.3812 166.015 78.379 165.565C79.3768 165.105 80.4953 164.875 81.7343 164.875C82.9844 164.875 84.1083 165.105 85.1061 165.565C86.1149 166.015 86.9702 166.651 87.672 167.473C88.3847 168.285 88.9275 169.244 89.3003 170.352C89.6732 171.448 89.8596 172.638 89.8596 173.921V174.299C89.8596 175.582 89.6732 176.772 89.3003 177.868C88.9275 178.965 88.3847 179.924 87.672 180.747C86.9702 181.558 86.1204 182.194 85.1226 182.655C84.1357 183.104 83.0173 183.329 81.7672 183.329C80.5172 183.329 79.3933 183.104 78.3954 182.655C77.3976 182.194 76.5423 181.558 75.8296 180.747C75.1278 179.924 74.5905 178.965 74.2177 177.868C73.8449 176.772 73.6585 175.582 73.6585 174.299ZM76.7013 173.921V174.299C76.7013 175.187 76.8055 176.026 77.0138 176.816C77.2222 177.594 77.5347 178.285 77.9513 178.888C78.379 179.491 78.9108 179.968 79.5468 180.319C80.1828 180.659 80.9229 180.829 81.7672 180.829C82.6006 180.829 83.3298 180.659 83.9548 180.319C84.5908 179.968 85.1171 179.491 85.5338 178.888C85.9505 178.285 86.263 177.594 86.4713 176.816C86.6906 176.026 86.8003 175.187 86.8003 174.299V173.921C86.8003 173.044 86.6906 172.216 86.4713 171.437C86.263 170.648 85.945 169.951 85.5173 169.348C85.1007 168.734 84.5743 168.252 83.9384 167.901C83.3133 167.55 82.5787 167.375 81.7343 167.375C80.901 167.375 80.1663 167.55 79.5303 167.901C78.9053 168.252 78.379 168.734 77.9513 169.348C77.5347 169.951 77.2222 170.648 77.0138 171.437C76.8055 172.216 76.7013 173.044 76.7013 173.921ZM104.564 178.888V165.203H107.623V183H104.712L104.564 178.888ZM105.14 175.138L106.406 175.105C106.406 176.289 106.28 177.386 106.028 178.395C105.787 179.392 105.392 180.259 104.844 180.993C104.295 181.728 103.577 182.304 102.689 182.72C101.801 183.126 100.721 183.329 99.4486 183.329C98.5824 183.329 97.7874 183.203 97.0637 182.951C96.351 182.698 95.7369 182.309 95.2216 181.783C94.7062 181.257 94.306 180.571 94.0209 179.727C93.7467 178.883 93.6097 177.868 93.6097 176.684V165.203H96.6525V176.717C96.6525 177.517 96.7402 178.181 96.9157 178.707C97.1021 179.222 97.3488 179.634 97.6558 179.941C97.9738 180.237 98.3247 180.445 98.7085 180.566C99.1032 180.686 99.509 180.747 99.9256 180.747C101.22 180.747 102.245 180.5 103.001 180.006C103.758 179.502 104.301 178.828 104.63 177.983C104.97 177.128 105.14 176.18 105.14 175.138ZM115.304 168V183H112.262V165.203H115.222L115.304 168ZM120.864 165.105L120.847 167.934C120.595 167.879 120.354 167.846 120.124 167.835C119.904 167.813 119.652 167.802 119.367 167.802C118.665 167.802 118.046 167.912 117.508 168.131C116.971 168.35 116.516 168.657 116.143 169.052C115.77 169.447 115.474 169.918 115.255 170.467C115.047 171.004 114.91 171.596 114.844 172.243L113.989 172.737C113.989 171.662 114.093 170.653 114.301 169.71C114.52 168.767 114.855 167.934 115.304 167.21C115.754 166.475 116.324 165.905 117.015 165.5C117.717 165.083 118.55 164.875 119.515 164.875C119.734 164.875 119.986 164.902 120.272 164.957C120.557 165.001 120.754 165.05 120.864 165.105ZM142.394 178.279C142.394 177.841 142.295 177.435 142.098 177.062C141.911 176.679 141.522 176.333 140.93 176.026C140.349 175.708 139.472 175.434 138.298 175.204C137.312 174.995 136.418 174.749 135.617 174.464C134.828 174.178 134.154 173.833 133.594 173.427C133.046 173.022 132.624 172.545 132.328 171.996C132.032 171.448 131.884 170.807 131.884 170.072C131.884 169.37 132.037 168.707 132.344 168.082C132.662 167.457 133.106 166.903 133.677 166.421C134.258 165.938 134.954 165.56 135.765 165.286C136.577 165.012 137.481 164.875 138.479 164.875C139.905 164.875 141.122 165.127 142.131 165.631C143.14 166.136 143.913 166.81 144.45 167.654C144.987 168.488 145.256 169.414 145.256 170.434H142.213C142.213 169.94 142.065 169.463 141.769 169.003C141.484 168.531 141.062 168.142 140.502 167.835C139.954 167.528 139.28 167.375 138.479 167.375C137.635 167.375 136.95 167.506 136.423 167.769C135.908 168.022 135.53 168.345 135.288 168.74C135.058 169.134 134.943 169.551 134.943 169.99C134.943 170.319 134.998 170.615 135.108 170.878C135.228 171.13 135.436 171.366 135.733 171.585C136.029 171.794 136.445 171.991 136.983 172.177C137.52 172.364 138.205 172.55 139.039 172.737C140.497 173.066 141.698 173.46 142.641 173.921C143.584 174.381 144.285 174.946 144.746 175.615C145.206 176.284 145.437 177.095 145.437 178.049C145.437 178.828 145.272 179.54 144.943 180.187C144.625 180.834 144.159 181.394 143.545 181.865C142.942 182.326 142.218 182.687 141.374 182.951C140.541 183.203 139.603 183.329 138.562 183.329C136.994 183.329 135.667 183.049 134.581 182.49C133.496 181.931 132.673 181.207 132.114 180.319C131.555 179.431 131.275 178.493 131.275 177.506H134.334C134.378 178.34 134.62 179.003 135.058 179.497C135.497 179.979 136.034 180.324 136.67 180.533C137.306 180.73 137.937 180.829 138.562 180.829C139.395 180.829 140.091 180.719 140.65 180.5C141.221 180.281 141.654 179.979 141.95 179.595C142.246 179.212 142.394 178.773 142.394 178.279ZM156.555 180.829C157.279 180.829 157.948 180.681 158.562 180.385C159.176 180.089 159.681 179.683 160.075 179.168C160.47 178.641 160.695 178.044 160.75 177.375H163.644C163.59 178.428 163.233 179.409 162.575 180.319C161.928 181.218 161.079 181.947 160.026 182.507C158.973 183.055 157.816 183.329 156.555 183.329C155.218 183.329 154.05 183.093 153.052 182.622C152.065 182.15 151.243 181.503 150.585 180.681C149.938 179.858 149.45 178.915 149.121 177.852C148.803 176.777 148.644 175.642 148.644 174.447V173.756C148.644 172.561 148.803 171.432 149.121 170.368C149.45 169.293 149.938 168.345 150.585 167.523C151.243 166.7 152.065 166.053 153.052 165.582C154.05 165.11 155.218 164.875 156.555 164.875C157.948 164.875 159.165 165.16 160.207 165.73C161.249 166.289 162.066 167.057 162.658 168.032C163.261 168.997 163.59 170.094 163.644 171.322H160.75C160.695 170.587 160.487 169.924 160.125 169.332C159.774 168.74 159.291 168.268 158.677 167.917C158.074 167.555 157.367 167.375 156.555 167.375C155.623 167.375 154.839 167.561 154.203 167.934C153.578 168.296 153.08 168.789 152.707 169.414C152.345 170.028 152.082 170.713 151.917 171.47C151.764 172.216 151.687 172.978 151.687 173.756V174.447C151.687 175.226 151.764 175.993 151.917 176.75C152.071 177.506 152.328 178.192 152.69 178.806C153.063 179.42 153.562 179.913 154.187 180.286C154.823 180.648 155.612 180.829 156.555 180.829ZM166.26 174.299V173.921C166.26 172.638 166.446 171.448 166.819 170.352C167.192 169.244 167.729 168.285 168.431 167.473C169.133 166.651 169.982 166.015 170.98 165.565C171.978 165.105 173.097 164.875 174.336 164.875C175.586 164.875 176.71 165.105 177.707 165.565C178.716 166.015 179.571 166.651 180.273 167.473C180.986 168.285 181.529 169.244 181.902 170.352C182.274 171.448 182.461 172.638 182.461 173.921V174.299C182.461 175.582 182.274 176.772 181.902 177.868C181.529 178.965 180.986 179.924 180.273 180.747C179.571 181.558 178.722 182.194 177.724 182.655C176.737 183.104 175.619 183.329 174.368 183.329C173.118 183.329 171.995 183.104 170.997 182.655C169.999 182.194 169.144 181.558 168.431 180.747C167.729 179.924 167.192 178.965 166.819 177.868C166.446 176.772 166.26 175.582 166.26 174.299ZM169.303 173.921V174.299C169.303 175.187 169.407 176.026 169.615 176.816C169.823 177.594 170.136 178.285 170.553 178.888C170.98 179.491 171.512 179.968 172.148 180.319C172.784 180.659 173.524 180.829 174.368 180.829C175.202 180.829 175.931 180.659 176.556 180.319C177.192 179.968 177.718 179.491 178.135 178.888C178.552 178.285 178.864 177.594 179.073 176.816C179.292 176.026 179.402 175.187 179.402 174.299V173.921C179.402 173.044 179.292 172.216 179.073 171.437C178.864 170.648 178.546 169.951 178.119 169.348C177.702 168.734 177.176 168.252 176.54 167.901C175.915 167.55 175.18 167.375 174.336 167.375C173.502 167.375 172.768 167.55 172.132 167.901C171.507 168.252 170.98 168.734 170.553 169.348C170.136 169.951 169.823 170.648 169.615 171.437C169.407 172.216 169.303 173.044 169.303 173.921ZM189.32 168V183H186.277V165.203H189.237L189.32 168ZM194.879 165.105L194.862 167.934C194.61 167.879 194.369 167.846 194.139 167.835C193.919 167.813 193.667 167.802 193.382 167.802C192.68 167.802 192.061 167.912 191.524 168.131C190.986 168.35 190.531 168.657 190.158 169.052C189.786 169.447 189.49 169.918 189.27 170.467C189.062 171.004 188.925 171.596 188.859 172.243L188.004 172.737C188.004 171.662 188.108 170.653 188.316 169.71C188.536 168.767 188.87 167.934 189.32 167.21C189.769 166.475 190.339 165.905 191.03 165.5C191.732 165.083 192.565 164.875 193.53 164.875C193.749 164.875 194.002 164.902 194.287 164.957C194.572 165.001 194.769 165.05 194.879 165.105ZM204.748 183.329C203.509 183.329 202.385 183.121 201.376 182.704C200.378 182.276 199.517 181.679 198.793 180.911C198.081 180.144 197.532 179.233 197.149 178.181C196.765 177.128 196.573 175.977 196.573 174.727V174.036C196.573 172.589 196.787 171.3 197.214 170.171C197.642 169.03 198.223 168.065 198.958 167.276C199.693 166.486 200.526 165.889 201.458 165.483C202.39 165.077 203.355 164.875 204.353 164.875C205.625 164.875 206.721 165.094 207.642 165.532C208.574 165.971 209.337 166.585 209.929 167.375C210.521 168.153 210.959 169.074 211.244 170.138C211.53 171.19 211.672 172.342 211.672 173.592V174.957H198.382V172.473H208.629V172.243C208.585 171.454 208.421 170.686 208.136 169.94C207.862 169.195 207.423 168.581 206.82 168.098C206.217 167.616 205.395 167.375 204.353 167.375C203.662 167.375 203.026 167.523 202.445 167.819C201.864 168.104 201.365 168.531 200.948 169.102C200.531 169.672 200.208 170.368 199.978 171.19C199.747 172.013 199.632 172.961 199.632 174.036V174.727C199.632 175.571 199.747 176.366 199.978 177.112C200.219 177.846 200.564 178.493 201.014 179.053C201.474 179.612 202.028 180.05 202.675 180.368C203.333 180.686 204.079 180.845 204.912 180.845C205.987 180.845 206.897 180.626 207.642 180.187C208.388 179.749 209.04 179.162 209.6 178.428L211.442 179.891C211.058 180.473 210.57 181.026 209.978 181.553C209.386 182.079 208.657 182.507 207.79 182.836C206.935 183.164 205.921 183.329 204.748 183.329Z" fill="black"/>
<path d="M53 186.29H212.906V187.934H53V186.29Z" fill="black"/>
<path d="M116.652 315.728V318H106.115V315.728H116.652ZM106.665 296.926V318H103.872V296.926H106.665ZM118.737 310.343V310.01C118.737 308.881 118.901 307.834 119.229 306.869C119.557 305.895 120.03 305.051 120.647 304.336C121.265 303.613 122.013 303.053 122.891 302.657C123.769 302.252 124.753 302.05 125.843 302.05C126.943 302.05 127.932 302.252 128.811 302.657C129.698 303.053 130.451 303.613 131.069 304.336C131.696 305.051 132.173 305.895 132.501 306.869C132.83 307.834 132.994 308.881 132.994 310.01V310.343C132.994 311.472 132.83 312.519 132.501 313.484C132.173 314.449 131.696 315.293 131.069 316.017C130.451 316.731 129.703 317.291 128.825 317.696C127.957 318.092 126.972 318.289 125.872 318.289C124.772 318.289 123.783 318.092 122.905 317.696C122.027 317.291 121.274 316.731 120.647 316.017C120.03 315.293 119.557 314.449 119.229 313.484C118.901 312.519 118.737 311.472 118.737 310.343ZM121.414 310.01V310.343C121.414 311.125 121.506 311.863 121.689 312.558C121.873 313.243 122.148 313.851 122.514 314.381C122.891 314.912 123.359 315.332 123.918 315.641C124.478 315.94 125.129 316.089 125.872 316.089C126.606 316.089 127.247 315.94 127.797 315.641C128.357 315.332 128.82 314.912 129.187 314.381C129.554 313.851 129.829 313.243 130.012 312.558C130.205 311.863 130.301 311.125 130.301 310.343V310.01C130.301 309.238 130.205 308.51 130.012 307.825C129.829 307.13 129.549 306.517 129.172 305.987C128.806 305.446 128.343 305.022 127.783 304.713C127.233 304.404 126.586 304.25 125.843 304.25C125.11 304.25 124.464 304.404 123.904 304.713C123.354 305.022 122.891 305.446 122.514 305.987C122.148 306.517 121.873 307.13 121.689 307.825C121.506 308.51 121.414 309.238 121.414 310.01ZM140.317 315.221L144.341 302.339H146.107L145.76 304.901L141.664 318H139.941L140.317 315.221ZM137.611 302.339L141.041 315.366L141.287 318H139.478L134.933 302.339H137.611ZM149.957 315.264L153.228 302.339H155.892L151.347 318H149.552L149.957 315.264ZM146.498 302.339L150.435 315.004L150.884 318H149.176L144.964 304.872L144.616 302.339H146.498ZM136.67 354.908V357.108H121.443V355.53L130.88 340.926H133.066L130.721 345.152L124.483 354.908H136.67ZM133.732 340.926V362H131.054V340.926H133.732ZM125.814 395.969L123.672 395.419L124.729 384.926H135.541V387.401H127.001L126.364 393.133C126.75 392.911 127.238 392.703 127.826 392.51C128.425 392.317 129.11 392.221 129.882 392.221C130.856 392.221 131.73 392.39 132.501 392.727C133.273 393.055 133.93 393.528 134.47 394.146C135.02 394.763 135.44 395.506 135.729 396.375C136.019 397.243 136.163 398.213 136.163 399.284C136.163 400.297 136.023 401.228 135.744 402.078C135.473 402.927 135.063 403.67 134.513 404.307C133.963 404.934 133.269 405.421 132.429 405.768C131.599 406.116 130.62 406.289 129.491 406.289C128.642 406.289 127.836 406.174 127.074 405.942C126.321 405.701 125.646 405.339 125.047 404.857C124.459 404.364 123.976 403.757 123.6 403.033C123.233 402.299 123.002 401.441 122.905 400.456H125.453C125.568 401.248 125.8 401.913 126.147 402.454C126.495 402.994 126.948 403.404 127.508 403.684C128.077 403.954 128.738 404.089 129.491 404.089C130.128 404.089 130.692 403.978 131.184 403.757C131.676 403.535 132.091 403.216 132.429 402.801C132.767 402.386 133.023 401.885 133.196 401.296C133.38 400.707 133.471 400.046 133.471 399.313C133.471 398.647 133.38 398.03 133.196 397.46C133.013 396.891 132.738 396.394 132.371 395.969C132.014 395.545 131.575 395.217 131.054 394.985C130.533 394.744 129.935 394.623 129.259 394.623C128.362 394.623 127.682 394.744 127.218 394.985C126.765 395.226 126.297 395.555 125.814 395.969ZM132.704 429.897H132.936V432.169H132.704C131.286 432.169 130.099 432.401 129.143 432.864C128.188 433.317 127.431 433.93 126.871 434.702C126.311 435.464 125.906 436.323 125.655 437.279C125.414 438.234 125.293 439.204 125.293 440.188V443.285C125.293 444.221 125.404 445.051 125.626 445.775C125.848 446.489 126.152 447.092 126.538 447.584C126.924 448.076 127.358 448.448 127.841 448.699C128.333 448.95 128.844 449.075 129.375 449.075C129.993 449.075 130.543 448.959 131.025 448.728C131.508 448.486 131.913 448.153 132.241 447.729C132.579 447.295 132.834 446.783 133.008 446.195C133.182 445.606 133.269 444.959 133.269 444.255C133.269 443.628 133.191 443.025 133.037 442.446C132.883 441.857 132.646 441.336 132.328 440.883C132.009 440.419 131.609 440.058 131.126 439.797C130.654 439.527 130.089 439.392 129.433 439.392C128.69 439.392 127.995 439.575 127.349 439.942C126.712 440.299 126.186 440.772 125.771 441.36C125.366 441.939 125.134 442.571 125.076 443.256L123.658 443.242C123.793 442.161 124.044 441.24 124.41 440.477C124.787 439.705 125.25 439.078 125.8 438.596C126.36 438.104 126.982 437.747 127.667 437.525C128.362 437.293 129.095 437.177 129.867 437.177C130.919 437.177 131.826 437.375 132.588 437.771C133.351 438.166 133.978 438.697 134.47 439.363C134.962 440.019 135.324 440.762 135.555 441.592C135.797 442.412 135.917 443.256 135.917 444.125C135.917 445.119 135.777 446.05 135.498 446.918C135.218 447.787 134.798 448.549 134.238 449.205C133.688 449.861 133.008 450.373 132.198 450.739C131.387 451.106 130.446 451.289 129.375 451.289C128.236 451.289 127.243 451.058 126.393 450.595C125.544 450.122 124.84 449.495 124.28 448.713C123.721 447.931 123.301 447.063 123.021 446.108C122.741 445.152 122.601 444.183 122.601 443.198V441.939C122.601 440.453 122.751 438.996 123.05 437.568C123.349 436.14 123.865 434.847 124.599 433.689C125.342 432.531 126.369 431.61 127.682 430.924C128.994 430.239 130.668 429.897 132.704 429.897ZM136.048 473.926V475.431L127.32 495H124.497L133.211 476.126H121.805V473.926H136.048ZM135.715 534.297C135.715 535.581 135.416 536.671 134.817 537.568C134.229 538.456 133.428 539.132 132.415 539.595C131.411 540.058 130.277 540.289 129.013 540.289C127.749 540.289 126.611 540.058 125.597 539.595C124.584 539.132 123.783 538.456 123.195 537.568C122.606 536.671 122.312 535.581 122.312 534.297C122.312 533.458 122.471 532.691 122.789 531.996C123.117 531.291 123.576 530.679 124.164 530.158C124.763 529.637 125.467 529.236 126.278 528.956C127.098 528.667 128 528.522 128.984 528.522C130.277 528.522 131.43 528.773 132.444 529.275C133.457 529.767 134.253 530.447 134.832 531.316C135.42 532.184 135.715 533.178 135.715 534.297ZM133.023 534.239C133.023 533.458 132.854 532.768 132.516 532.17C132.178 531.562 131.705 531.089 131.097 530.751C130.49 530.413 129.785 530.244 128.984 530.244C128.164 530.244 127.455 530.413 126.857 530.751C126.268 531.089 125.81 531.562 125.482 532.17C125.153 532.768 124.989 533.458 124.989 534.239C124.989 535.05 125.149 535.745 125.467 536.324C125.795 536.893 126.258 537.332 126.857 537.641C127.464 537.94 128.183 538.089 129.013 538.089C129.843 538.089 130.557 537.94 131.155 537.641C131.754 537.332 132.212 536.893 132.53 536.324C132.858 535.745 133.023 535.05 133.023 534.239ZM135.223 524.411C135.223 525.434 134.952 526.356 134.412 527.176C133.872 527.996 133.133 528.643 132.198 529.115C131.262 529.588 130.2 529.825 129.013 529.825C127.807 529.825 126.731 529.588 125.785 529.115C124.849 528.643 124.116 527.996 123.585 527.176C123.055 526.356 122.789 525.434 122.789 524.411C122.789 523.186 123.055 522.144 123.585 521.285C124.126 520.426 124.864 519.77 125.8 519.317C126.736 518.863 127.802 518.636 128.999 518.636C130.205 518.636 131.276 518.863 132.212 519.317C133.148 519.77 133.881 520.426 134.412 521.285C134.952 522.144 135.223 523.186 135.223 524.411ZM132.545 524.455C132.545 523.75 132.395 523.128 132.096 522.588C131.797 522.047 131.382 521.623 130.851 521.314C130.321 520.996 129.703 520.836 128.999 520.836C128.294 520.836 127.677 520.986 127.146 521.285C126.625 521.574 126.215 521.989 125.916 522.53C125.626 523.07 125.482 523.712 125.482 524.455C125.482 525.179 125.626 525.811 125.916 526.351C126.215 526.891 126.63 527.311 127.161 527.61C127.691 527.909 128.309 528.059 129.013 528.059C129.718 528.059 130.33 527.909 130.851 527.61C131.382 527.311 131.797 526.891 132.096 526.351C132.395 525.811 132.545 525.179 132.545 524.455ZM125.091 581.757H125.366C126.91 581.757 128.164 581.539 129.129 581.105C130.094 580.671 130.837 580.087 131.358 579.354C131.879 578.62 132.236 577.795 132.429 576.879C132.622 575.952 132.719 575.002 132.719 574.027V570.8C132.719 569.844 132.608 568.995 132.386 568.252C132.173 567.509 131.874 566.887 131.488 566.385C131.112 565.883 130.683 565.502 130.2 565.242C129.718 564.981 129.206 564.851 128.666 564.851C128.048 564.851 127.493 564.976 127.001 565.227C126.519 565.468 126.109 565.811 125.771 566.255C125.443 566.699 125.192 567.22 125.018 567.818C124.845 568.416 124.758 569.068 124.758 569.772C124.758 570.399 124.835 571.007 124.989 571.596C125.144 572.184 125.38 572.715 125.699 573.188C126.017 573.661 126.413 574.037 126.886 574.317C127.368 574.587 127.932 574.722 128.579 574.722C129.177 574.722 129.737 574.606 130.258 574.375C130.789 574.134 131.257 573.81 131.662 573.405C132.077 572.99 132.405 572.522 132.646 572.001C132.897 571.48 133.042 570.935 133.08 570.365H134.354C134.354 571.166 134.195 571.958 133.876 572.739C133.568 573.511 133.133 574.216 132.574 574.852C132.014 575.489 131.358 576.001 130.605 576.387C129.853 576.763 129.033 576.951 128.145 576.951C127.103 576.951 126.2 576.748 125.438 576.343C124.676 575.938 124.049 575.398 123.556 574.722C123.074 574.047 122.712 573.294 122.471 572.464C122.239 571.625 122.124 570.776 122.124 569.917C122.124 568.913 122.263 567.972 122.543 567.094C122.823 566.216 123.238 565.444 123.788 564.778C124.338 564.103 125.018 563.577 125.829 563.201C126.649 562.824 127.595 562.636 128.666 562.636C129.872 562.636 130.9 562.877 131.749 563.36C132.598 563.842 133.288 564.489 133.819 565.299C134.359 566.11 134.755 567.022 135.005 568.035C135.256 569.048 135.382 570.09 135.382 571.161V572.131C135.382 573.222 135.309 574.331 135.165 575.46C135.03 576.58 134.764 577.651 134.369 578.674C133.983 579.696 133.418 580.613 132.675 581.424C131.932 582.225 130.962 582.861 129.766 583.334C128.579 583.797 127.112 584.029 125.366 584.029H125.091V581.757ZM122.891 607.81V629H120.213V611.153L114.814 613.122V610.705L122.471 607.81H122.891ZM143.994 616.784V619.997C143.994 621.724 143.839 623.181 143.531 624.368C143.222 625.555 142.778 626.51 142.199 627.234C141.62 627.958 140.921 628.484 140.1 628.812C139.29 629.13 138.373 629.289 137.35 629.289C136.54 629.289 135.792 629.188 135.107 628.986C134.422 628.783 133.804 628.46 133.254 628.016C132.714 627.562 132.251 626.974 131.865 626.25C131.479 625.526 131.184 624.648 130.982 623.616C130.779 622.583 130.678 621.377 130.678 619.997V616.784C130.678 615.057 130.832 613.609 131.141 612.442C131.459 611.274 131.908 610.338 132.487 609.634C133.066 608.92 133.761 608.408 134.571 608.099C135.391 607.791 136.308 607.636 137.321 607.636C138.142 607.636 138.894 607.738 139.579 607.94C140.274 608.133 140.892 608.447 141.432 608.881C141.972 609.306 142.431 609.875 142.807 610.589C143.193 611.293 143.487 612.157 143.69 613.18C143.893 614.203 143.994 615.404 143.994 616.784ZM141.302 620.431V616.335C141.302 615.39 141.244 614.56 141.128 613.846C141.022 613.122 140.863 612.504 140.65 611.993C140.438 611.482 140.168 611.067 139.84 610.748C139.521 610.43 139.15 610.198 138.725 610.053C138.31 609.899 137.842 609.822 137.321 609.822C136.684 609.822 136.12 609.942 135.628 610.184C135.136 610.415 134.721 610.787 134.383 611.298C134.055 611.81 133.804 612.48 133.63 613.31C133.457 614.14 133.37 615.148 133.37 616.335V620.431C133.37 621.377 133.423 622.212 133.529 622.935C133.645 623.659 133.814 624.286 134.036 624.817C134.258 625.338 134.528 625.767 134.846 626.105C135.165 626.443 135.531 626.694 135.946 626.858C136.371 627.012 136.839 627.089 137.35 627.089C138.006 627.089 138.581 626.964 139.073 626.713C139.565 626.462 139.975 626.071 140.303 625.541C140.641 625 140.892 624.31 141.056 623.471C141.22 622.622 141.302 621.609 141.302 620.431ZM122.891 651.81V673H120.213V655.153L114.814 657.122V654.705L122.471 651.81H122.891ZM139.565 651.81V673H136.887V655.153L131.488 657.122V654.705L139.145 651.81H139.565ZM122.891 696.81V718H120.213V700.153L114.814 702.122V699.705L122.471 696.81H122.891ZM144.573 715.8V718H130.779V716.075L137.683 708.389C138.532 707.444 139.188 706.643 139.652 705.987C140.124 705.321 140.453 704.727 140.636 704.206C140.829 703.675 140.925 703.135 140.925 702.585C140.925 701.89 140.781 701.263 140.491 700.703C140.211 700.134 139.796 699.681 139.246 699.343C138.696 699.005 138.031 698.836 137.249 698.836C136.313 698.836 135.531 699.02 134.904 699.386C134.287 699.743 133.823 700.245 133.515 700.892C133.206 701.538 133.051 702.281 133.051 703.121H130.374C130.374 701.934 130.634 700.848 131.155 699.864C131.676 698.88 132.448 698.098 133.471 697.519C134.494 696.931 135.753 696.636 137.249 696.636C138.581 696.636 139.719 696.873 140.665 697.345C141.61 697.809 142.334 698.465 142.836 699.314C143.347 700.153 143.603 701.138 143.603 702.267C143.603 702.884 143.497 703.511 143.285 704.148C143.082 704.776 142.797 705.403 142.431 706.03C142.074 706.657 141.654 707.275 141.171 707.883C140.699 708.491 140.192 709.089 139.652 709.677L134.007 715.8H144.573Z" fill="black"/>
<path d="M348.641 306.146H350.551C351.487 306.146 352.259 305.991 352.867 305.683C353.485 305.364 353.943 304.935 354.242 304.394C354.551 303.844 354.705 303.227 354.705 302.542C354.705 301.731 354.57 301.051 354.3 300.501C354.03 299.951 353.625 299.536 353.084 299.256C352.544 298.976 351.859 298.836 351.029 298.836C350.276 298.836 349.61 298.986 349.031 299.285C348.462 299.574 348.013 299.989 347.685 300.53C347.367 301.07 347.208 301.707 347.208 302.44H344.53C344.53 301.369 344.8 300.395 345.341 299.517C345.881 298.639 346.638 297.939 347.613 297.418C348.597 296.897 349.736 296.636 351.029 296.636C352.303 296.636 353.417 296.863 354.372 297.317C355.328 297.76 356.071 298.426 356.601 299.314C357.132 300.192 357.398 301.287 357.398 302.6C357.398 303.13 357.272 303.7 357.021 304.308C356.78 304.906 356.399 305.465 355.878 305.987C355.366 306.508 354.701 306.937 353.88 307.275C353.06 307.603 352.076 307.767 350.928 307.767H348.641V306.146ZM348.641 308.346V306.739H350.928C352.269 306.739 353.379 306.898 354.257 307.217C355.135 307.535 355.825 307.96 356.326 308.491C356.838 309.021 357.195 309.605 357.398 310.242C357.61 310.869 357.716 311.496 357.716 312.124C357.716 313.108 357.547 313.981 357.209 314.743C356.881 315.506 356.413 316.152 355.805 316.683C355.207 317.214 354.503 317.614 353.692 317.884C352.882 318.154 351.999 318.289 351.043 318.289C350.127 318.289 349.263 318.159 348.453 317.899C347.652 317.638 346.942 317.262 346.325 316.77C345.707 316.268 345.225 315.655 344.877 314.931C344.53 314.198 344.356 313.363 344.356 312.427H347.034C347.034 313.161 347.193 313.803 347.512 314.353C347.84 314.903 348.303 315.332 348.901 315.641C349.509 315.94 350.223 316.089 351.043 316.089C351.864 316.089 352.568 315.95 353.157 315.67C353.755 315.38 354.213 314.946 354.532 314.367C354.86 313.788 355.024 313.06 355.024 312.181C355.024 311.303 354.84 310.584 354.474 310.025C354.107 309.455 353.586 309.036 352.911 308.766C352.245 308.486 351.458 308.346 350.551 308.346H348.641ZM358.02 356.297C358.02 357.581 357.721 358.671 357.123 359.568C356.534 360.456 355.733 361.132 354.72 361.595C353.716 362.058 352.582 362.289 351.318 362.289C350.054 362.289 348.916 362.058 347.903 361.595C346.889 361.132 346.088 360.456 345.5 359.568C344.911 358.671 344.617 357.581 344.617 356.297C344.617 355.458 344.776 354.691 345.095 353.996C345.423 353.291 345.881 352.679 346.47 352.158C347.068 351.637 347.772 351.236 348.583 350.956C349.403 350.667 350.305 350.522 351.289 350.522C352.582 350.522 353.736 350.773 354.749 351.275C355.762 351.767 356.558 352.447 357.137 353.316C357.726 354.184 358.02 355.178 358.02 356.297ZM355.328 356.239C355.328 355.458 355.159 354.768 354.821 354.17C354.483 353.562 354.011 353.089 353.403 352.751C352.795 352.413 352.09 352.244 351.289 352.244C350.469 352.244 349.76 352.413 349.162 352.751C348.573 353.089 348.115 353.562 347.787 354.17C347.459 354.768 347.295 355.458 347.295 356.239C347.295 357.05 347.454 357.745 347.772 358.324C348.1 358.893 348.563 359.332 349.162 359.641C349.77 359.94 350.489 360.089 351.318 360.089C352.148 360.089 352.862 359.94 353.461 359.641C354.059 359.332 354.517 358.893 354.836 358.324C355.164 357.745 355.328 357.05 355.328 356.239ZM357.528 346.411C357.528 347.434 357.258 348.356 356.717 349.176C356.177 349.996 355.439 350.643 354.503 351.115C353.567 351.588 352.505 351.825 351.318 351.825C350.112 351.825 349.036 351.588 348.091 351.115C347.155 350.643 346.421 349.996 345.891 349.176C345.36 348.356 345.095 347.434 345.095 346.411C345.095 345.186 345.36 344.144 345.891 343.285C346.431 342.426 347.169 341.77 348.105 341.317C349.041 340.863 350.107 340.636 351.304 340.636C352.51 340.636 353.581 340.863 354.517 341.317C355.453 341.77 356.187 342.426 356.717 343.285C357.258 344.144 357.528 345.186 357.528 346.411ZM354.85 346.455C354.85 345.75 354.701 345.128 354.401 344.588C354.102 344.047 353.687 343.623 353.157 343.314C352.626 342.996 352.008 342.836 351.304 342.836C350.6 342.836 349.982 342.986 349.451 343.285C348.93 343.574 348.52 343.989 348.221 344.53C347.931 345.07 347.787 345.712 347.787 346.455C347.787 347.179 347.931 347.811 348.221 348.351C348.52 348.891 348.935 349.311 349.466 349.61C349.996 349.909 350.614 350.059 351.318 350.059C352.023 350.059 352.636 349.909 353.157 349.61C353.687 349.311 354.102 348.891 354.401 348.351C354.701 347.811 354.85 347.179 354.85 346.455ZM348.12 395.969L345.977 395.419L347.034 384.926H357.846V387.401H349.306L348.67 393.133C349.056 392.911 349.543 392.703 350.132 392.51C350.73 392.317 351.415 392.221 352.187 392.221C353.161 392.221 354.035 392.39 354.807 392.727C355.579 393.055 356.235 393.528 356.775 394.146C357.325 394.763 357.745 395.506 358.034 396.375C358.324 397.243 358.469 398.213 358.469 399.284C358.469 400.297 358.329 401.228 358.049 402.078C357.779 402.927 357.369 403.67 356.819 404.307C356.269 404.934 355.574 405.421 354.734 405.768C353.904 406.116 352.925 406.289 351.796 406.289C350.947 406.289 350.141 406.174 349.379 405.942C348.626 405.701 347.951 405.339 347.352 404.857C346.764 404.364 346.281 403.757 345.905 403.033C345.538 402.299 345.307 401.441 345.21 400.456H347.758C347.874 401.248 348.105 401.913 348.453 402.454C348.8 402.994 349.253 403.404 349.813 403.684C350.382 403.954 351.043 404.089 351.796 404.089C352.433 404.089 352.997 403.978 353.49 403.757C353.982 403.535 354.397 403.216 354.734 402.801C355.072 402.386 355.328 401.885 355.501 401.296C355.685 400.707 355.776 400.046 355.776 399.313C355.776 398.647 355.685 398.03 355.501 397.46C355.318 396.891 355.043 396.394 354.676 395.969C354.319 395.545 353.88 395.217 353.359 394.985C352.838 394.744 352.24 394.623 351.564 394.623C350.667 394.623 349.987 394.744 349.524 394.985C349.07 395.226 348.602 395.555 348.12 395.969ZM355.009 429.897H355.241V432.169H355.009C353.591 432.169 352.404 432.401 351.449 432.864C350.493 433.317 349.736 433.93 349.176 434.702C348.617 435.464 348.211 436.323 347.96 437.279C347.719 438.234 347.599 439.204 347.599 440.188V443.285C347.599 444.221 347.71 445.051 347.931 445.775C348.153 446.489 348.457 447.092 348.843 447.584C349.229 448.076 349.664 448.448 350.146 448.699C350.638 448.95 351.15 449.075 351.68 449.075C352.298 449.075 352.848 448.959 353.33 448.728C353.813 448.486 354.218 448.153 354.546 447.729C354.884 447.295 355.14 446.783 355.313 446.195C355.487 445.606 355.574 444.959 355.574 444.255C355.574 443.628 355.497 443.025 355.342 442.446C355.188 441.857 354.951 441.336 354.633 440.883C354.315 440.419 353.914 440.058 353.432 439.797C352.959 439.527 352.394 439.392 351.738 439.392C350.995 439.392 350.3 439.575 349.654 439.942C349.017 440.299 348.491 440.772 348.076 441.36C347.671 441.939 347.439 442.571 347.381 443.256L345.963 443.242C346.098 442.161 346.349 441.24 346.716 440.477C347.092 439.705 347.555 439.078 348.105 438.596C348.665 438.104 349.287 437.747 349.972 437.525C350.667 437.293 351.4 437.177 352.172 437.177C353.224 437.177 354.131 437.375 354.893 437.771C355.656 438.166 356.283 438.697 356.775 439.363C357.267 440.019 357.629 440.762 357.861 441.592C358.102 442.412 358.223 443.256 358.223 444.125C358.223 445.119 358.083 446.05 357.803 446.918C357.523 447.787 357.103 448.549 356.544 449.205C355.994 449.861 355.313 450.373 354.503 450.739C353.692 451.106 352.751 451.289 351.68 451.289C350.542 451.289 349.548 451.058 348.699 450.595C347.849 450.122 347.145 449.495 346.585 448.713C346.026 447.931 345.606 447.063 345.326 446.108C345.046 445.152 344.906 444.183 344.906 443.198V441.939C344.906 440.453 345.056 438.996 345.355 437.568C345.654 436.14 346.17 434.847 346.904 433.689C347.647 432.531 348.674 431.61 349.987 430.924C351.299 430.239 352.973 429.897 355.009 429.897ZM345.196 473.81V495H342.518V477.153L337.119 479.122V476.705L344.776 473.81H345.196ZM367.312 487.908V490.108H352.086V488.53L361.523 473.926H363.708L361.363 478.152L355.125 487.908H367.312ZM364.374 473.926V495H361.696V473.926H364.374ZM345.196 518.81V540H342.518V522.153L337.119 524.122V521.705L344.776 518.81H345.196ZM363.346 518.897H363.578V521.169H363.346C361.928 521.169 360.741 521.401 359.786 521.864C358.83 522.317 358.073 522.93 357.513 523.702C356.954 524.464 356.548 525.323 356.297 526.279C356.056 527.234 355.936 528.204 355.936 529.188V532.285C355.936 533.221 356.047 534.051 356.269 534.775C356.49 535.489 356.794 536.092 357.18 536.584C357.566 537.076 358.001 537.448 358.483 537.699C358.975 537.95 359.487 538.075 360.017 538.075C360.635 538.075 361.185 537.959 361.667 537.728C362.15 537.486 362.555 537.153 362.883 536.729C363.221 536.295 363.477 535.783 363.65 535.195C363.824 534.606 363.911 533.959 363.911 533.255C363.911 532.628 363.834 532.025 363.679 531.446C363.525 530.857 363.288 530.336 362.97 529.883C362.652 529.419 362.251 529.058 361.769 528.797C361.296 528.527 360.731 528.392 360.075 528.392C359.332 528.392 358.637 528.575 357.991 528.942C357.354 529.299 356.828 529.772 356.413 530.36C356.008 530.939 355.776 531.571 355.719 532.256L354.3 532.242C354.435 531.161 354.686 530.24 355.053 529.477C355.429 528.705 355.892 528.078 356.442 527.596C357.002 527.104 357.624 526.747 358.309 526.525C359.004 526.293 359.737 526.177 360.509 526.177C361.561 526.177 362.468 526.375 363.231 526.771C363.993 527.166 364.62 527.697 365.112 528.363C365.604 529.019 365.966 529.762 366.198 530.592C366.439 531.412 366.56 532.256 366.56 533.125C366.56 534.119 366.42 535.05 366.14 535.918C365.86 536.787 365.44 537.549 364.881 538.205C364.331 538.861 363.65 539.373 362.84 539.739C362.029 540.106 361.088 540.289 360.017 540.289C358.879 540.289 357.885 540.058 357.036 539.595C356.187 539.122 355.482 538.495 354.922 537.713C354.363 536.931 353.943 536.063 353.663 535.108C353.383 534.152 353.243 533.183 353.243 532.198V530.939C353.243 529.453 353.393 527.996 353.692 526.568C353.991 525.14 354.508 523.847 355.241 522.689C355.984 521.531 357.012 520.61 358.324 519.924C359.636 519.239 361.31 518.897 363.346 518.897ZM347.396 581.757H347.671C349.215 581.757 350.469 581.539 351.434 581.105C352.399 580.671 353.142 580.087 353.663 579.354C354.184 578.62 354.541 577.795 354.734 576.879C354.927 575.952 355.024 575.002 355.024 574.027V570.8C355.024 569.844 354.913 568.995 354.691 568.252C354.479 567.509 354.179 566.887 353.793 566.385C353.417 565.883 352.988 565.502 352.505 565.242C352.023 564.981 351.511 564.851 350.971 564.851C350.353 564.851 349.799 564.976 349.306 565.227C348.824 565.468 348.414 565.811 348.076 566.255C347.748 566.699 347.497 567.22 347.324 567.818C347.15 568.416 347.063 569.068 347.063 569.772C347.063 570.399 347.14 571.007 347.295 571.596C347.449 572.184 347.685 572.715 348.004 573.188C348.322 573.661 348.718 574.037 349.191 574.317C349.673 574.587 350.238 574.722 350.884 574.722C351.482 574.722 352.042 574.606 352.563 574.375C353.094 574.134 353.562 573.81 353.967 573.405C354.382 572.99 354.71 572.522 354.951 572.001C355.202 571.48 355.347 570.935 355.386 570.365H356.659C356.659 571.166 356.5 571.958 356.182 572.739C355.873 573.511 355.439 574.216 354.879 574.852C354.319 575.489 353.663 576.001 352.911 576.387C352.158 576.763 351.338 576.951 350.45 576.951C349.408 576.951 348.506 576.748 347.743 576.343C346.981 575.938 346.354 575.398 345.862 574.722C345.379 574.047 345.017 573.294 344.776 572.464C344.545 571.625 344.429 570.776 344.429 569.917C344.429 568.913 344.569 567.972 344.848 567.094C345.128 566.216 345.543 565.444 346.093 564.778C346.643 564.103 347.324 563.577 348.134 563.201C348.954 562.824 349.9 562.636 350.971 562.636C352.177 562.636 353.205 562.877 354.054 563.36C354.903 563.842 355.593 564.489 356.124 565.299C356.664 566.11 357.06 567.022 357.311 568.035C357.562 569.048 357.687 570.09 357.687 571.161V572.131C357.687 573.222 357.615 574.331 357.47 575.46C357.335 576.58 357.069 577.651 356.674 578.674C356.288 579.696 355.723 580.613 354.98 581.424C354.237 582.225 353.268 582.861 352.071 583.334C350.884 583.797 349.417 584.029 347.671 584.029H347.396V581.757ZM350.204 626.8V629H336.41V627.075L343.314 619.389C344.163 618.444 344.82 617.643 345.283 616.987C345.756 616.321 346.084 615.727 346.267 615.206C346.46 614.675 346.556 614.135 346.556 613.585C346.556 612.89 346.412 612.263 346.122 611.703C345.842 611.134 345.427 610.681 344.877 610.343C344.327 610.005 343.662 609.836 342.88 609.836C341.944 609.836 341.162 610.02 340.535 610.386C339.918 610.743 339.454 611.245 339.146 611.892C338.837 612.538 338.683 613.281 338.683 614.121H336.005C336.005 612.934 336.265 611.848 336.786 610.864C337.307 609.88 338.079 609.098 339.102 608.519C340.125 607.931 341.384 607.636 342.88 607.636C344.212 607.636 345.35 607.873 346.296 608.345C347.242 608.809 347.965 609.465 348.467 610.314C348.978 611.153 349.234 612.138 349.234 613.267C349.234 613.884 349.128 614.511 348.916 615.148C348.713 615.776 348.428 616.403 348.062 617.03C347.705 617.657 347.285 618.275 346.802 618.883C346.33 619.491 345.823 620.089 345.283 620.677L339.638 626.8H350.204ZM366.299 616.784V619.997C366.299 621.724 366.145 623.181 365.836 624.368C365.527 625.555 365.083 626.51 364.504 627.234C363.925 627.958 363.226 628.484 362.406 628.812C361.595 629.13 360.678 629.289 359.655 629.289C358.845 629.289 358.097 629.188 357.412 628.986C356.727 628.783 356.109 628.46 355.559 628.016C355.019 627.562 354.556 626.974 354.17 626.25C353.784 625.526 353.49 624.648 353.287 623.616C353.084 622.583 352.983 621.377 352.983 619.997V616.784C352.983 615.057 353.137 613.609 353.446 612.442C353.765 611.274 354.213 610.338 354.792 609.634C355.371 608.92 356.066 608.408 356.876 608.099C357.697 607.791 358.613 607.636 359.627 607.636C360.447 607.636 361.199 607.738 361.884 607.94C362.579 608.133 363.197 608.447 363.737 608.881C364.278 609.306 364.736 609.875 365.112 610.589C365.498 611.293 365.792 612.157 365.995 613.18C366.198 614.203 366.299 615.404 366.299 616.784ZM363.607 620.431V616.335C363.607 615.39 363.549 614.56 363.433 613.846C363.327 613.122 363.168 612.504 362.956 611.993C362.743 611.482 362.473 611.067 362.145 610.748C361.827 610.43 361.455 610.198 361.031 610.053C360.616 609.899 360.148 609.822 359.627 609.822C358.99 609.822 358.425 609.942 357.933 610.184C357.441 610.415 357.026 610.787 356.688 611.298C356.36 611.81 356.109 612.48 355.936 613.31C355.762 614.14 355.675 615.148 355.675 616.335V620.431C355.675 621.377 355.728 622.212 355.834 622.935C355.95 623.659 356.119 624.286 356.341 624.817C356.563 625.338 356.833 625.767 357.151 626.105C357.47 626.443 357.837 626.694 358.251 626.858C358.676 627.012 359.144 627.089 359.655 627.089C360.312 627.089 360.886 626.964 361.378 626.713C361.87 626.462 362.28 626.071 362.608 625.541C362.946 625 363.197 624.31 363.361 623.471C363.525 622.622 363.607 621.609 363.607 620.431ZM345.196 651.81V673H342.518V655.153L337.119 657.122V654.705L344.776 651.81H345.196ZM361.87 651.81V673H359.192V655.153L353.793 657.122V654.705L361.45 651.81H361.87ZM350.204 715.8V718H336.41V716.075L343.314 708.389C344.163 707.444 344.82 706.643 345.283 705.987C345.756 705.321 346.084 704.727 346.267 704.206C346.46 703.675 346.556 703.135 346.556 702.585C346.556 701.89 346.412 701.263 346.122 700.703C345.842 700.134 345.427 699.681 344.877 699.343C344.327 699.005 343.662 698.836 342.88 698.836C341.944 698.836 341.162 699.02 340.535 699.386C339.918 699.743 339.454 700.245 339.146 700.892C338.837 701.538 338.683 702.281 338.683 703.121H336.005C336.005 701.934 336.265 700.848 336.786 699.864C337.307 698.88 338.079 698.098 339.102 697.519C340.125 696.931 341.384 696.636 342.88 696.636C344.212 696.636 345.35 696.873 346.296 697.345C347.242 697.809 347.965 698.465 348.467 699.314C348.978 700.153 349.234 701.138 349.234 702.267C349.234 702.884 349.128 703.511 348.916 704.148C348.713 704.776 348.428 705.403 348.062 706.03C347.705 706.657 347.285 707.275 346.802 707.883C346.33 708.491 345.823 709.089 345.283 709.677L339.638 715.8H350.204ZM367.312 710.908V713.108H352.086V711.53L361.523 696.926H363.708L361.363 701.152L355.125 710.908H367.312ZM364.374 696.926V718H361.696V696.926H364.374Z" fill="black"/>
<path d="M80.213 235.77H89.1442C90.9754 235.77 92.5489 236.044 93.8647 236.592C95.1915 237.14 96.2113 237.952 96.924 239.026C97.6368 240.101 97.9931 241.422 97.9931 242.99C97.9931 244.273 97.7738 245.375 97.3352 246.296C96.9076 247.206 96.299 247.968 95.5095 248.583C94.731 249.186 93.8154 249.668 92.7627 250.03L91.2002 250.852H83.4368L83.4039 247.004H89.1771C90.0434 247.004 90.7616 246.85 91.3318 246.543C91.902 246.236 92.3296 245.808 92.6147 245.26C92.9108 244.712 93.0588 244.076 93.0588 243.352C93.0588 242.585 92.9162 241.921 92.6312 241.362C92.3461 240.803 91.9129 240.375 91.3318 240.079C90.7506 239.783 90.0214 239.635 89.1442 239.635H85.1474V259.718H80.213V235.77ZM93.6016 259.718L88.1409 249.043L93.3549 249.01L98.8813 259.487V259.718H93.6016ZM100.74 251V250.655C100.74 249.35 100.926 248.149 101.299 247.053C101.672 245.945 102.215 244.986 102.927 244.175C103.64 243.363 104.517 242.733 105.559 242.283C106.601 241.822 107.796 241.592 109.145 241.592C110.493 241.592 111.694 241.822 112.747 242.283C113.799 242.733 114.682 243.363 115.395 244.175C116.119 244.986 116.667 245.945 117.04 247.053C117.413 248.149 117.599 249.35 117.599 250.655V251C117.599 252.294 117.413 253.495 117.04 254.602C116.667 255.699 116.119 256.658 115.395 257.481C114.682 258.292 113.805 258.923 112.763 259.372C111.722 259.822 110.526 260.047 109.178 260.047C107.829 260.047 106.628 259.822 105.576 259.372C104.534 258.923 103.651 258.292 102.927 257.481C102.215 256.658 101.672 255.699 101.299 254.602C100.926 253.495 100.74 252.294 100.74 251ZM105.477 250.655V251C105.477 251.746 105.543 252.442 105.674 253.089C105.806 253.736 106.014 254.306 106.299 254.8C106.595 255.282 106.979 255.661 107.451 255.935C107.922 256.209 108.498 256.346 109.178 256.346C109.836 256.346 110.4 256.209 110.872 255.935C111.343 255.661 111.722 255.282 112.007 254.8C112.292 254.306 112.5 253.736 112.632 253.089C112.774 252.442 112.846 251.746 112.846 251V250.655C112.846 249.931 112.774 249.251 112.632 248.615C112.5 247.968 112.286 247.398 111.99 246.905C111.705 246.4 111.327 246.006 110.855 245.721C110.384 245.436 109.814 245.293 109.145 245.293C108.476 245.293 107.906 245.436 107.434 245.721C106.974 246.006 106.595 246.4 106.299 246.905C106.014 247.398 105.806 247.968 105.674 248.615C105.543 249.251 105.477 249.931 105.477 250.655ZM131.037 255.458V241.921H135.774V259.718H131.316L131.037 255.458ZM131.563 251.806L132.961 251.773C132.961 252.958 132.824 254.06 132.55 255.079C132.276 256.088 131.865 256.965 131.316 257.711C130.768 258.446 130.077 259.021 129.244 259.438C128.411 259.844 127.429 260.047 126.3 260.047C125.434 260.047 124.633 259.926 123.898 259.685C123.175 259.433 122.55 259.043 122.023 258.517C121.508 257.98 121.102 257.294 120.806 256.461C120.521 255.617 120.379 254.602 120.379 253.418V241.921H125.116V253.451C125.116 253.977 125.176 254.422 125.297 254.783C125.428 255.145 125.609 255.441 125.839 255.672C126.07 255.902 126.338 256.066 126.645 256.165C126.963 256.264 127.314 256.313 127.698 256.313C128.674 256.313 129.441 256.116 130.001 255.721C130.571 255.326 130.971 254.789 131.201 254.109C131.443 253.418 131.563 252.651 131.563 251.806ZM144.031 245.721V259.718H139.294V241.921H143.735L144.031 245.721ZM143.34 250.194H142.057C142.057 248.879 142.227 247.694 142.567 246.642C142.907 245.578 143.384 244.673 143.998 243.928C144.612 243.171 145.341 242.596 146.185 242.201C147.041 241.795 147.995 241.592 149.047 241.592C149.881 241.592 150.643 241.713 151.333 241.954C152.024 242.195 152.616 242.579 153.11 243.105C153.614 243.632 153.998 244.328 154.261 245.194C154.535 246.061 154.672 247.119 154.672 248.369V259.718H149.902V248.352C149.902 247.563 149.793 246.949 149.574 246.51C149.354 246.072 149.031 245.764 148.603 245.589C148.186 245.403 147.671 245.309 147.057 245.309C146.421 245.309 145.867 245.436 145.396 245.688C144.935 245.94 144.551 246.291 144.244 246.74C143.948 247.179 143.724 247.694 143.57 248.286C143.417 248.879 143.34 249.515 143.34 250.194ZM168.785 255.836V234.454H173.554V259.718H169.262L168.785 255.836ZM157.534 251.033V250.688C157.534 249.328 157.688 248.095 157.995 246.987C158.302 245.869 158.751 244.909 159.344 244.109C159.936 243.308 160.665 242.689 161.531 242.25C162.397 241.812 163.384 241.592 164.492 241.592C165.533 241.592 166.443 241.812 167.222 242.25C168.012 242.689 168.68 243.314 169.229 244.125C169.788 244.926 170.237 245.874 170.577 246.971C170.917 248.056 171.164 249.246 171.318 250.54V251.296C171.164 252.535 170.917 253.687 170.577 254.75C170.237 255.814 169.788 256.746 169.229 257.547C168.68 258.336 168.012 258.95 167.222 259.389C166.433 259.827 165.511 260.047 164.459 260.047C163.351 260.047 162.364 259.822 161.498 259.372C160.643 258.923 159.919 258.292 159.327 257.481C158.746 256.669 158.302 255.715 157.995 254.619C157.688 253.522 157.534 252.327 157.534 251.033ZM162.271 250.688V251.033C162.271 251.768 162.326 252.453 162.436 253.089C162.556 253.725 162.748 254.29 163.011 254.783C163.286 255.266 163.636 255.644 164.064 255.918C164.503 256.181 165.034 256.313 165.659 256.313C166.471 256.313 167.14 256.132 167.666 255.77C168.192 255.397 168.593 254.888 168.867 254.241C169.152 253.594 169.316 252.848 169.36 252.004V249.849C169.327 249.158 169.229 248.539 169.064 247.99C168.911 247.431 168.68 246.954 168.373 246.559C168.077 246.165 167.704 245.858 167.255 245.638C166.816 245.419 166.295 245.309 165.692 245.309C165.078 245.309 164.552 245.452 164.113 245.737C163.675 246.011 163.318 246.389 163.044 246.872C162.781 247.354 162.584 247.925 162.452 248.583C162.332 249.229 162.271 249.931 162.271 250.688Z" fill="black"/>
<path d="M321.739 253.451C321.739 253.023 321.674 252.64 321.542 252.3C321.421 251.949 321.191 251.631 320.851 251.346C320.511 251.05 320.034 250.759 319.42 250.474C318.806 250.189 318.011 249.893 317.035 249.586C315.95 249.235 314.919 248.84 313.943 248.402C312.978 247.963 312.123 247.453 311.377 246.872C310.643 246.28 310.062 245.595 309.634 244.816C309.217 244.037 309.009 243.133 309.009 242.102C309.009 241.104 309.228 240.2 309.667 239.388C310.105 238.566 310.719 237.864 311.509 237.283C312.298 236.691 313.23 236.236 314.305 235.918C315.391 235.6 316.58 235.441 317.874 235.441C319.64 235.441 321.18 235.759 322.496 236.395C323.812 237.031 324.832 237.902 325.555 239.01C326.29 240.117 326.657 241.384 326.657 242.809H321.756C321.756 242.108 321.608 241.494 321.312 240.967C321.027 240.43 320.588 240.008 319.996 239.701C319.415 239.394 318.68 239.24 317.792 239.24C316.937 239.24 316.224 239.372 315.654 239.635C315.084 239.887 314.656 240.233 314.371 240.671C314.086 241.099 313.943 241.581 313.943 242.119C313.943 242.524 314.042 242.892 314.239 243.221C314.448 243.55 314.755 243.857 315.16 244.142C315.566 244.427 316.065 244.695 316.657 244.948C317.249 245.2 317.935 245.446 318.713 245.688C320.018 246.082 321.164 246.527 322.151 247.02C323.148 247.513 323.982 248.067 324.651 248.681C325.32 249.295 325.824 249.992 326.164 250.77C326.504 251.549 326.674 252.431 326.674 253.418C326.674 254.46 326.471 255.392 326.065 256.214C325.66 257.037 325.073 257.733 324.305 258.303C323.538 258.873 322.622 259.307 321.559 259.603C320.495 259.899 319.305 260.047 317.989 260.047C316.805 260.047 315.637 259.893 314.486 259.586C313.335 259.268 312.287 258.791 311.344 258.155C310.412 257.519 309.667 256.708 309.108 255.721C308.548 254.734 308.269 253.566 308.269 252.218H313.219C313.219 252.963 313.335 253.594 313.565 254.109C313.795 254.624 314.119 255.041 314.535 255.359C314.963 255.677 315.467 255.907 316.049 256.05C316.641 256.192 317.288 256.264 317.989 256.264C318.845 256.264 319.546 256.143 320.095 255.902C320.654 255.661 321.065 255.326 321.328 254.899C321.602 254.471 321.739 253.988 321.739 253.451ZM337.085 256.346C337.666 256.346 338.182 256.236 338.631 256.017C339.081 255.787 339.432 255.469 339.684 255.063C339.947 254.646 340.084 254.158 340.095 253.599H344.553C344.542 254.849 344.207 255.962 343.549 256.938C342.891 257.903 342.009 258.665 340.901 259.224C339.794 259.773 338.555 260.047 337.184 260.047C335.802 260.047 334.596 259.816 333.565 259.356C332.546 258.895 331.696 258.259 331.016 257.448C330.336 256.626 329.826 255.672 329.486 254.586C329.146 253.489 328.976 252.316 328.976 251.066V250.589C328.976 249.328 329.146 248.155 329.486 247.069C329.826 245.973 330.336 245.019 331.016 244.207C331.696 243.385 332.546 242.744 333.565 242.283C334.585 241.822 335.78 241.592 337.151 241.592C338.609 241.592 339.887 241.872 340.983 242.431C342.091 242.99 342.957 243.791 343.582 244.832C344.218 245.863 344.542 247.086 344.553 248.5H340.095C340.084 247.908 339.958 247.371 339.717 246.888C339.487 246.406 339.147 246.022 338.697 245.737C338.259 245.441 337.716 245.293 337.069 245.293C336.378 245.293 335.813 245.441 335.375 245.737C334.936 246.022 334.596 246.417 334.355 246.921C334.114 247.415 333.944 247.979 333.845 248.615C333.757 249.24 333.713 249.898 333.713 250.589V251.066C333.713 251.757 333.757 252.42 333.845 253.056C333.933 253.692 334.097 254.257 334.338 254.75C334.591 255.244 334.936 255.633 335.375 255.918C335.813 256.203 336.383 256.346 337.085 256.346ZM346.543 251V250.655C346.543 249.35 346.729 248.149 347.102 247.053C347.475 245.945 348.018 244.986 348.73 244.175C349.443 243.363 350.32 242.733 351.362 242.283C352.404 241.822 353.599 241.592 354.948 241.592C356.296 241.592 357.497 241.822 358.55 242.283C359.602 242.733 360.485 243.363 361.198 244.175C361.921 244.986 362.47 245.945 362.843 247.053C363.215 248.149 363.402 249.35 363.402 250.655V251C363.402 252.294 363.215 253.495 362.843 254.602C362.47 255.699 361.921 256.658 361.198 257.481C360.485 258.292 359.608 258.923 358.566 259.372C357.524 259.822 356.329 260.047 354.981 260.047C353.632 260.047 352.431 259.822 351.378 259.372C350.337 258.923 349.454 258.292 348.73 257.481C348.018 256.658 347.475 255.699 347.102 254.602C346.729 253.495 346.543 252.294 346.543 251ZM351.28 250.655V251C351.28 251.746 351.346 252.442 351.477 253.089C351.609 253.736 351.817 254.306 352.102 254.8C352.398 255.282 352.782 255.661 353.253 255.935C353.725 256.209 354.301 256.346 354.981 256.346C355.638 256.346 356.203 256.209 356.675 255.935C357.146 255.661 357.524 255.282 357.81 254.8C358.095 254.306 358.303 253.736 358.435 253.089C358.577 252.442 358.648 251.746 358.648 251V250.655C358.648 249.931 358.577 249.251 358.435 248.615C358.303 247.968 358.089 247.398 357.793 246.905C357.508 246.4 357.13 246.006 356.658 245.721C356.187 245.436 355.616 245.293 354.948 245.293C354.279 245.293 353.709 245.436 353.237 245.721C352.776 246.006 352.398 246.4 352.102 246.905C351.817 247.398 351.609 247.968 351.477 248.615C351.346 249.251 351.28 249.931 351.28 250.655ZM371.05 245.803V259.718H366.313V241.921H370.77L371.05 245.803ZM376.412 241.806L376.33 246.198C376.1 246.165 375.82 246.137 375.491 246.115C375.173 246.082 374.882 246.066 374.619 246.066C373.95 246.066 373.369 246.154 372.876 246.329C372.393 246.494 371.988 246.74 371.659 247.069C371.341 247.398 371.099 247.799 370.935 248.27C370.781 248.742 370.694 249.279 370.672 249.882L369.718 249.586C369.718 248.435 369.833 247.376 370.063 246.411C370.293 245.436 370.628 244.586 371.066 243.862C371.516 243.138 372.064 242.579 372.711 242.184C373.358 241.79 374.098 241.592 374.932 241.592C375.195 241.592 375.464 241.614 375.738 241.658C376.012 241.691 376.237 241.74 376.412 241.806ZM386.511 260.047C385.129 260.047 383.89 259.827 382.794 259.389C381.697 258.939 380.765 258.32 379.998 257.53C379.241 256.741 378.66 255.825 378.254 254.783C377.848 253.731 377.646 252.612 377.646 251.428V250.77C377.646 249.421 377.837 248.188 378.221 247.069C378.605 245.951 379.153 244.98 379.866 244.158C380.59 243.336 381.467 242.705 382.498 242.267C383.528 241.817 384.691 241.592 385.985 241.592C387.246 241.592 388.364 241.801 389.34 242.217C390.316 242.634 391.133 243.226 391.791 243.994C392.46 244.761 392.964 245.682 393.304 246.757C393.644 247.82 393.814 249.005 393.814 250.31V252.283H379.669V249.125H389.159V248.763C389.159 248.106 389.038 247.519 388.797 247.004C388.567 246.477 388.216 246.061 387.745 245.754C387.273 245.446 386.67 245.293 385.935 245.293C385.31 245.293 384.773 245.43 384.323 245.704C383.874 245.978 383.507 246.362 383.221 246.856C382.947 247.349 382.739 247.93 382.596 248.599C382.465 249.257 382.399 249.981 382.399 250.77V251.428C382.399 252.141 382.498 252.799 382.695 253.402C382.903 254.005 383.194 254.526 383.567 254.964C383.951 255.403 384.411 255.743 384.948 255.984C385.497 256.225 386.116 256.346 386.807 256.346C387.662 256.346 388.457 256.181 389.192 255.852C389.938 255.513 390.579 255.003 391.116 254.323L393.419 256.823C393.046 257.36 392.536 257.876 391.889 258.369C391.253 258.862 390.486 259.268 389.587 259.586C388.688 259.893 387.662 260.047 386.511 260.047Z" fill="black"/>
<rect width="363.062" height="57.8969" transform="translate(53 879.103)" fill="#47B7E7"/>
<path d="M187.966 908.851H183.384V907.002H187.966C188.853 907.002 189.572 906.861 190.121 906.578C190.671 906.295 191.071 905.903 191.323 905.4C191.582 904.898 191.711 904.324 191.711 903.68C191.711 903.091 191.582 902.538 191.323 902.02C191.071 901.501 190.671 901.085 190.121 900.771C189.572 900.449 188.853 900.288 187.966 900.288H183.914V915.577H181.64V898.427H187.966C189.261 898.427 190.357 898.651 191.252 899.098C192.147 899.546 192.826 900.166 193.29 900.959C193.753 901.745 193.985 902.644 193.985 903.657C193.985 904.756 193.753 905.695 193.29 906.472C192.826 907.249 192.147 907.842 191.252 908.251C190.357 908.651 189.261 908.851 187.966 908.851ZM198.897 897.485V915.577H196.706V897.485H198.897ZM209.91 913.398V906.837C209.91 906.335 209.808 905.899 209.604 905.53C209.408 905.153 209.109 904.862 208.709 904.658C208.308 904.454 207.813 904.352 207.225 904.352C206.675 904.352 206.192 904.446 205.776 904.634C205.367 904.823 205.045 905.07 204.81 905.377C204.582 905.683 204.468 906.013 204.468 906.366H202.289C202.289 905.911 202.407 905.459 202.642 905.011C202.878 904.564 203.216 904.159 203.655 903.798C204.103 903.429 204.637 903.139 205.257 902.927C205.886 902.707 206.585 902.597 207.354 902.597C208.281 902.597 209.097 902.754 209.804 903.068C210.519 903.382 211.076 903.857 211.477 904.493C211.885 905.121 212.089 905.911 212.089 906.861V912.797C212.089 913.221 212.125 913.673 212.195 914.152C212.274 914.631 212.388 915.043 212.537 915.389V915.577H210.264C210.154 915.326 210.067 914.992 210.004 914.576C209.942 914.152 209.91 913.759 209.91 913.398ZM210.287 907.85L210.311 909.381H208.108C207.488 909.381 206.934 909.433 206.447 909.535C205.96 909.629 205.552 909.774 205.222 909.97C204.892 910.167 204.641 910.414 204.468 910.713C204.295 911.003 204.209 911.345 204.209 911.737C204.209 912.138 204.299 912.503 204.48 912.833C204.661 913.163 204.932 913.426 205.293 913.622C205.662 913.81 206.113 913.905 206.647 913.905C207.315 913.905 207.904 913.763 208.414 913.481C208.925 913.198 209.329 912.852 209.627 912.444C209.934 912.036 210.099 911.639 210.122 911.254L211.053 912.303C210.998 912.633 210.849 912.998 210.605 913.398C210.362 913.799 210.036 914.183 209.627 914.553C209.227 914.914 208.748 915.216 208.19 915.46C207.641 915.695 207.02 915.813 206.329 915.813C205.466 915.813 204.708 915.644 204.056 915.306C203.412 914.969 202.909 914.517 202.548 913.952C202.195 913.379 202.018 912.739 202.018 912.032C202.018 911.349 202.152 910.748 202.419 910.23C202.686 909.703 203.07 909.268 203.573 908.922C204.076 908.569 204.68 908.302 205.387 908.121C206.094 907.94 206.883 907.85 207.755 907.85H210.287ZM218.909 914.258L222.455 902.832H224.787L219.675 917.544C219.557 917.859 219.4 918.196 219.204 918.557C219.015 918.927 218.772 919.276 218.474 919.606C218.175 919.936 217.814 920.203 217.39 920.407C216.974 920.619 216.475 920.725 215.894 920.725C215.721 920.725 215.501 920.701 215.234 920.654C214.967 920.607 214.779 920.568 214.669 920.536L214.657 918.769C214.72 918.777 214.818 918.785 214.952 918.793C215.093 918.809 215.191 918.817 215.246 918.817C215.741 918.817 216.161 918.75 216.507 918.616C216.852 918.491 217.143 918.275 217.378 917.968C217.622 917.67 217.83 917.258 218.002 916.732L218.909 914.258ZM216.306 902.832L219.616 912.727L220.182 915.024L218.615 915.825L213.927 902.832H216.306ZM240.253 913.398V906.837C240.253 906.335 240.151 905.899 239.947 905.53C239.751 905.153 239.452 904.862 239.052 904.658C238.651 904.454 238.157 904.352 237.568 904.352C237.018 904.352 236.535 904.446 236.119 904.634C235.71 904.823 235.388 905.07 235.153 905.377C234.925 905.683 234.811 906.013 234.811 906.366H232.632C232.632 905.911 232.75 905.459 232.986 905.011C233.221 904.564 233.559 904.159 233.999 903.798C234.446 903.429 234.98 903.139 235.601 902.927C236.229 902.707 236.928 902.597 237.697 902.597C238.624 902.597 239.441 902.754 240.147 903.068C240.862 903.382 241.419 903.857 241.82 904.493C242.228 905.121 242.432 905.911 242.432 906.861V912.797C242.432 913.221 242.468 913.673 242.538 914.152C242.617 914.631 242.731 915.043 242.88 915.389V915.577H240.607C240.497 915.326 240.41 914.992 240.348 914.576C240.285 914.152 240.253 913.759 240.253 913.398ZM240.63 907.85L240.654 909.381H238.451C237.831 909.381 237.277 909.433 236.79 909.535C236.303 909.629 235.895 909.774 235.565 909.97C235.235 910.167 234.984 910.414 234.811 910.713C234.639 911.003 234.552 911.345 234.552 911.737C234.552 912.138 234.642 912.503 234.823 912.833C235.004 913.163 235.275 913.426 235.636 913.622C236.005 913.81 236.456 913.905 236.99 913.905C237.658 913.905 238.247 913.763 238.757 913.481C239.268 913.198 239.672 912.852 239.971 912.444C240.277 912.036 240.442 911.639 240.465 911.254L241.396 912.303C241.341 912.633 241.192 912.998 240.948 913.398C240.705 913.799 240.379 914.183 239.971 914.553C239.57 914.914 239.091 915.216 238.534 915.46C237.984 915.695 237.363 915.813 236.672 915.813C235.809 915.813 235.051 915.644 234.399 915.306C233.755 914.969 233.253 914.517 232.891 913.952C232.538 913.379 232.361 912.739 232.361 912.032C232.361 911.349 232.495 910.748 232.762 910.23C233.029 909.703 233.414 909.268 233.916 908.922C234.419 908.569 235.023 908.302 235.73 908.121C236.437 907.94 237.226 907.85 238.098 907.85H240.63ZM254.117 902.832H256.096V915.306C256.096 916.429 255.869 917.387 255.413 918.181C254.958 918.974 254.322 919.574 253.505 919.983C252.696 920.399 251.762 920.607 250.701 920.607C250.262 920.607 249.743 920.536 249.147 920.395C248.558 920.261 247.976 920.03 247.403 919.7C246.838 919.378 246.363 918.942 245.978 918.393L247.121 917.097C247.655 917.741 248.212 918.188 248.793 918.44C249.382 918.691 249.963 918.817 250.536 918.817C251.228 918.817 251.824 918.687 252.327 918.428C252.83 918.169 253.218 917.784 253.493 917.274C253.776 916.771 253.917 916.151 253.917 915.412V905.636L254.117 902.832ZM245.342 909.346V909.099C245.342 908.125 245.456 907.242 245.683 906.448C245.919 905.647 246.253 904.96 246.685 904.387C247.124 903.814 247.655 903.374 248.275 903.068C248.895 902.754 249.594 902.597 250.372 902.597C251.173 902.597 251.871 902.738 252.468 903.021C253.073 903.296 253.583 903.7 254 904.234C254.424 904.76 254.757 905.396 255.001 906.142C255.244 906.888 255.413 907.732 255.507 908.675V909.758C255.421 910.693 255.252 911.533 255.001 912.279C254.757 913.025 254.424 913.661 254 914.187C253.583 914.714 253.073 915.118 252.468 915.401C251.864 915.675 251.157 915.813 250.348 915.813C249.586 915.813 248.895 915.652 248.275 915.33C247.662 915.008 247.136 914.556 246.696 913.975C246.257 913.394 245.919 912.711 245.683 911.926C245.456 911.133 245.342 910.273 245.342 909.346ZM247.521 909.099V909.346C247.521 909.982 247.584 910.579 247.709 911.137C247.843 911.694 248.043 912.185 248.31 912.609C248.585 913.033 248.935 913.367 249.359 913.61C249.783 913.846 250.289 913.964 250.878 913.964C251.601 913.964 252.197 913.81 252.669 913.504C253.14 913.198 253.513 912.794 253.788 912.291C254.07 911.788 254.29 911.243 254.447 910.654V907.815C254.361 907.383 254.227 906.967 254.047 906.566C253.874 906.158 253.646 905.797 253.363 905.483C253.089 905.161 252.747 904.905 252.339 904.717C251.93 904.528 251.451 904.434 250.902 904.434C250.305 904.434 249.79 904.56 249.359 904.811C248.935 905.055 248.585 905.392 248.31 905.824C248.043 906.248 247.843 906.743 247.709 907.308C247.584 907.866 247.521 908.463 247.521 909.099ZM266.921 913.398V906.837C266.921 906.335 266.819 905.899 266.615 905.53C266.419 905.153 266.12 904.862 265.72 904.658C265.319 904.454 264.825 904.352 264.236 904.352C263.686 904.352 263.203 904.446 262.787 904.634C262.378 904.823 262.057 905.07 261.821 905.377C261.593 905.683 261.479 906.013 261.479 906.366H259.3C259.3 905.911 259.418 905.459 259.654 905.011C259.889 904.564 260.227 904.159 260.667 903.798C261.114 903.429 261.648 903.139 262.269 902.927C262.897 902.707 263.596 902.597 264.365 902.597C265.292 902.597 266.109 902.754 266.815 903.068C267.53 903.382 268.087 903.857 268.488 904.493C268.896 905.121 269.1 905.911 269.1 906.861V912.797C269.1 913.221 269.136 913.673 269.206 914.152C269.285 914.631 269.399 915.043 269.548 915.389V915.577H267.275C267.165 915.326 267.078 914.992 267.016 914.576C266.953 914.152 266.921 913.759 266.921 913.398ZM267.298 907.85L267.322 909.381H265.119C264.499 909.381 263.945 909.433 263.458 909.535C262.971 909.629 262.563 909.774 262.233 909.97C261.903 910.167 261.652 910.414 261.479 910.713C261.307 911.003 261.22 911.345 261.22 911.737C261.22 912.138 261.31 912.503 261.491 912.833C261.672 913.163 261.943 913.426 262.304 913.622C262.673 913.81 263.124 913.905 263.658 913.905C264.326 913.905 264.915 913.763 265.425 913.481C265.936 913.198 266.34 912.852 266.639 912.444C266.945 912.036 267.11 911.639 267.133 911.254L268.064 912.303C268.009 912.633 267.86 912.998 267.616 913.398C267.373 913.799 267.047 914.183 266.639 914.553C266.238 914.914 265.759 915.216 265.202 915.46C264.652 915.695 264.031 915.813 263.34 915.813C262.477 915.813 261.719 915.644 261.067 915.306C260.423 914.969 259.921 914.517 259.559 913.952C259.206 913.379 259.029 912.739 259.029 912.032C259.029 911.349 259.163 910.748 259.43 910.23C259.697 909.703 260.082 909.268 260.584 908.922C261.087 908.569 261.691 908.302 262.398 908.121C263.105 907.94 263.894 907.85 264.766 907.85H267.298ZM274.896 902.832V915.577H272.705V902.832H274.896ZM272.54 899.452C272.54 899.098 272.646 898.8 272.858 898.556C273.078 898.313 273.4 898.191 273.824 898.191C274.24 898.191 274.558 898.313 274.778 898.556C275.006 898.8 275.12 899.098 275.12 899.452C275.12 899.789 275.006 900.08 274.778 900.323C274.558 900.559 274.24 900.677 273.824 900.677C273.4 900.677 273.078 900.559 272.858 900.323C272.646 900.08 272.54 899.789 272.54 899.452ZM280.573 905.553V915.577H278.394V902.832H280.456L280.573 905.553ZM280.055 908.722L279.148 908.687C279.156 907.815 279.285 907.01 279.537 906.272C279.788 905.526 280.141 904.878 280.597 904.328C281.052 903.779 281.594 903.354 282.222 903.056C282.858 902.75 283.561 902.597 284.331 902.597C284.959 902.597 285.525 902.683 286.027 902.856C286.53 903.021 286.958 903.288 287.311 903.657C287.672 904.026 287.947 904.505 288.136 905.094C288.324 905.675 288.418 906.386 288.418 907.226V915.577H286.227V907.202C286.227 906.535 286.129 906.001 285.933 905.6C285.737 905.192 285.45 904.898 285.073 904.717C284.696 904.528 284.233 904.434 283.683 904.434C283.141 904.434 282.646 904.548 282.199 904.776C281.759 905.004 281.378 905.318 281.056 905.718C280.742 906.119 280.495 906.578 280.314 907.096C280.141 907.607 280.055 908.149 280.055 908.722Z" fill="black"/>
<path d="M78.4994 826.562V848H74.0969V826.562H78.4994ZM85.0957 826.562V830.022H67.6037V826.562H85.0957ZM84.1092 840.196V839.887C84.1092 838.719 84.2761 837.644 84.6098 836.663C84.9436 835.671 85.4295 834.812 86.0675 834.086C86.7055 833.359 87.4908 832.795 88.4233 832.393C89.3559 831.98 90.4258 831.774 91.6332 831.774C92.8405 831.774 93.9154 831.98 94.8577 832.393C95.8 832.795 96.5902 833.359 97.2283 834.086C97.8761 834.812 98.3669 835.671 98.7007 836.663C99.0344 837.644 99.2013 838.719 99.2013 839.887V840.196C99.2013 841.355 99.0344 842.429 98.7007 843.421C98.3669 844.402 97.8761 845.261 97.2283 845.998C96.5902 846.724 95.8049 847.288 94.8724 847.691C93.9399 848.093 92.87 848.294 91.6626 848.294C90.4552 848.294 89.3804 848.093 88.4381 847.691C87.5055 847.288 86.7154 846.724 86.0675 845.998C85.4295 845.261 84.9436 844.402 84.6098 843.421C84.2761 842.429 84.1092 841.355 84.1092 840.196ZM88.3497 839.887V840.196C88.3497 840.864 88.4086 841.487 88.5264 842.066C88.6442 842.645 88.8307 843.156 89.0859 843.598C89.3509 844.029 89.6945 844.368 90.1166 844.613C90.5387 844.859 91.054 844.982 91.6626 844.982C92.2516 844.982 92.7571 844.859 93.1792 844.613C93.6013 844.368 93.9399 844.029 94.1951 843.598C94.4503 843.156 94.6368 842.645 94.7546 842.066C94.8822 841.487 94.946 840.864 94.946 840.196V839.887C94.946 839.239 94.8822 838.631 94.7546 838.061C94.6368 837.482 94.4454 836.972 94.1804 836.53C93.9252 836.079 93.5865 835.725 93.1645 835.47C92.7424 835.215 92.2319 835.087 91.6332 835.087C91.0344 835.087 90.524 835.215 90.1019 835.47C89.6896 835.725 89.3509 836.079 89.0859 836.53C88.8307 836.972 88.6442 837.482 88.5264 838.061C88.4086 838.631 88.3497 839.239 88.3497 839.887ZM109.611 832.069V835.072H100.335V832.069H109.611ZM102.632 828.137H106.872V843.2C106.872 843.661 106.931 844.015 107.049 844.26C107.177 844.506 107.363 844.677 107.609 844.775C107.854 844.864 108.163 844.908 108.536 844.908C108.801 844.908 109.037 844.898 109.243 844.879C109.459 844.849 109.641 844.82 109.788 844.79L109.803 847.912C109.439 848.029 109.047 848.123 108.625 848.191C108.203 848.26 107.736 848.294 107.226 848.294C106.293 848.294 105.479 848.142 104.782 847.838C104.095 847.524 103.564 847.023 103.191 846.336C102.818 845.649 102.632 844.746 102.632 843.627V828.137ZM120.625 844.407V837.31C120.625 836.8 120.541 836.363 120.374 836C120.207 835.627 119.947 835.337 119.594 835.131C119.25 834.925 118.804 834.822 118.254 834.822C117.783 834.822 117.376 834.906 117.032 835.072C116.688 835.229 116.423 835.46 116.237 835.764C116.05 836.059 115.957 836.407 115.957 836.81H111.717C111.717 836.133 111.874 835.49 112.188 834.881C112.502 834.272 112.958 833.737 113.557 833.276C114.156 832.805 114.868 832.437 115.692 832.172C116.526 831.907 117.459 831.774 118.49 831.774C119.726 831.774 120.826 831.98 121.788 832.393C122.75 832.805 123.506 833.423 124.055 834.248C124.615 835.072 124.895 836.103 124.895 837.34V844.157C124.895 845.031 124.949 845.747 125.057 846.307C125.164 846.856 125.322 847.337 125.528 847.75V848H121.243C121.037 847.568 120.88 847.028 120.772 846.38C120.674 845.723 120.625 845.065 120.625 844.407ZM121.184 838.297L121.214 840.697H118.843C118.284 840.697 117.798 840.761 117.385 840.888C116.973 841.016 116.634 841.198 116.369 841.433C116.104 841.659 115.908 841.924 115.78 842.228C115.663 842.533 115.604 842.866 115.604 843.229C115.604 843.593 115.687 843.921 115.854 844.216C116.021 844.501 116.261 844.726 116.576 844.893C116.89 845.05 117.258 845.129 117.68 845.129C118.318 845.129 118.872 845.001 119.344 844.746C119.815 844.491 120.178 844.177 120.433 843.804C120.698 843.431 120.836 843.077 120.845 842.744L121.964 844.54C121.807 844.942 121.591 845.36 121.317 845.791C121.052 846.223 120.713 846.631 120.301 847.013C119.888 847.387 119.393 847.696 118.814 847.941C118.234 848.177 117.547 848.294 116.752 848.294C115.741 848.294 114.823 848.093 113.999 847.691C113.184 847.279 112.536 846.714 112.055 845.998C111.584 845.271 111.349 844.447 111.349 843.524C111.349 842.69 111.506 841.948 111.82 841.301C112.134 840.653 112.595 840.108 113.204 839.666C113.822 839.215 114.593 838.876 115.515 838.65C116.438 838.415 117.508 838.297 118.725 838.297H121.184ZM132.639 825.384V848H128.384V825.384H132.639ZM152.266 843.598C152.266 843.293 152.178 843.018 152.001 842.773C151.825 842.528 151.496 842.302 151.015 842.096C150.544 841.88 149.861 841.683 148.968 841.507C148.163 841.33 147.412 841.109 146.715 840.844C146.028 840.569 145.43 840.24 144.919 839.858C144.419 839.475 144.026 839.023 143.741 838.503C143.457 837.973 143.314 837.369 143.314 836.692C143.314 836.025 143.457 835.396 143.741 834.807C144.036 834.218 144.453 833.698 144.993 833.247C145.542 832.785 146.21 832.427 146.995 832.172C147.79 831.907 148.684 831.774 149.675 831.774C151.059 831.774 152.247 831.995 153.238 832.437C154.239 832.879 155.005 833.487 155.535 834.263C156.075 835.028 156.345 835.902 156.345 836.883H152.104C152.104 836.471 152.016 836.103 151.839 835.779C151.673 835.445 151.407 835.185 151.044 834.999C150.691 834.802 150.23 834.704 149.66 834.704C149.189 834.704 148.782 834.788 148.438 834.955C148.095 835.112 147.83 835.328 147.643 835.602C147.466 835.867 147.378 836.162 147.378 836.486C147.378 836.731 147.427 836.952 147.525 837.148C147.633 837.335 147.805 837.507 148.041 837.664C148.276 837.821 148.58 837.968 148.953 838.106C149.336 838.233 149.807 838.351 150.367 838.459C151.515 838.694 152.541 839.004 153.444 839.386C154.347 839.759 155.064 840.27 155.594 840.918C156.124 841.556 156.389 842.395 156.389 843.436C156.389 844.142 156.232 844.79 155.918 845.379C155.604 845.968 155.152 846.483 154.563 846.925C153.974 847.357 153.268 847.696 152.443 847.941C151.628 848.177 150.711 848.294 149.69 848.294C148.207 848.294 146.951 848.029 145.92 847.499C144.899 846.969 144.124 846.297 143.594 845.482C143.074 844.658 142.814 843.813 142.814 842.95H146.833C146.853 843.529 147 843.995 147.275 844.348C147.56 844.702 147.918 844.957 148.35 845.114C148.792 845.271 149.268 845.35 149.778 845.35C150.328 845.35 150.784 845.276 151.147 845.129C151.511 844.972 151.785 844.766 151.972 844.51C152.168 844.245 152.266 843.941 152.266 843.598ZM165.724 844.982C166.244 844.982 166.706 844.883 167.108 844.687C167.511 844.481 167.825 844.196 168.05 843.833C168.286 843.46 168.409 843.023 168.419 842.523H172.409C172.399 843.642 172.1 844.638 171.511 845.512C170.922 846.375 170.131 847.058 169.14 847.558C168.149 848.049 167.039 848.294 165.812 848.294C164.576 848.294 163.496 848.088 162.573 847.676C161.66 847.264 160.9 846.694 160.291 845.968C159.682 845.232 159.226 844.378 158.922 843.406C158.617 842.425 158.465 841.374 158.465 840.255V839.828C158.465 838.699 158.617 837.649 158.922 836.677C159.226 835.696 159.682 834.842 160.291 834.115C160.9 833.379 161.66 832.805 162.573 832.393C163.486 831.98 164.556 831.774 165.783 831.774C167.088 831.774 168.232 832.025 169.214 832.525C170.205 833.026 170.981 833.742 171.54 834.675C172.109 835.598 172.399 836.692 172.409 837.958H168.419C168.409 837.428 168.296 836.947 168.08 836.515C167.874 836.083 167.569 835.74 167.167 835.485C166.774 835.22 166.288 835.087 165.709 835.087C165.091 835.087 164.585 835.22 164.193 835.485C163.8 835.74 163.496 836.093 163.28 836.545C163.064 836.986 162.912 837.492 162.823 838.061C162.745 838.621 162.706 839.21 162.706 839.828V840.255C162.706 840.874 162.745 841.467 162.823 842.037C162.902 842.606 163.049 843.112 163.265 843.553C163.491 843.995 163.8 844.344 164.193 844.599C164.585 844.854 165.096 844.982 165.724 844.982ZM174.19 840.196V839.887C174.19 838.719 174.357 837.644 174.691 836.663C175.025 835.671 175.511 834.812 176.149 834.086C176.787 833.359 177.572 832.795 178.504 832.393C179.437 831.98 180.507 831.774 181.714 831.774C182.922 831.774 183.996 831.98 184.939 832.393C185.881 832.795 186.671 833.359 187.309 834.086C187.957 834.812 188.448 835.671 188.782 836.663C189.115 837.644 189.282 838.719 189.282 839.887V840.196C189.282 841.355 189.115 842.429 188.782 843.421C188.448 844.402 187.957 845.261 187.309 845.998C186.671 846.724 185.886 847.288 184.954 847.691C184.021 848.093 182.951 848.294 181.744 848.294C180.536 848.294 179.461 848.093 178.519 847.691C177.587 847.288 176.796 846.724 176.149 845.998C175.511 845.261 175.025 844.402 174.691 843.421C174.357 842.429 174.19 841.355 174.19 840.196ZM178.431 839.887V840.196C178.431 840.864 178.49 841.487 178.608 842.066C178.725 842.645 178.912 843.156 179.167 843.598C179.432 844.029 179.776 844.368 180.198 844.613C180.62 844.859 181.135 844.982 181.744 844.982C182.333 844.982 182.838 844.859 183.26 844.613C183.682 844.368 184.021 844.029 184.276 843.598C184.531 843.156 184.718 842.645 184.836 842.066C184.963 841.487 185.027 840.864 185.027 840.196V839.887C185.027 839.239 184.963 838.631 184.836 838.061C184.718 837.482 184.527 836.972 184.262 836.53C184.006 836.079 183.668 835.725 183.246 835.47C182.823 835.215 182.313 835.087 181.714 835.087C181.115 835.087 180.605 835.215 180.183 835.47C179.771 835.725 179.432 836.079 179.167 836.53C178.912 836.972 178.725 837.482 178.608 838.061C178.49 838.631 178.431 839.239 178.431 839.887ZM196.129 835.544V848H191.889V832.069H195.879L196.129 835.544ZM200.929 831.966L200.855 835.897C200.649 835.867 200.399 835.843 200.104 835.823C199.82 835.794 199.56 835.779 199.324 835.779C198.725 835.779 198.205 835.858 197.763 836.015C197.331 836.162 196.968 836.383 196.674 836.677C196.389 836.972 196.173 837.33 196.026 837.752C195.889 838.174 195.81 838.655 195.79 839.195L194.936 838.93C194.936 837.899 195.039 836.952 195.246 836.088C195.452 835.215 195.751 834.454 196.144 833.806C196.546 833.158 197.037 832.658 197.616 832.304C198.195 831.951 198.858 831.774 199.604 831.774C199.839 831.774 200.08 831.794 200.325 831.833C200.571 831.863 200.772 831.907 200.929 831.966ZM209.97 848.294C208.733 848.294 207.623 848.098 206.642 847.706C205.66 847.303 204.826 846.748 204.139 846.042C203.462 845.335 202.941 844.515 202.578 843.583C202.215 842.64 202.033 841.639 202.033 840.579V839.99C202.033 838.783 202.205 837.679 202.549 836.677C202.892 835.676 203.383 834.807 204.021 834.071C204.669 833.335 205.454 832.771 206.377 832.378C207.3 831.975 208.34 831.774 209.498 831.774C210.627 831.774 211.628 831.961 212.502 832.334C213.376 832.707 214.107 833.237 214.696 833.924C215.295 834.611 215.746 835.436 216.05 836.398C216.355 837.35 216.507 838.41 216.507 839.578V841.345H203.844V838.518H212.34V838.194C212.34 837.605 212.232 837.08 212.016 836.618C211.81 836.147 211.496 835.774 211.074 835.499C210.652 835.225 210.112 835.087 209.454 835.087C208.895 835.087 208.414 835.21 208.011 835.455C207.609 835.701 207.28 836.044 207.025 836.486C206.779 836.928 206.593 837.448 206.465 838.047C206.347 838.636 206.289 839.283 206.289 839.99V840.579C206.289 841.217 206.377 841.806 206.554 842.346C206.74 842.886 207 843.352 207.334 843.745C207.677 844.137 208.09 844.442 208.571 844.658C209.062 844.874 209.616 844.982 210.235 844.982C211 844.982 211.712 844.834 212.37 844.54C213.037 844.236 213.611 843.779 214.092 843.171L216.154 845.409C215.82 845.89 215.363 846.351 214.784 846.793C214.215 847.234 213.528 847.598 212.723 847.882C211.918 848.157 211 848.294 209.97 848.294ZM219.084 845.953C219.084 845.325 219.3 844.8 219.731 844.378C220.173 843.956 220.757 843.745 221.484 843.745C222.21 843.745 222.789 843.956 223.221 844.378C223.663 844.8 223.884 845.325 223.884 845.953C223.884 846.582 223.663 847.107 223.221 847.529C222.789 847.951 222.21 848.162 221.484 848.162C220.757 848.162 220.173 847.951 219.731 847.529C219.3 847.107 219.084 846.582 219.084 845.953ZM219.084 833.806C219.084 833.178 219.3 832.653 219.731 832.231C220.173 831.809 220.757 831.598 221.484 831.598C222.21 831.598 222.789 831.809 223.221 832.231C223.663 832.653 223.884 833.178 223.884 833.806C223.884 834.434 223.663 834.959 223.221 835.382C222.789 835.804 222.21 836.015 221.484 836.015C220.757 836.015 220.173 835.804 219.731 835.382C219.3 834.959 219.084 834.434 219.084 833.806Z" fill="black"/>
<path d="M336.809 826.518V848H332.568V831.406L327.474 833.026V829.683L336.352 826.518H336.809ZM358.217 835.396V839.107C358.217 840.717 358.045 842.106 357.702 843.274C357.358 844.432 356.863 845.384 356.215 846.13C355.577 846.866 354.816 847.411 353.933 847.764C353.049 848.118 352.068 848.294 350.988 848.294C350.124 848.294 349.319 848.187 348.573 847.971C347.827 847.745 347.155 847.396 346.556 846.925C345.967 846.454 345.456 845.86 345.025 845.144C344.602 844.417 344.279 843.553 344.053 842.552C343.827 841.551 343.714 840.402 343.714 839.107V835.396C343.714 833.786 343.886 832.407 344.229 831.259C344.583 830.101 345.079 829.153 345.717 828.417C346.364 827.681 347.13 827.141 348.014 826.798C348.897 826.444 349.879 826.267 350.958 826.267C351.822 826.267 352.622 826.38 353.358 826.606C354.104 826.822 354.777 827.161 355.375 827.622C355.974 828.083 356.485 828.677 356.907 829.404C357.329 830.12 357.653 830.979 357.879 831.98C358.104 832.972 358.217 834.11 358.217 835.396ZM353.962 839.666V834.822C353.962 834.047 353.918 833.369 353.829 832.79C353.751 832.211 353.628 831.72 353.461 831.318C353.295 830.905 353.088 830.572 352.843 830.317C352.598 830.061 352.318 829.875 352.004 829.757C351.69 829.639 351.341 829.58 350.958 829.58C350.477 829.58 350.05 829.674 349.677 829.86C349.314 830.047 349.005 830.346 348.75 830.758C348.495 831.161 348.298 831.701 348.161 832.378C348.033 833.045 347.969 833.86 347.969 834.822V839.666C347.969 840.442 348.009 841.124 348.087 841.713C348.175 842.302 348.303 842.807 348.47 843.229C348.647 843.642 348.853 843.98 349.088 844.245C349.334 844.501 349.614 844.687 349.928 844.805C350.252 844.923 350.605 844.982 350.988 844.982C351.459 844.982 351.876 844.888 352.239 844.702C352.612 844.506 352.926 844.201 353.182 843.789C353.447 843.367 353.643 842.817 353.771 842.14C353.898 841.463 353.962 840.638 353.962 839.666ZM375.533 835.396V839.107C375.533 840.717 375.361 842.106 375.017 843.274C374.674 844.432 374.178 845.384 373.53 846.13C372.892 846.866 372.131 847.411 371.248 847.764C370.364 848.118 369.383 848.294 368.303 848.294C367.439 848.294 366.634 848.187 365.888 847.971C365.142 847.745 364.47 847.396 363.871 846.925C363.282 846.454 362.772 845.86 362.34 845.144C361.918 844.417 361.594 843.553 361.368 842.552C361.142 841.551 361.029 840.402 361.029 839.107V835.396C361.029 833.786 361.201 832.407 361.545 831.259C361.898 830.101 362.394 829.153 363.032 828.417C363.68 827.681 364.445 827.141 365.329 826.798C366.212 826.444 367.194 826.267 368.274 826.267C369.137 826.267 369.937 826.38 370.674 826.606C371.42 826.822 372.092 827.161 372.691 827.622C373.29 828.083 373.8 828.677 374.222 829.404C374.644 830.12 374.968 830.979 375.194 831.98C375.42 832.972 375.533 834.11 375.533 835.396ZM371.277 839.666V834.822C371.277 834.047 371.233 833.369 371.145 832.79C371.066 832.211 370.944 831.72 370.777 831.318C370.61 830.905 370.404 830.572 370.158 830.317C369.913 830.061 369.633 829.875 369.319 829.757C369.005 829.639 368.656 829.58 368.274 829.58C367.793 829.58 367.366 829.674 366.993 829.86C366.63 830.047 366.32 830.346 366.065 830.758C365.81 831.161 365.614 831.701 365.476 832.378C365.349 833.045 365.285 833.86 365.285 834.822V839.666C365.285 840.442 365.324 841.124 365.403 841.713C365.491 842.302 365.618 842.807 365.785 843.229C365.962 843.642 366.168 843.98 366.404 844.245C366.649 844.501 366.929 844.687 367.243 844.805C367.567 844.923 367.92 844.982 368.303 844.982C368.774 844.982 369.191 844.888 369.555 844.702C369.928 844.506 370.242 844.201 370.497 843.789C370.762 843.367 370.958 842.817 371.086 842.14C371.214 841.463 371.277 840.638 371.277 839.666Z" fill="black"/>
</g>
<rect width="421" height="77" transform="translate(24 39)" fill="#47B7E7"/>
<defs>
<filter id="filter0_ii_201_98" x="-23" y="11" width="516" height="992" filterUnits="userSpaceOnUse" color-interpolation-filters="sRGB">
<feFlood flood-opacity="0" result="BackgroundImageFix"/>
<feBlend mode="normal" in="SourceGraphic" in2="BackgroundImageFix" result="shape"/>
<feColorMatrix in="SourceAlpha" type="matrix" values="0 0 0 0 0 0 0 0 0 0 0 0 0 0 0 0 0 0 127 0" result="hardAlpha"/>
<feOffset dx="30" dy="2"/>
<feGaussianBlur stdDeviation="15"/>
<feComposite in2="hardAlpha" operator="arithmetic" k2="-1" k3="1"/>
<feColorMatrix type="matrix" values="0 0 0 0 0.0333333 0 0 0 0 0.0333333 0 0 0 0 0.0333333 0 0 0 0.5 0"/>
<feBlend mode="normal" in2="shape" result="effect1_innerShadow_201_98"/>
<feColorMatrix in="SourceAlpha" type="matrix" values="0 0 0 0 0 0 0 0 0 0 0 0 0 0 0 0 0 0 127 0" result="hardAlpha"/>
<feOffset dx="-30" dy="-2"/>
<feGaussianBlur stdDeviation="15"/>
<feComposite in2="hardAlpha" operator="arithmetic" k2="-1" k3="1"/>
<feColorMatrix type="matrix" values="0 0 0 0 1 0 0 0 0 1 0 0 0 0 1 0 0 0 0.05 0"/>
<feBlend mode="normal" in2="effect1_innerShadow_201_98" result="effect2_innerShadow_201_98"/>
</filter>
<linearGradient id="paint0_linear_201_98" x1="235" y1="13" x2="235" y2="1001" gradientUnits="userSpaceOnUse">
<stop stop-color="#0E0E0E"/>
<stop offset="1" stop-color="#3C3C3C"/>
</linearGradient>
<clipPath id="clip0_201_98">
<rect width="421" height="935.555" fill="white" transform="translate(24 39)"/>
</clipPath>
</defs>
</svg>
